Courier Prime.glyphspackage
{
glyphname = AE;
layers = (
{
layerId = UUID0;
paths = (
{
closed = 1;
nodes = (
"294 1187 LINE SMOOTH",
"249 1187 OFFCURVE",
"231 1169 OFFCURVE",
"231 1119 CURVE SMOOTH",
"231 1069 OFFCURVE",
"249 1051 OFFCURVE",
"294 1051 CURVE SMOOTH",
"393 1051 LINE",
"113 136 LINE",
"63 136 LINE SMOOTH",
"18 136 OFFCURVE",
"0 118 OFFCURVE",
"0 68 CURVE SMOOTH",
"0 18 OFFCURVE",
"18 0 OFFCURVE",
"63 0 CURVE SMOOTH",
"357 0 LINE SMOOTH",
"402 0 OFFCURVE",
"420 18 OFFCURVE",
"420 68 CURVE SMOOTH",
"420 118 OFFCURVE",
"402 136 OFFCURVE",
"357 136 CURVE SMOOTH",
"269 136 LINE",
"341 374 LINE",
"566 374 LINE",
"566 68 LINE SMOOTH",
"566 18 OFFCURVE",
"584 0 OFFCURVE",
"629 0 CURVE SMOOTH",
"1075 0 LINE SMOOTH",
"1120 0 OFFCURVE",
"1138 18 OFFCURVE",
"1138 68 CURVE SMOOTH",
"1138 365 LINE SMOOTH",
"1138 411 OFFCURVE",
"1119 430 OFFCURVE",
"1063 430 CURVE SMOOTH",
"1007 430 OFFCURVE",
"988 411 OFFCURVE",
"988 365 CURVE SMOOTH",
"988 136 LINE",
"716 136 LINE",
"716 549 LINE",
"908 549 LINE SMOOTH",
"953 549 OFFCURVE",
"971 567 OFFCURVE",
"971 617 CURVE SMOOTH",
"971 667 OFFCURVE",
"953 685 OFFCURVE",
"908 685 CURVE SMOOTH",
"716 685 LINE",
"716 1051 LINE",
"976 1051 LINE",
"976 865 LINE SMOOTH",
"976 819 OFFCURVE",
"995 800 OFFCURVE",
"1051 800 CURVE SMOOTH",
"1107 800 OFFCURVE",
"1126 819 OFFCURVE",
"1126 865 CURVE SMOOTH",
"1126 1119 LINE SMOOTH",
"1126 1169 OFFCURVE",
"1108 1187 OFFCURVE",
"1063 1187 CURVE SMOOTH"
);
},
{
closed = 1;
nodes = (
"566 510 LINE",
"382 510 LINE",
"546 1051 LINE",
"566 1051 LINE"
);
}
);
width = 1228;
},
{
layerId = "8538028E-5D6C-4318-9676-30148CDA39CA";
paths = (
{
closed = 1;
nodes = (
"183 1187 LINE SMOOTH",
"138 1187 OFFCURVE",
"120 1169 OFFCURVE",
"120 1084 CURVE SMOOTH",
"120 999 OFFCURVE",
"138 982 OFFCURVE",
"183 982 CURVE SMOOTH",
"285 982 LINE",
"86 205 LINE",
"33 205 LINE SMOOTH",
"-12 205 OFFCURVE",
"-30 187 OFFCURVE",
"-30 102 CURVE SMOOTH",
"-30 17 OFFCURVE",
"-12 0 OFFCURVE",
"33 0 CURVE SMOOTH",
"357 0 LINE SMOOTH",
"402 0 OFFCURVE",
"420 17 OFFCURVE",
"420 102 CURVE SMOOTH",
"420 187 OFFCURVE",
"402 205 OFFCURVE",
"357 205 CURVE SMOOTH",
"316 205 LINE",
"348 330 LINE",
"550 330 LINE",
"550 65 LINE SMOOTH",
"550 19 OFFCURVE",
"569 0 OFFCURVE",
"615 0 CURVE SMOOTH",
"1115 0 LINE SMOOTH",
"1161 0 OFFCURVE",
"1180 19 OFFCURVE",
"1180 65 CURVE SMOOTH",
"1180 387 LINE SMOOTH",
"1180 432 OFFCURVE",
"1161 450 OFFCURVE",
"1076 450 CURVE SMOOTH",
"991 450 OFFCURVE",
"960 432 OFFCURVE",
"960 387 CURVE SMOOTH",
"960 205 LINE",
"780 205 LINE",
"780 514 LINE",
"894 514 LINE SMOOTH",
"939 514 OFFCURVE",
"957 536 OFFCURVE",
"957 621 CURVE SMOOTH",
"957 706 OFFCURVE",
"939 729 OFFCURVE",
"894 729 CURVE SMOOTH",
"780 729 LINE",
"780 982 LINE",
"950 982 LINE",
"950 850 LINE SMOOTH",
"950 805 OFFCURVE",
"968 787 OFFCURVE",
"1048 787 CURVE SMOOTH",
"1128 787 OFFCURVE",
"1160 805 OFFCURVE",
"1160 850 CURVE SMOOTH",
"1160 1122 LINE SMOOTH",
"1160 1168 OFFCURVE",
"1141 1187 OFFCURVE",
"1095 1187 CURVE SMOOTH"
);
},
{
closed = 1;
nodes = (
"550 545 LINE",
"400 545 LINE",
"503 982 LINE",
"550 982 LINE"
);
}
);
width = 1228;
}
);
unicode = 00C6;
}
{
color = 6;
glyphname = Oslash;
layers = (
{
background = {
components = (
{
name = O;
}
);
paths = (
{
closed = 1;
nodes = (
"1031 1280 OFFCURVE",
"1002 1277 OFFCURVE",
"976 1239 CURVE SMOOTH",
"137 30 LINE SMOOTH",
"111 -8 OFFCURVE",
"117 -35 OFFCURVE",
"158 -63 CURVE SMOOTH",
"198 -91 OFFCURVE",
"226 -88 OFFCURVE",
"252 -50 CURVE SMOOTH",
"1091 1159 LINE SMOOTH",
"1116 1196 OFFCURVE",
"1111 1224 OFFCURVE",
"1071 1252 CURVE SMOOTH"
);
}
);
};
layerId = UUID0;
paths = (
{
closed = 1;
nodes = (
"1031 1280 OFFCURVE",
"1002 1277 OFFCURVE",
"976 1239 CURVE SMOOTH",
"897.953 1126.53 LINE",
"818.533 1179.85 OFFCURVE",
"722.428 1209 OFFCURVE",
"614 1209 CURVE SMOOTH",
"299 1209 OFFCURVE",
"88 963 OFFCURVE",
"88 593 CURVE SMOOTH",
"88 413.502 OFFCURVE",
"137.66 263.423 OFFCURVE",
"224.761 156.464 CURVE",
"137 30 LINE SMOOTH",
"111 -8 OFFCURVE",
"117 -35 OFFCURVE",
"158 -63 CURVE SMOOTH",
"198 -91 OFFCURVE",
"226 -88 OFFCURVE",
"252 -50 CURVE SMOOTH",
"328.971 60.915 LINE",
"408.598 7.292 OFFCURVE",
"505.082 -22 OFFCURVE",
"614 -22 CURVE SMOOTH",
"929 -22 OFFCURVE",
"1140 223 OFFCURVE",
"1140 593 CURVE SMOOTH",
"1140 773.147 OFFCURVE",
"1089.98 923.898 OFFCURVE",
"1002.29 1031.17 CURVE",
"1091 1159 LINE SMOOTH",
"1116 1196 OFFCURVE",
"1111 1224 OFFCURVE",
"1071 1252 CURVE SMOOTH"
);
},
{
closed = 1;
nodes = (
"689.415 1061 OFFCURVE",
"756.059 1040.23 OFFCURVE",
"811.189 1001.51 CURVE",
"318.74 291.887 LINE",
"272 369.34 OFFCURVE",
"246 471.465 OFFCURVE",
"246 593 CURVE",
"246 881 OFFCURVE",
"392 1061 OFFCURVE",
"614 1061 CURVE SMOOTH"
);
},
{
closed = 1;
nodes = (
"955.687 818.067 OFFCURVE",
"982 715.266 OFFCURVE",
"982 593 CURVE SMOOTH",
"982 305 OFFCURVE",
"836 126 OFFCURVE",
"614 126 CURVE SMOOTH",
"538.103 126 OFFCURVE",
"471.088 146.922 OFFCURVE",
"415.754 185.969 CURVE",
"908.415 895.895 LINE"
);
}
);
width = 1228;
},
{
background = {
components = (
{
name = O;
}
);
paths = (
{
closed = 1;
nodes = (
"1011 1291 OFFCURVE",
"987 1287 OFFCURVE",
"961 1250 CURVE SMOOTH",
"115 44 LINE SMOOTH",
"89 7 OFFCURVE",
"94 -18 OFFCURVE",
"156 -61 CURVE SMOOTH",
"217 -104 OFFCURVE",
"242 -100 OFFCURVE",
"268 -63 CURVE SMOOTH",
"1113 1143 LINE SMOOTH",
"1139 1180 OFFCURVE",
"1134 1205 OFFCURVE",
"1073 1248 CURVE SMOOTH"
);
}
);
};
layerId = "8538028E-5D6C-4318-9676-30148CDA39CA";
paths = (
{
closed = 1;
nodes = (
"1011 1291 OFFCURVE",
"987 1287 OFFCURVE",
"961 1250 CURVE SMOOTH",
"886.467 1143.75 LINE",
"808.383 1186.35 OFFCURVE",
"716.444 1209 OFFCURVE",
"614 1209 CURVE SMOOTH",
"284 1209 OFFCURVE",
"63 974 OFFCURVE",
"63 594 CURVE SMOOTH",
"63 415.111 OFFCURVE",
"111.977 268.135 OFFCURVE",
"198.246 162.67 CURVE",
"115 44 LINE SMOOTH",
"89 7 OFFCURVE",
"94 -18 OFFCURVE",
"156 -61 CURVE SMOOTH",
"217 -104 OFFCURVE",
"242 -100 OFFCURVE",
"268 -63 CURVE SMOOTH",
"342.309 43.055 LINE",
"420.226 0.593 OFFCURVE",
"511.895 -22 OFFCURVE",
"614 -22 CURVE SMOOTH",
"944 -22 OFFCURVE",
"1165 214 OFFCURVE",
"1165 594 CURVE SMOOTH",
"1165 772.71 OFFCURVE",
"1116.12 919.349 OFFCURVE",
"1030.01 1024.56 CURVE",
"1113 1143 LINE SMOOTH",
"1139 1180 OFFCURVE",
"1134 1205 OFFCURVE",
"1073 1248 CURVE SMOOTH"
);
},
{
closed = 1;
nodes = (
"666.633 982 OFFCURVE",
"712.057 970.909 OFFCURVE",
"750.16 949.441 CURVE",
"359.449 392.47 LINE",
"340.535 448.309 OFFCURVE",
"331 515.841 OFFCURVE",
"331 594 CURVE SMOOTH",
"331 842 OFFCURVE",
"427 982 OFFCURVE",
"614 982 CURVE SMOOTH"
);
},
{
closed = 1;
nodes = (
"887.555 738.951 OFFCURVE",
"897 671.788 OFFCURVE",
"897 594 CURVE SMOOTH",
"897 346 OFFCURVE",
"801 205 OFFCURVE",
"614 205 CURVE SMOOTH",
"561.659 205 OFFCURVE",
"516.448 216.046 OFFCURVE",
"478.475 237.394 CURVE",
"868.819 794.501 LINE"
);
}
);
width = 1228;
}
);
unicode = 00D8;
}
{
glyphname = Thorn;
layers = (
{
layerId = UUID0;
paths = (
{
closed = 1;
nodes = (
"173 1187 LINE SMOOTH",
"128 1187 OFFCURVE",
"110 1169 OFFCURVE",
"110 1119 CURVE SMOOTH",
"110 1069 OFFCURVE",
"128 1051 OFFCURVE",
"173 1051 CURVE SMOOTH",
"329 1051 LINE",
"329 136 LINE",
"173 136 LINE SMOOTH",
"128 136 OFFCURVE",
"110 118 OFFCURVE",
"110 68 CURVE SMOOTH",
"110 18 OFFCURVE",
"128 0 OFFCURVE",
"173 0 CURVE SMOOTH",
"695 0 LINE SMOOTH",
"740 0 OFFCURVE",
"758 18 OFFCURVE",
"758 68 CURVE SMOOTH",
"758 118 OFFCURVE",
"740 136 OFFCURVE",
"695 136 CURVE SMOOTH",
"479 136 LINE",
"479 273 LINE",
"710 273 LINE SMOOTH",
"950 273 OFFCURVE",
"1072 413 OFFCURVE",
"1072 598 CURVE SMOOTH",
"1072 784 OFFCURVE",
"950 927 OFFCURVE",
"710 927 CURVE SMOOTH",
"479 927 LINE",
"479 1051 LINE",
"695 1051 LINE SMOOTH",
"740 1051 OFFCURVE",
"758 1069 OFFCURVE",
"758 1119 CURVE SMOOTH",
"758 1169 OFFCURVE",
"740 1187 OFFCURVE",
"695 1187 CURVE SMOOTH"
);
},
{
closed = 1;
nodes = (
"846 791 OFFCURVE",
"914 709 OFFCURVE",
"914 598 CURVE SMOOTH",
"914 479 OFFCURVE",
"836 409 OFFCURVE",
"689 409 CURVE SMOOTH",
"479 409 LINE",
"479 791 LINE",
"689 791 LINE SMOOTH"
);
}
);
width = 1228;
},
{
layerId = "8538028E-5D6C-4318-9676-30148CDA39CA";
paths = (
{
closed = 1;
nodes = (
"183 1187 LINE SMOOTH",
"138 1187 OFFCURVE",
"120 1169 OFFCURVE",
"120 1084 CURVE SMOOTH",
"120 999 OFFCURVE",
"138 982 OFFCURVE",
"183 982 CURVE SMOOTH",
"330 982 LINE",
"330 205 LINE",
"183 205 LINE SMOOTH",
"138 205 OFFCURVE",
"120 187 OFFCURVE",
"120 102 CURVE SMOOTH",
"120 17 OFFCURVE",
"138 0 OFFCURVE",
"183 0 CURVE SMOOTH",
"767 0 LINE SMOOTH",
"812 0 OFFCURVE",
"830 17 OFFCURVE",
"830 102 CURVE SMOOTH",
"830 187 OFFCURVE",
"812 205 OFFCURVE",
"767 205 CURVE SMOOTH",
"580 205 LINE",
"580 301 LINE",
"720 301 LINE SMOOTH",
"970 301 OFFCURVE",
"1087 413 OFFCURVE",
"1087 594 CURVE SMOOTH",
"1087 775 OFFCURVE",
"970 886 OFFCURVE",
"720 886 CURVE SMOOTH",
"580 886 LINE",
"580 982 LINE",
"767 982 LINE SMOOTH",
"812 982 OFFCURVE",
"830 999 OFFCURVE",
"830 1084 CURVE SMOOTH",
"830 1169 OFFCURVE",
"812 1187 OFFCURVE",
"767 1187 CURVE SMOOTH"
);
},
{
closed = 1;
nodes = (
"786 691 OFFCURVE",
"829 663 OFFCURVE",
"829 594 CURVE SMOOTH",
"829 525 OFFCURVE",
"786 496 OFFCURVE",
"689 496 CURVE SMOOTH",
"580 496 LINE",
"580 691 LINE",
"689 691 LINE SMOOTH"
);
}
);
width = 1228;
}
);
unicode = 00DE;
}
{
glyphname = acute;
layers = (
{
layerId = UUID0;
paths = (
{
closed = 1;
nodes = (
"433 1146 LINE SMOOTH",
"408 1127 OFFCURVE",
"413 1095 OFFCURVE",
"441 1063 CURVE SMOOTH",
"467 1034 OFFCURVE",
"493 1033 OFFCURVE",
"519 1048 CURVE SMOOTH",
"893 1267 LINE SMOOTH",
"921 1283 OFFCURVE",
"927 1321 OFFCURVE",
"885 1374 CURVE SMOOTH",
"848 1420 OFFCURVE",
"811 1424 OFFCURVE",
"781 1402 CURVE SMOOTH"
);
}
);
width = 1228;
},
{
layerId = "8538028E-5D6C-4318-9676-30148CDA39CA";
paths = (
{
closed = 1;
nodes = (
"429 1178 LINE SMOOTH",
"402 1158 OFFCURVE",
"400 1121 OFFCURVE",
"430 1072 CURVE SMOOTH",
"460 1024 OFFCURVE",
"493 1013 OFFCURVE",
"521 1027 CURVE SMOOTH",
"928 1232 LINE SMOOTH",
"958 1247 OFFCURVE",
"967 1295 OFFCURVE",
"912 1369 CURVE SMOOTH",
"858 1441 OFFCURVE",
"811 1458 OFFCURVE",
"776 1433 CURVE SMOOTH"
);
}
);
width = 1228;
}
);
unicode = 00B4;
}
{
glyphname = ae;
layers = (
{
layerId = UUID0;
paths = (
{
closed = 1;
nodes = (
"759 946 OFFCURVE",
"682 907 OFFCURVE",
"629 830 CURVE",
"586 903 OFFCURVE",
"515 946 OFFCURVE",
"408 946 CURVE SMOOTH",
"314 946 OFFCURVE",
"224 913 OFFCURVE",
"139 840 CURVE SMOOTH",
"109 814 OFFCURVE",
"108 775 OFFCURVE",
"137 742 CURVE SMOOTH",
"166 710 OFFCURVE",
"202 710 OFFCURVE",
"231 732 CURVE SMOOTH",
"292 779 OFFCURVE",
"347 801 OFFCURVE",
"408 801 CURVE SMOOTH",
"514 801 OFFCURVE",
"539 726 OFFCURVE",
"539 602 CURVE SMOOTH",
"539 580 LINE",
"261 580 OFFCURVE",
"75 468 OFFCURVE",
"75 240 CURVE SMOOTH",
"75 79 OFFCURVE",
"178 -22 OFFCURVE",
"335 -22 CURVE SMOOTH",
"443 -22 OFFCURVE",
"545 33 OFFCURVE",
"609 122 CURVE",
"664 24 OFFCURVE",
"748 -22 OFFCURVE",
"853 -22 CURVE SMOOTH",
"948 -22 OFFCURVE",
"1038 14 OFFCURVE",
"1112 84 CURVE SMOOTH",
"1144 114 OFFCURVE",
"1149 149 OFFCURVE",
"1118 187 CURVE SMOOTH",
"1087 225 OFFCURVE",
"1048 226 OFFCURVE",
"1023 201 CURVE SMOOTH",
"967 147 OFFCURVE",
"917 123 OFFCURVE",
"853 123 CURVE SMOOTH",
"764 123 OFFCURVE",
"693 199 OFFCURVE",
"689 440 CURVE",
"1088 440 LINE SMOOTH",
"1133 440 OFFCURVE",
"1151 457 OFFCURVE",
"1151 502 CURVE",
"1144 769 OFFCURVE",
"1065 946 OFFCURVE",
"853 946 CURVE SMOOTH"
);
},
{
closed = 1;
nodes = (
"539 340 LINE SMOOTH",
"539 211 OFFCURVE",
"452 119 OFFCURVE",
"339 119 CURVE SMOOTH",
"272 119 OFFCURVE",
"228 163 OFFCURVE",
"228 240 CURVE SMOOTH",
"228 371 OFFCURVE",
"322 440 OFFCURVE",
"539 440 CURVE"
);
},
{
closed = 1;
nodes = (
"946 801 OFFCURVE",
"985 717 OFFCURVE",
"994 580 CURVE",
"694 580 LINE",
"710 739 OFFCURVE",
"763 801 OFFCURVE",
"855 801 CURVE SMOOTH"
);
}
);
width = 1228;
},
{
layerId = "8538028E-5D6C-4318-9676-30148CDA39CA";
paths = (
{
closed = 1;
nodes = (
"761 946 OFFCURVE",
"687 912 OFFCURVE",
"634 852 CURVE",
"583 911 OFFCURVE",
"506 946 OFFCURVE",
"393 946 CURVE SMOOTH",
"288 946 OFFCURVE",
"183 919 OFFCURVE",
"96 868 CURVE SMOOTH",
"53 843 OFFCURVE",
"50 799 OFFCURVE",
"78 738 CURVE SMOOTH",
"111 666 OFFCURVE",
"148 646 OFFCURVE",
"189 667 CURVE SMOOTH",
"246 696 OFFCURVE",
"303 719 OFFCURVE",
"365 719 CURVE SMOOTH",
"463 719 OFFCURVE",
"509 672 OFFCURVE",
"509 588 CURVE SMOOTH",
"509 582 LINE",
"279 607 OFFCURVE",
"32 544 OFFCURVE",
"32 275 CURVE SMOOTH",
"32 89 OFFCURVE",
"154 -22 OFFCURVE",
"335 -22 CURVE SMOOTH",
"448 -22 OFFCURVE",
"539 18 OFFCURVE",
"603 102 CURVE",
"655 24 OFFCURVE",
"733 -22 OFFCURVE",
"843 -22 CURVE SMOOTH",
"950 -22 OFFCURVE",
"1055 10 OFFCURVE",
"1145 49 CURVE SMOOTH",
"1193 70 OFFCURVE",
"1201 108 OFFCURVE",
"1176 179 CURVE SMOOTH",
"1155 241 OFFCURVE",
"1127 277 OFFCURVE",
"1076 255 CURVE SMOOTH",
"994 220 OFFCURVE",
"933 205 OFFCURVE",
"858 205 CURVE SMOOTH",
"782 205 OFFCURVE",
"738 262 OFFCURVE",
"724 370 CURVE",
"1130 370 LINE SMOOTH",
"1175 370 OFFCURVE",
"1193 387 OFFCURVE",
"1193 432 CURVE SMOOTH",
"1193 729 OFFCURVE",
"1129 946 OFFCURVE",
"858 946 CURVE SMOOTH"
);
},
{
closed = 1;
nodes = (
"509 358 LINE SMOOTH",
"509 261 OFFCURVE",
"453 189 OFFCURVE",
"358 189 CURVE SMOOTH",
"292 189 OFFCURVE",
"260 226 OFFCURVE",
"260 285 CURVE SMOOTH",
"260 390 OFFCURVE",
"366 398 OFFCURVE",
"509 390 CURVE"
);
},
{
closed = 1;
nodes = (
"926 719 OFFCURVE",
"962 661 OFFCURVE",
"968 565 CURVE",
"724 565 LINE",
"738 669 OFFCURVE",
"777 719 OFFCURVE",
"858 719 CURVE SMOOTH"
);
}
);
width = 1228;
}
);
unicode = 00E6;
}
{
glyphname = copyright;
layers = (
{
layerId = UUID0;
paths = (
{
closed = 1;
nodes = (
"274 1209 OFFCURVE",
"36 937 OFFCURVE",
"36 594 CURVE SMOOTH",
"36 251 OFFCURVE",
"274 -22 OFFCURVE",
"614 -22 CURVE SMOOTH",
"954 -22 OFFCURVE",
"1192 251 OFFCURVE",
"1192 594 CURVE SMOOTH",
"1192 937 OFFCURVE",
"954 1209 OFFCURVE",
"614 1209 CURVE SMOOTH"
);
},
{
closed = 1;
nodes = (
"447 937 OFFCURVE",
"315 809 OFFCURVE",
"315 593 CURVE SMOOTH",
"315 377 OFFCURVE",
"447 249 OFFCURVE",
"629 249 CURVE SMOOTH",
"688 249 OFFCURVE",
"753 263 OFFCURVE",
"809 289 CURVE SMOOTH",
"848 307 OFFCURVE",
"859 333 OFFCURVE",
"843 375 CURVE SMOOTH",
"827 417 OFFCURVE",
"802 422 OFFCURVE",
"769 407 CURVE SMOOTH",
"721 385 OFFCURVE",
"680 375 OFFCURVE",
"629 375 CURVE SMOOTH",
"528 375 OFFCURVE",
"448 448 OFFCURVE",
"448 593 CURVE SMOOTH",
"448 738 OFFCURVE",
"528 811 OFFCURVE",
"629 811 CURVE SMOOTH",
"680 811 OFFCURVE",
"721 801 OFFCURVE",
"769 779 CURVE SMOOTH",
"802 764 OFFCURVE",
"827 769 OFFCURVE",
"843 811 CURVE SMOOTH",
"859 853 OFFCURVE",
"848 879 OFFCURVE",
"809 897 CURVE SMOOTH",
"753 923 OFFCURVE",
"688 937 OFFCURVE",
"629 937 CURVE SMOOTH"
);
},
{
closed = 1;
nodes = (
"885 1089 OFFCURVE",
"1070 880 OFFCURVE",
"1070 594 CURVE SMOOTH",
"1070 308 OFFCURVE",
"885 98 OFFCURVE",
"614 98 CURVE SMOOTH",
"343 98 OFFCURVE",
"158 308 OFFCURVE",
"158 594 CURVE SMOOTH",
"158 880 OFFCURVE",
"343 1089 OFFCURVE",
"614 1089 CURVE SMOOTH"
);
}
);
width = 1228;
},
{
layerId = "8538028E-5D6C-4318-9676-30148CDA39CA";
paths = (
{
closed = 1;
nodes = (
"273 1209 OFFCURVE",
"28 944 OFFCURVE",
"28 594 CURVE SMOOTH",
"28 244 OFFCURVE",
"273 -22 OFFCURVE",
"613 -22 CURVE SMOOTH",
"953 -22 OFFCURVE",
"1198 244 OFFCURVE",
"1198 594 CURVE SMOOTH",
"1198 944 OFFCURVE",
"953 1209 OFFCURVE",
"613 1209 CURVE SMOOTH"
);
},
{
closed = 1;
nodes = (
"447 937 OFFCURVE",
"307 809 OFFCURVE",
"307 593 CURVE SMOOTH",
"307 377 OFFCURVE",
"447 249 OFFCURVE",
"639 249 CURVE SMOOTH",
"701 249 OFFCURVE",
"768 264 OFFCURVE",
"825 292 CURVE SMOOTH",
"864 311 OFFCURVE",
"868 340 OFFCURVE",
"848 395 CURVE SMOOTH",
"829 446 OFFCURVE",
"811 462 OFFCURVE",
"777 450 CURVE SMOOTH",
"731 434 OFFCURVE",
"686 422 OFFCURVE",
"639 422 CURVE SMOOTH",
"545 422 OFFCURVE",
"485 483 OFFCURVE",
"485 593 CURVE SMOOTH",
"485 703 OFFCURVE",
"545 764 OFFCURVE",
"639 764 CURVE SMOOTH",
"686 764 OFFCURVE",
"731 752 OFFCURVE",
"777 736 CURVE SMOOTH",
"811 724 OFFCURVE",
"829 740 OFFCURVE",
"848 791 CURVE SMOOTH",
"868 846 OFFCURVE",
"864 875 OFFCURVE",
"825 894 CURVE SMOOTH",
"768 922 OFFCURVE",
"701 937 OFFCURVE",
"639 937 CURVE SMOOTH"
);
},
{
closed = 1;
nodes = (
"876 1056 OFFCURVE",
"1045 857 OFFCURVE",
"1045 594 CURVE SMOOTH",
"1045 331 OFFCURVE",
"876 131 OFFCURVE",
"613 131 CURVE SMOOTH",
"350 131 OFFCURVE",
"181 331 OFFCURVE",
"181 594 CURVE SMOOTH",
"181 857 OFFCURVE",
"350 1056 OFFCURVE",
"613 1056 CURVE SMOOTH"
);
}
);
width = 1228;
}
);
unicode = 00A9;
}
{
glyphname = currency;
layers = (
{
background = {
paths = (
{
closed = 1;
nodes = (
"123 1019 OFFCURVE",
"122 992 OFFCURVE",
"154 960 CURVE SMOOTH",
"972 142 LINE SMOOTH",
"1004 110 OFFCURVE",
"1031 111 OFFCURVE",
"1068 148 CURVE SMOOTH",
"1105 185 OFFCURVE",
"1106 212 OFFCURVE",
"1074 244 CURVE SMOOTH",
"256 1062 LINE SMOOTH",
"224 1094 OFFCURVE",
"197 1093 OFFCURVE",
"160 1056 CURVE SMOOTH"
);
},
{
closed = 1;
nodes = (
"1031 1093 OFFCURVE",
"1004 1094 OFFCURVE",
"972 1062 CURVE SMOOTH",
"154 244 LINE SMOOTH",
"122 212 OFFCURVE",
"123 185 OFFCURVE",
"160 148 CURVE SMOOTH",
"197 111 OFFCURVE",
"224 110 OFFCURVE",
"256 142 CURVE SMOOTH",
"1074 960 LINE SMOOTH",
"1106 992 OFFCURVE",
"1105 1019 OFFCURVE",
"1068 1056 CURVE SMOOTH"
);
},
{
closed = 1;
nodes = (
"809 927 OFFCURVE",
"939 791 OFFCURVE",
"939 602 CURVE SMOOTH",
"939 413 OFFCURVE",
"809 277 OFFCURVE",
"614 277 CURVE SMOOTH",
"419 277 OFFCURVE",
"289 413 OFFCURVE",
"289 602 CURVE SMOOTH",
"289 791 OFFCURVE",
"419 927 OFFCURVE",
"614 927 CURVE SMOOTH"
);
}
);
};
layerId = UUID0;
paths = (
{
closed = 1;
nodes = (
"380 1006 OFFCURVE",
"204 836 OFFCURVE",
"204 602 CURVE SMOOTH",
"204 368 OFFCURVE",
"380 198 OFFCURVE",
"614 198 CURVE SMOOTH",
"848 198 OFFCURVE",
"1024 368 OFFCURVE",
"1024 602 CURVE SMOOTH",
"1024 836 OFFCURVE",
"848 1006 OFFCURVE",
"614 1006 CURVE SMOOTH"
);
},
{
closed = 1;
nodes = (
"771 864 OFFCURVE",
"876 754 OFFCURVE",
"876 602 CURVE SMOOTH",
"876 450 OFFCURVE",
"771 340 OFFCURVE",
"614 340 CURVE SMOOTH",
"457 340 OFFCURVE",
"352 450 OFFCURVE",
"352 602 CURVE SMOOTH",
"352 754 OFFCURVE",
"457 864 OFFCURVE",
"614 864 CURVE SMOOTH"
);
},
{
closed = 1;
nodes = (
"103 1039 OFFCURVE",
"102 1012 OFFCURVE",
"134 980 CURVE SMOOTH",
"334.952 779.048 LINE",
"436.861 881.139 LINE",
"236 1082 LINE SMOOTH",
"204 1114 OFFCURVE",
"177 1113 OFFCURVE",
"140 1076 CURVE SMOOTH"
);
},
{
closed = 1;
nodes = (
"177 91 OFFCURVE",
"204 90 OFFCURVE",
"236 122 CURVE SMOOTH",
"436.861 322.861 LINE",
"334.952 424.952 LINE",
"134 224 LINE SMOOTH",
"102 192 OFFCURVE",
"103 165 OFFCURVE",
"140 128 CURVE SMOOTH"
);
},
{
closed = 1;
nodes = (
"1125 165 OFFCURVE",
"1126 192 OFFCURVE",
"1094 224 CURVE SMOOTH",
"893.048 424.952 LINE",
"791.139 322.861 LINE",
"992 122 LINE SMOOTH",
"1024 90 OFFCURVE",
"1051 91 OFFCURVE",
"1088 128 CURVE SMOOTH"
);
},
{
closed = 1;
nodes = (
"1051 1113 OFFCURVE",
"1024 1114 OFFCURVE",
"992 1082 CURVE SMOOTH",
"791.139 881.139 LINE",
"893.048 779.048 LINE",
"1094 980 LINE SMOOTH",
"1126 1012 OFFCURVE",
"1125 1039 OFFCURVE",
"1088 1076 CURVE SMOOTH"
);
}
);
width = 1228;
},
{
background = {
paths = (
{
closed = 1;
nodes = (
"804 919 OFFCURVE",
"931 786 OFFCURVE",
"931 602 CURVE SMOOTH",
"931 418 OFFCURVE",
"804 285 OFFCURVE",
"614 285 CURVE SMOOTH",
"424 285 OFFCURVE",
"297 418 OFFCURVE",
"297 602 CURVE SMOOTH",
"297 786 OFFCURVE",
"424 919 OFFCURVE",
"614 919 CURVE SMOOTH"
);
},
{
closed = 1;
nodes = (
"283 1093 LINE SMOOTH",
"251 1125 OFFCURVE",
"226 1125 OFFCURVE",
"159 1057 CURVE SMOOTH",
"91 990 OFFCURVE",
"92 965 OFFCURVE",
"124 934 CURVE SMOOTH",
"946 112 LINE SMOOTH",
"977 80 OFFCURVE",
"1002 79 OFFCURVE",
"1069 147 CURVE SMOOTH",
"1137 214 OFFCURVE",
"1137 239 OFFCURVE",
"1105 271 CURVE SMOOTH"
);
},
{
closed = 1;
nodes = (
"1002 1125 OFFCURVE",
"977 1125 OFFCURVE",
"945 1093 CURVE SMOOTH",
"123 271 LINE SMOOTH",
"91 239 OFFCURVE",
"91 214 OFFCURVE",
"159 147 CURVE SMOOTH",
"226 79 OFFCURVE",
"251 80 OFFCURVE",
"282 112 CURVE SMOOTH",
"1104 934 LINE SMOOTH",
"1136 965 OFFCURVE",
"1137 990 OFFCURVE",
"1069 1057 CURVE SMOOTH"
);
}
);
};
layerId = "8538028E-5D6C-4318-9676-30148CDA39CA";
paths = (
{
closed = 1;
nodes = (
"380 1006 OFFCURVE",
"204 836 OFFCURVE",
"204 602 CURVE SMOOTH",
"204 368 OFFCURVE",
"380 198 OFFCURVE",
"614 198 CURVE SMOOTH",
"848 198 OFFCURVE",
"1024 368 OFFCURVE",
"1024 602 CURVE SMOOTH",
"1024 836 OFFCURVE",
"848 1006 OFFCURVE",
"614 1006 CURVE SMOOTH"
);
},
{
closed = 1;
nodes = (
"726 790 OFFCURVE",
"802 711 OFFCURVE",
"802 602 CURVE SMOOTH",
"802 493 OFFCURVE",
"726 414 OFFCURVE",
"614 414 CURVE SMOOTH",
"502 414 OFFCURVE",
"426 493 OFFCURVE",
"426 602 CURVE SMOOTH",
"426 711 OFFCURVE",
"502 790 OFFCURVE",
"614 790 CURVE SMOOTH"
);
},
{
closed = 1;
nodes = (
"91 990 OFFCURVE",
"92 965 OFFCURVE",
"124 934 CURVE SMOOTH",
"322.397 735.603 LINE",
"481.706 894.294 LINE",
"283 1093 LINE SMOOTH",
"251 1125 OFFCURVE",
"226 1125 OFFCURVE",
"159 1057 CURVE SMOOTH"
);
},
{
closed = 1;
nodes = (
"226 79 OFFCURVE",
"251 80 OFFCURVE",
"282 112 CURVE SMOOTH",
"480.288 310.288 LINE",
"321.814 469.814 LINE",
"123 271 LINE SMOOTH",
"91 239 OFFCURVE",
"91 214 OFFCURVE",
"159 147 CURVE SMOOTH"
);
},
{
closed = 1;
nodes = (
"1137 214 OFFCURVE",
"1137 239 OFFCURVE",
"1105 271 CURVE SMOOTH",
"906.186 469.814 LINE",
"747.712 310.288 LINE",
"946 112 LINE SMOOTH",
"977 80 OFFCURVE",
"1002 79 OFFCURVE",
"1069 147 CURVE SMOOTH"
);
},
{
closed = 1;
nodes = (
"1002 1125 OFFCURVE",
"977 1125 OFFCURVE",
"945 1093 CURVE SMOOTH",
"746.294 894.294 LINE",
"905.603 735.603 LINE",
"1104 934 LINE SMOOTH",
"1136 965 OFFCURVE",
"1137 990 OFFCURVE",
"1069 1057 CURVE SMOOTH"
);
}
);
width = 1228;
}
);
unicode = 00A4;
}
{
glyphname = degree;
layers = (
{
layerId = UUID0;
paths = (
{
closed = 1;
nodes = (
"371 1209 OFFCURVE",
"246 1084 OFFCURVE",
"246 929 CURVE SMOOTH",
"246 774 OFFCURVE",
"371 649 OFFCURVE",
"526 649 CURVE SMOOTH",
"681 649 OFFCURVE",
"806 774 OFFCURVE",
"806 929 CURVE SMOOTH",
"806 1084 OFFCURVE",
"681 1209 OFFCURVE",
"526 1209 CURVE SMOOTH"
);
},
{
closed = 1;
nodes = (
"606 1074 OFFCURVE",
"671 1009 OFFCURVE",
"671 929 CURVE SMOOTH",
"671 849 OFFCURVE",
"606 784 OFFCURVE",
"526 784 CURVE SMOOTH",
"446 784 OFFCURVE",
"381 849 OFFCURVE",
"381 929 CURVE SMOOTH",
"381 1009 OFFCURVE",
"446 1074 OFFCURVE",
"526 1074 CURVE SMOOTH"
);
}
);
width = 1228;
},
{
layerId = "8538028E-5D6C-4318-9676-30148CDA39CA";
paths = (
{
closed = 1;
nodes = (
"365 1209 OFFCURVE",
"220 1064 OFFCURVE",
"220 887 CURVE SMOOTH",
"220 710 OFFCURVE",
"365 565 OFFCURVE",
"542 565 CURVE SMOOTH",
"719 565 OFFCURVE",
"864 710 OFFCURVE",
"864 887 CURVE SMOOTH",
"864 1064 OFFCURVE",
"719 1209 OFFCURVE",
"542 1209 CURVE SMOOTH"
);
},
{
closed = 1;
nodes = (
"603 998 OFFCURVE",
"653 948 OFFCURVE",
"653 887 CURVE SMOOTH",
"653 826 OFFCURVE",
"603 776 OFFCURVE",
"542 776 CURVE SMOOTH",
"481 776 OFFCURVE",
"431 826 OFFCURVE",
"431 887 CURVE SMOOTH",
"431 948 OFFCURVE",
"481 998 OFFCURVE",
"542 998 CURVE SMOOTH"
);
}
);
width = 1228;
}
);
unicode = 00B0;
}
{
glyphname = dieresis;
layers = (
{
layerId = UUID0;
paths = (
{
closed = 1;
nodes = (
"748 1363 OFFCURVE",
"729 1344 OFFCURVE",
"729 1298 CURVE SMOOTH",
"729 1168 LINE SMOOTH",
"729 1122 OFFCURVE",
"748 1103 OFFCURVE",
"824 1103 CURVE SMOOTH",
"900 1103 OFFCURVE",
"919 1122 OFFCURVE",
"919 1168 CURVE SMOOTH",
"919 1298 LINE SMOOTH",
"919 1344 OFFCURVE",
"900 1363 OFFCURVE",
"824 1363 CURVE SMOOTH"
);
},
{
closed = 1;
nodes = (
"328 1363 OFFCURVE",
"309 1344 OFFCURVE",
"309 1298 CURVE SMOOTH",
"309 1168 LINE SMOOTH",
"309 1122 OFFCURVE",
"328 1103 OFFCURVE",
"404 1103 CURVE SMOOTH",
"480 1103 OFFCURVE",
"499 1122 OFFCURVE",
"499 1168 CURVE SMOOTH",
"499 1298 LINE SMOOTH",
"499 1344 OFFCURVE",
"480 1363 OFFCURVE",
"404 1363 CURVE SMOOTH"
);
}
);
width = 1228;
},
{
layerId = "8538028E-5D6C-4318-9676-30148CDA39CA";
paths = (
{
closed = 1;
nodes = (
"736 1363 OFFCURVE",
"709 1345 OFFCURVE",
"709 1300 CURVE SMOOTH",
"709 1136 LINE SMOOTH",
"709 1091 OFFCURVE",
"741 1073 OFFCURVE",
"836 1073 CURVE SMOOTH",
"931 1073 OFFCURVE",
"959 1091 OFFCURVE",
"959 1136 CURVE SMOOTH",
"959 1300 LINE SMOOTH",
"959 1345 OFFCURVE",
"926 1363 OFFCURVE",
"831 1363 CURVE SMOOTH"
);
},
{
closed = 1;
nodes = (
"296 1363 OFFCURVE",
"269 1345 OFFCURVE",
"269 1300 CURVE SMOOTH",
"269 1136 LINE SMOOTH",
"269 1091 OFFCURVE",
"301 1073 OFFCURVE",
"396 1073 CURVE SMOOTH",
"491 1073 OFFCURVE",
"519 1091 OFFCURVE",
"519 1136 CURVE SMOOTH",
"519 1300 LINE SMOOTH",
"519 1345 OFFCURVE",
"486 1363 OFFCURVE",
"391 1363 CURVE SMOOTH"
);
}
);
width = 1228;
}
);
unicode = 00A8;
}
{
glyphname = germandbls;
layers = (
{
layerId = UUID0;
paths = (
{
closed = 1;
nodes = (
"383 1317 OFFCURVE",
"245 1162 OFFCURVE",
"245 943 CURVE SMOOTH",
"245 136 LINE",
"103 136 LINE SMOOTH",
"58 136 OFFCURVE",
"40 118 OFFCURVE",
"40 68 CURVE SMOOTH",
"40 18 OFFCURVE",
"58 0 OFFCURVE",
"103 0 CURVE SMOOTH",
"332 0 LINE SMOOTH",
"377 0 OFFCURVE",
"395 18 OFFCURVE",
"395 68 CURVE SMOOTH",
"395 932 LINE SMOOTH",
"395 1078 OFFCURVE",
"474 1172 OFFCURVE",
"612 1172 CURVE SMOOTH",
"759 1172 OFFCURVE",
"838 1094 OFFCURVE",
"838 971 CURVE SMOOTH",
"838 854 OFFCURVE",
"770 772 OFFCURVE",
"637 759 CURVE SMOOTH",
"592 755 OFFCURVE",
"574 736 OFFCURVE",
"574 688 CURVE SMOOTH",
"574 640 OFFCURVE",
"592 619 OFFCURVE",
"637 619 CURVE SMOOTH",
"792 619 OFFCURVE",
"893 527 OFFCURVE",
"893 362 CURVE SMOOTH",
"893 209 OFFCURVE",
"791 126 OFFCURVE",
"625 126 CURVE SMOOTH",
"579 126 OFFCURVE",
"561 104 OFFCURVE",
"561 55 CURVE SMOOTH",
"561 -2 OFFCURVE",
"576 -22 OFFCURVE",
"644 -22 CURVE SMOOTH",
"886 -22 OFFCURVE",
"1051 120 OFFCURVE",
"1051 360 CURVE SMOOTH",
"1051 525 OFFCURVE",
"962 648 OFFCURVE",
"820 702 CURVE",
"925 757 OFFCURVE",
"994 845 OFFCURVE",
"994 971 CURVE SMOOTH",
"994 1164 OFFCURVE",
"866 1317 OFFCURVE",
"616 1317 CURVE SMOOTH"
);
}
);
width = 1228;
},
{
layerId = "8538028E-5D6C-4318-9676-30148CDA39CA";
paths = (
{
closed = 1;
nodes = (
"358 1317 OFFCURVE",
"208 1144 OFFCURVE",
"208 877 CURVE SMOOTH",
"208 205 LINE",
"85 205 LINE SMOOTH",
"40 205 OFFCURVE",
"22 187 OFFCURVE",
"22 102 CURVE SMOOTH",
"22 17 OFFCURVE",
"40 0 OFFCURVE",
"85 0 CURVE SMOOTH",
"395 0 LINE SMOOTH",
"440 0 OFFCURVE",
"458 18 OFFCURVE",
"458 63 CURVE SMOOTH",
"458 874 LINE SMOOTH",
"458 1015 OFFCURVE",
"517 1090 OFFCURVE",
"625 1090 CURVE SMOOTH",
"736 1090 OFFCURVE",
"783 1023 OFFCURVE",
"783 936 CURVE SMOOTH",
"783 837 OFFCURVE",
"735 783 OFFCURVE",
"642 774 CURVE SMOOTH",
"597 770 OFFCURVE",
"579 746 OFFCURVE",
"579 661 CURVE SMOOTH",
"579 576 OFFCURVE",
"597 549 OFFCURVE",
"642 549 CURVE SMOOTH",
"755 549 OFFCURVE",
"822 491 OFFCURVE",
"822 387 CURVE SMOOTH",
"822 267 OFFCURVE",
"758 205 OFFCURVE",
"629 205 CURVE SMOOTH",
"584 205 OFFCURVE",
"572 176 OFFCURVE",
"572 91 CURVE SMOOTH",
"572 6 OFFCURVE",
"598 -22 OFFCURVE",
"649 -22 CURVE SMOOTH",
"913 -22 OFFCURVE",
"1090 107 OFFCURVE",
"1090 367 CURVE SMOOTH",
"1090 520 OFFCURVE",
"1011 627 OFFCURVE",
"875 678 CURVE",
"980 735 OFFCURVE",
"1031 820 OFFCURVE",
"1031 946 CURVE SMOOTH",
"1031 1163 OFFCURVE",
"887 1317 OFFCURVE",
"623 1317 CURVE SMOOTH"
);
}
);
width = 1228;
}
);
unicode = 00DF;
}
{
glyphname = macron;
layers = (
{
layerId = UUID0;
paths = (
{
closed = 1;
nodes = (
"353 1250 LINE SMOOTH",
"308 1250 OFFCURVE",
"290 1230 OFFCURVE",
"290 1178 CURVE SMOOTH",
"290 1126 OFFCURVE",
"308 1106 OFFCURVE",
"353 1106 CURVE SMOOTH",
"875 1106 LINE SMOOTH",
"920 1106 OFFCURVE",
"938 1126 OFFCURVE",
"938 1178 CURVE SMOOTH",
"938 1230 OFFCURVE",
"920 1250 OFFCURVE",
"875 1250 CURVE SMOOTH"
);
}
);
width = 1228;
},
{
layerId = "8538028E-5D6C-4318-9676-30148CDA39CA";
paths = (
{
closed = 1;
nodes = (
"343 1275 LINE SMOOTH",
"298 1275 OFFCURVE",
"280 1257 OFFCURVE",
"280 1172 CURVE SMOOTH",
"280 1087 OFFCURVE",
"298 1070 OFFCURVE",
"343 1070 CURVE SMOOTH",
"885 1070 LINE SMOOTH",
"930 1070 OFFCURVE",
"948 1087 OFFCURVE",
"948 1172 CURVE SMOOTH",
"948 1257 OFFCURVE",
"930 1275 OFFCURVE",
"885 1275 CURVE SMOOTH"
);
}
);
width = 1228;
}
);
unicode = 00AF;
}
{
glyphname = multiply;
layers = (
{
layerId = UUID0;
paths = (
{
closed = 1;
nodes = (
"614 678 LINE",
"353 939 LINE SMOOTH",
"321 971 OFFCURVE",
"295 971 OFFCURVE",
"260 936 CURVE SMOOTH",
"225 901 OFFCURVE",
"225 875 OFFCURVE",
"257 843 CURVE SMOOTH",
"518 582 LINE",
"257 321 LINE SMOOTH",
"225 289 OFFCURVE",
"225 263 OFFCURVE",
"260 228 CURVE SMOOTH",
"295 193 OFFCURVE",
"321 193 OFFCURVE",
"353 225 CURVE SMOOTH",
"614 486 LINE",
"875 225 LINE SMOOTH",
"907 193 OFFCURVE",
"933 193 OFFCURVE",
"968 228 CURVE SMOOTH",
"1003 263 OFFCURVE",
"1003 289 OFFCURVE",
"971 321 CURVE SMOOTH",
"710 582 LINE",
"971 843 LINE SMOOTH",
"1003 875 OFFCURVE",
"1003 901 OFFCURVE",
"968 936 CURVE SMOOTH",
"933 971 OFFCURVE",
"907 971 OFFCURVE",
"875 939 CURVE SMOOTH"
);
}
);
width = 1228;
},
{
layerId = "8538028E-5D6C-4318-9676-30148CDA39CA";
paths = (
{
closed = 1;
nodes = (
"614 741 LINE",
"394 961 LINE SMOOTH",
"363 993 OFFCURVE",
"337 993 OFFCURVE",
"270 926 CURVE SMOOTH",
"203 859 OFFCURVE",
"204 834 OFFCURVE",
"235 802 CURVE SMOOTH",
"455 582 LINE",
"235 362 LINE SMOOTH",
"203 331 OFFCURVE",
"203 305 OFFCURVE",
"270 238 CURVE SMOOTH",
"337 171 OFFCURVE",
"362 172 OFFCURVE",
"394 203 CURVE SMOOTH",
"614 423 LINE",
"834 203 LINE SMOOTH",
"866 172 OFFCURVE",
"891 171 OFFCURVE",
"958 238 CURVE SMOOTH",
"1025 305 OFFCURVE",
"1025 331 OFFCURVE",
"993 362 CURVE SMOOTH",
"773 582 LINE",
"993 802 LINE SMOOTH",
"1024 834 OFFCURVE",
"1025 859 OFFCURVE",
"958 926 CURVE SMOOTH",
"891 993 OFFCURVE",
"865 993 OFFCURVE",
"834 961 CURVE SMOOTH"
);
}
);
width = 1228;
}
);
unicode = 00D7;
}
{
glyphname = ordmasculine;
layers = (
{
layerId = UUID0;
paths = (
{
closed = 1;
nodes = (
"398 1209 OFFCURVE",
"235 1053 OFFCURVE",
"235 837 CURVE SMOOTH",
"235 620 OFFCURVE",
"398 465 OFFCURVE",
"614 465 CURVE SMOOTH",
"830 465 OFFCURVE",
"993 620 OFFCURVE",
"993 837 CURVE SMOOTH",
"993 1053 OFFCURVE",
"830 1209 OFFCURVE",
"614 1209 CURVE SMOOTH"
);
},
{
closed = 1;
nodes = (
"758 1077 OFFCURVE",
"853 976 OFFCURVE",
"853 837 CURVE SMOOTH",
"853 697 OFFCURVE",
"758 597 OFFCURVE",
"614 597 CURVE SMOOTH",
"471 597 OFFCURVE",
"375 697 OFFCURVE",
"375 837 CURVE SMOOTH",
"375 976 OFFCURVE",
"471 1077 OFFCURVE",
"614 1077 CURVE SMOOTH"
);
}
);
width = 1228;
},
{
layerId = "8538028E-5D6C-4318-9676-30148CDA39CA";
paths = (
{
closed = 1;
nodes = (
"377 1209 OFFCURVE",
"224 1052 OFFCURVE",
"224 837 CURVE SMOOTH",
"224 622 OFFCURVE",
"377 465 OFFCURVE",
"614 465 CURVE SMOOTH",
"852 465 OFFCURVE",
"1004 622 OFFCURVE",
"1004 837 CURVE SMOOTH",
"1004 1052 OFFCURVE",
"852 1209 OFFCURVE",
"614 1209 CURVE SMOOTH"
);
},
{
closed = 1;
nodes = (
"726 1035 OFFCURVE",
"798 957 OFFCURVE",
"798 837 CURVE SMOOTH",
"798 717 OFFCURVE",
"726 640 OFFCURVE",
"614 640 CURVE SMOOTH",
"503 640 OFFCURVE",
"430 717 OFFCURVE",
"430 837 CURVE SMOOTH",
"430 957 OFFCURVE",
"503 1035 OFFCURVE",
"614 1035 CURVE SMOOTH"
);
}
);
width = 1228;
}
);
unicode = 00BA;
}
{
glyphname = paragraph;
layers = (
{
layerId = UUID0;
paths = (
{
closed = 1;
nodes = (
"548 1187 LINE SMOOTH",
"303 1187 OFFCURVE",
"131 1060 OFFCURVE",
"131 844 CURVE SMOOTH",
"131 635 OFFCURVE",
"293 509 OFFCURVE",
"526 502 CURVE",
"526 -345 LINE SMOOTH",
"526 -391 OFFCURVE",
"545 -410 OFFCURVE",
"601 -410 CURVE SMOOTH",
"657 -410 OFFCURVE",
"676 -391 OFFCURVE",
"676 -345 CURVE SMOOTH",
"676 1051 LINE",
"836 1051 LINE",
"836 -345 LINE SMOOTH",
"836 -391 OFFCURVE",
"855 -410 OFFCURVE",
"911 -410 CURVE SMOOTH",
"967 -410 OFFCURVE",
"986 -391 OFFCURVE",
"986 -345 CURVE SMOOTH",
"986 1051 LINE",
"1054 1051 LINE SMOOTH",
"1099 1051 OFFCURVE",
"1117 1069 OFFCURVE",
"1117 1119 CURVE SMOOTH",
"1117 1169 OFFCURVE",
"1099 1187 OFFCURVE",
"1054 1187 CURVE SMOOTH"
);
}
);
width = 1228;
},
{
layerId = "8538028E-5D6C-4318-9676-30148CDA39CA";
paths = (
{
closed = 1;
nodes = (
"519 1187 LINE SMOOTH",
"273 1187 OFFCURVE",
"101 1047 OFFCURVE",
"101 809 CURVE SMOOTH",
"101 603 OFFCURVE",
"232 470 OFFCURVE",
"429 440 CURVE",
"429 -347 LINE SMOOTH",
"429 -392 OFFCURVE",
"452 -410 OFFCURVE",
"527 -410 CURVE SMOOTH",
"602 -410 OFFCURVE",
"639 -392 OFFCURVE",
"639 -347 CURVE SMOOTH",
"639 982 LINE",
"799 982 LINE",
"799 -347 LINE SMOOTH",
"799 -392 OFFCURVE",
"822 -410 OFFCURVE",
"897 -410 CURVE SMOOTH",
"972 -410 OFFCURVE",
"1009 -392 OFFCURVE",
"1009 -347 CURVE SMOOTH",
"1009 982 LINE",
"1075 982 LINE SMOOTH",
"1120 982 OFFCURVE",
"1138 999 OFFCURVE",
"1138 1084 CURVE SMOOTH",
"1138 1169 OFFCURVE",
"1120 1187 OFFCURVE",
"1075 1187 CURVE SMOOTH"
);
}
);
width = 1228;
}
);
unicode = 00B6;
}
{
glyphname = plusminus;
layers = (
{
layerId = UUID0;
paths = (
{
closed = 1;
nodes = (
"564 1126 OFFCURVE",
"546 1108 OFFCURVE",
"546 1063 CURVE SMOOTH",
"546 810 LINE",
"233 810 LINE SMOOTH",
"188 810 OFFCURVE",
"170 792 OFFCURVE",
"170 742 CURVE SMOOTH",
"170 692 OFFCURVE",
"188 674 OFFCURVE",
"233 674 CURVE SMOOTH",
"546 674 LINE",
"546 421 LINE SMOOTH",
"546 376 OFFCURVE",
"564 358 OFFCURVE",
"614 358 CURVE SMOOTH",
"664 358 OFFCURVE",
"682 376 OFFCURVE",
"682 421 CURVE SMOOTH",
"682 674 LINE",
"995 674 LINE SMOOTH",
"1040 674 OFFCURVE",
"1058 692 OFFCURVE",
"1058 742 CURVE SMOOTH",
"1058 792 OFFCURVE",
"1040 810 OFFCURVE",
"995 810 CURVE SMOOTH",
"682 810 LINE",
"682 1063 LINE SMOOTH",
"682 1108 OFFCURVE",
"664 1126 OFFCURVE",
"614 1126 CURVE SMOOTH"
);
},
{
closed = 1;
nodes = (
"233 250 LINE SMOOTH",
"188 250 OFFCURVE",
"170 232 OFFCURVE",
"170 182 CURVE SMOOTH",
"170 132 OFFCURVE",
"188 114 OFFCURVE",
"233 114 CURVE SMOOTH",
"995 114 LINE SMOOTH",
"1040 114 OFFCURVE",
"1058 132 OFFCURVE",
"1058 182 CURVE SMOOTH",
"1058 232 OFFCURVE",
"1040 250 OFFCURVE",
"995 250 CURVE SMOOTH"
);
}
);
width = 1228;
},
{
layerId = "8538028E-5D6C-4318-9676-30148CDA39CA";
paths = (
{
closed = 1;
nodes = (
"519 1126 OFFCURVE",
"501 1108 OFFCURVE",
"501 1063 CURVE SMOOTH",
"501 845 LINE",
"233 845 LINE SMOOTH",
"188 845 OFFCURVE",
"170 827 OFFCURVE",
"170 732 CURVE SMOOTH",
"170 637 OFFCURVE",
"188 620 OFFCURVE",
"233 620 CURVE SMOOTH",
"501 620 LINE",
"501 401 LINE SMOOTH",
"501 356 OFFCURVE",
"519 338 OFFCURVE",
"614 338 CURVE SMOOTH",
"709 338 OFFCURVE",
"726 356 OFFCURVE",
"726 401 CURVE SMOOTH",
"726 620 LINE",
"995 620 LINE SMOOTH",
"1040 620 OFFCURVE",
"1058 637 OFFCURVE",
"1058 732 CURVE SMOOTH",
"1058 827 OFFCURVE",
"1040 845 OFFCURVE",
"995 845 CURVE SMOOTH",
"726 845 LINE",
"726 1063 LINE SMOOTH",
"726 1108 OFFCURVE",
"709 1126 OFFCURVE",
"614 1126 CURVE SMOOTH"
);
},
{
closed = 1;
nodes = (
"233 225 LINE SMOOTH",
"188 225 OFFCURVE",
"170 207 OFFCURVE",
"170 112 CURVE SMOOTH",
"170 17 OFFCURVE",
"188 0 OFFCURVE",
"233 0 CURVE SMOOTH",
"995 0 LINE SMOOTH",
"1040 0 OFFCURVE",
"1058 17 OFFCURVE",
"1058 112 CURVE SMOOTH",
"1058 207 OFFCURVE",
"1040 225 OFFCURVE",
"995 225 CURVE SMOOTH"
);
}
);
width = 1228;
}
);
unicode = 00B1;
}
{
glyphname = registered;
layers = (
{
layerId = UUID0;
paths = (
{
closed = 1;
nodes = (
"331 1334 OFFCURVE",
"132 1107 OFFCURVE",
"132 822 CURVE SMOOTH",
"132 536 OFFCURVE",
"331 308 OFFCURVE",
"614 308 CURVE SMOOTH",
"897 308 OFFCURVE",
"1096 536 OFFCURVE",
"1096 822 CURVE SMOOTH",
"1096 1107 OFFCURVE",
"897 1334 OFFCURVE",
"614 1334 CURVE SMOOTH"
);
},
{
closed = 1;
nodes = (
"840 1234 OFFCURVE",
"994 1060 OFFCURVE",
"994 822 CURVE SMOOTH",
"994 583 OFFCURVE",
"840 408 OFFCURVE",
"614 408 CURVE SMOOTH",
"388 408 OFFCURVE",
"234 583 OFFCURVE",
"234 822 CURVE SMOOTH",
"234 1060 OFFCURVE",
"388 1234 OFFCURVE",
"614 1234 CURVE SMOOTH"
);
},
{
closed = 1;
nodes = (
"477 1091 LINE SMOOTH",
"440 1091 OFFCURVE",
"423 1076 OFFCURVE",
"423 1038 CURVE SMOOTH",
"423 606 LINE SMOOTH",
"423 567 OFFCURVE",
"436 552 OFFCURVE",
"474 552 CURVE SMOOTH",
"512 552 OFFCURVE",
"527 567 OFFCURVE",
"527 606 CURVE SMOOTH",
"527 718 LINE",
"601 718 LINE",
"732 567 LINE SMOOTH",
"752 544 OFFCURVE",
"780 539 OFFCURVE",
"807 563 CURVE SMOOTH",
"835 589 OFFCURVE",
"828 614 OFFCURVE",
"803 642 CURVE SMOOTH",
"714 738 LINE",
"791 764 OFFCURVE",
"835 823 OFFCURVE",
"835 906 CURVE SMOOTH",
"835 1014 OFFCURVE",
"757 1091 OFFCURVE",
"633 1091 CURVE SMOOTH"
);
},
{
closed = 1;
nodes = (
"692 993 OFFCURVE",
"727 960 OFFCURVE",
"727 906 CURVE SMOOTH",
"727 849 OFFCURVE",
"690 816 OFFCURVE",
"615 816 CURVE SMOOTH",
"527 816 LINE",
"527 993 LINE",
"622 993 LINE SMOOTH"
);
}
);
width = 1228;
},
{
layerId = "8538028E-5D6C-4318-9676-30148CDA39CA";
paths = (
{
closed = 1;
nodes = (
"330 1334 OFFCURVE",
"125 1113 OFFCURVE",
"125 822 CURVE SMOOTH",
"125 530 OFFCURVE",
"330 308 OFFCURVE",
"613 308 CURVE SMOOTH",
"896 308 OFFCURVE",
"1101 530 OFFCURVE",
"1101 822 CURVE SMOOTH",
"1101 1113 OFFCURVE",
"896 1334 OFFCURVE",
"613 1334 CURVE SMOOTH"
);
},
{
closed = 1;
nodes = (
"832 1206 OFFCURVE",
"973 1041 OFFCURVE",
"973 822 CURVE SMOOTH",
"973 602 OFFCURVE",
"832 436 OFFCURVE",
"613 436 CURVE SMOOTH",
"394 436 OFFCURVE",
"253 602 OFFCURVE",
"253 822 CURVE SMOOTH",
"253 1041 OFFCURVE",
"394 1206 OFFCURVE",
"613 1206 CURVE SMOOTH"
);
},
{
closed = 1;
nodes = (
"460 1091 LINE SMOOTH",
"422 1091 OFFCURVE",
"407 1076 OFFCURVE",
"407 1038 CURVE SMOOTH",
"407 606 LINE SMOOTH",
"407 567 OFFCURVE",
"419 552 OFFCURVE",
"478 552 CURVE SMOOTH",
"537 552 OFFCURVE",
"549 567 OFFCURVE",
"549 606 CURVE SMOOTH",
"549 696 LINE",
"611 696 LINE",
"710 568 LINE SMOOTH",
"733 538 OFFCURVE",
"756 537 OFFCURVE",
"801 568 CURVE SMOOTH",
"846 599 OFFCURVE",
"846 622 OFFCURVE",
"821 652 CURVE SMOOTH",
"757 725 LINE",
"822 756 OFFCURVE",
"858 814 OFFCURVE",
"858 889 CURVE SMOOTH",
"858 997 OFFCURVE",
"780 1091 OFFCURVE",
"656 1091 CURVE SMOOTH"
);
},
{
closed = 1;
nodes = (
"683 953 OFFCURVE",
"710 927 OFFCURVE",
"710 889 CURVE SMOOTH",
"710 849 OFFCURVE",
"681 825 OFFCURVE",
"631 825 CURVE SMOOTH",
"549 825 LINE",
"549 953 LINE",
"639 953 LINE SMOOTH"
);
}
);
width = 1228;
}
);
unicode = 00AE;
}
{
glyphname = section;
layers = (
{
layerId = UUID0;
paths = (
{
closed = 1;
nodes = (
"579 1187 LINE SMOOTH",
"395 1187 OFFCURVE",
"300 1087 OFFCURVE",
"300 947 CURVE SMOOTH",
"300 909 OFFCURVE",
"306 875 OFFCURVE",
"317 844 CURVE",
"228 779 OFFCURVE",
"179 718 OFFCURVE",
"179 629 CURVE SMOOTH",
"179 513 OFFCURVE",
"242 437 OFFCURVE",
"346 373 CURVE SMOOTH",
"640 191 LINE SMOOTH",
"723 140 OFFCURVE",
"770 85 OFFCURVE",
"770 14 CURVE SMOOTH",
"770 -56 OFFCURVE",
"724 -94 OFFCURVE",
"629 -94 CURVE SMOOTH",
"390 -94 LINE",
"390 55 LINE SMOOTH",
"390 101 OFFCURVE",
"371 120 OFFCURVE",
"315 120 CURVE SMOOTH",
"259 120 OFFCURVE",
"240 101 OFFCURVE",
"240 55 CURVE SMOOTH",
"240 -162 LINE SMOOTH",
"240 -212 OFFCURVE",
"258 -230 OFFCURVE",
"303 -230 CURVE SMOOTH",
"649 -230 LINE SMOOTH",
"833 -230 OFFCURVE",
"928 -130 OFFCURVE",
"928 10 CURVE SMOOTH",
"928 47 OFFCURVE",
"922 81 OFFCURVE",
"911 113 CURVE",
"999 177 OFFCURVE",
"1049 238 OFFCURVE",
"1049 328 CURVE SMOOTH",
"1049 444 OFFCURVE",
"986 520 OFFCURVE",
"882 584 CURVE SMOOTH",
"588 766 LINE SMOOTH",
"505 817 OFFCURVE",
"458 872 OFFCURVE",
"458 943 CURVE SMOOTH",
"458 1013 OFFCURVE",
"504 1051 OFFCURVE",
"599 1051 CURVE SMOOTH",
"838 1051 LINE",
"838 922 LINE SMOOTH",
"838 876 OFFCURVE",
"857 857 OFFCURVE",
"913 857 CURVE SMOOTH",
"969 857 OFFCURVE",
"988 876 OFFCURVE",
"988 922 CURVE SMOOTH",
"988 1119 LINE SMOOTH",
"988 1169 OFFCURVE",
"970 1187 OFFCURVE",
"925 1187 CURVE SMOOTH"
);
},
{
closed = 1;
nodes = (
"423 694 OFFCURVE",
"458 668 OFFCURVE",
"497 644 CURVE SMOOTH",
"791 462 LINE SMOOTH",
"855 422 OFFCURVE",
"891 388 OFFCURVE",
"891 332 CURVE SMOOTH",
"891 293 OFFCURVE",
"871 263 OFFCURVE",
"833 233 CURVE",
"804 262 OFFCURVE",
"770 289 OFFCURVE",
"731 313 CURVE SMOOTH",
"437 495 LINE SMOOTH",
"373 535 OFFCURVE",
"337 569 OFFCURVE",
"337 625 CURVE SMOOTH",
"337 664 OFFCURVE",
"357 694 OFFCURVE",
"394 723 CURVE"
);
}
);
width = 1228;
},
{
layerId = "8538028E-5D6C-4318-9676-30148CDA39CA";
paths = (
{
closed = 1;
nodes = (
"559 1187 LINE SMOOTH",
"364 1187 OFFCURVE",
"258 1077 OFFCURVE",
"258 916 CURVE SMOOTH",
"258 880 OFFCURVE",
"263 847 OFFCURVE",
"272 816 CURVE",
"199 756 OFFCURVE",
"159 678 OFFCURVE",
"159 583 CURVE SMOOTH",
"159 452 OFFCURVE",
"226 352 OFFCURVE",
"345 293 CURVE SMOOTH",
"636 148 LINE SMOOTH",
"695 119 OFFCURVE",
"722 82 OFFCURVE",
"722 37 CURVE SMOOTH",
"722 -10 OFFCURVE",
"690 -35 OFFCURVE",
"633 -35 CURVE SMOOTH",
"440 -35 LINE",
"440 97 LINE SMOOTH",
"440 142 OFFCURVE",
"417 160 OFFCURVE",
"332 160 CURVE SMOOTH",
"247 160 OFFCURVE",
"210 142 OFFCURVE",
"210 97 CURVE SMOOTH",
"210 -165 LINE SMOOTH",
"210 -211 OFFCURVE",
"229 -230 OFFCURVE",
"275 -230 CURVE SMOOTH",
"669 -230 LINE SMOOTH",
"864 -230 OFFCURVE",
"970 -120 OFFCURVE",
"970 41 CURVE SMOOTH",
"970 77 OFFCURVE",
"965 110 OFFCURVE",
"955 140 CURVE",
"1028 201 OFFCURVE",
"1069 279 OFFCURVE",
"1069 374 CURVE SMOOTH",
"1069 505 OFFCURVE",
"1002 605 OFFCURVE",
"883 664 CURVE SMOOTH",
"592 809 LINE SMOOTH",
"533 838 OFFCURVE",
"506 875 OFFCURVE",
"506 920 CURVE SMOOTH",
"506 967 OFFCURVE",
"538 992 OFFCURVE",
"595 992 CURVE SMOOTH",
"788 992 LINE",
"788 860 LINE SMOOTH",
"788 815 OFFCURVE",
"811 797 OFFCURVE",
"896 797 CURVE SMOOTH",
"981 797 OFFCURVE",
"1018 815 OFFCURVE",
"1018 860 CURVE SMOOTH",
"1018 1122 LINE SMOOTH",
"1018 1168 OFFCURVE",
"999 1187 OFFCURVE",
"953 1187 CURVE SMOOTH"
);
},
{
closed = 1;
nodes = (
"431 635 OFFCURVE",
"443 628 OFFCURVE",
"456 622 CURVE SMOOTH",
"721 490 LINE SMOOTH",
"789 456 OFFCURVE",
"821 418 OFFCURVE",
"821 365 CURVE SMOOTH",
"821 346 OFFCURVE",
"817 330 OFFCURVE",
"808 315 CURVE",
"797 322 OFFCURVE",
"786 328 OFFCURVE",
"772 335 CURVE SMOOTH",
"507 467 LINE SMOOTH",
"439 501 OFFCURVE",
"407 539 OFFCURVE",
"407 592 CURVE SMOOTH",
"407 610 OFFCURVE",
"411 627 OFFCURVE",
"419 642 CURVE"
);
}
);
width = 1228;
}
);
unicode = 00A7;
}
{
color = 8;
glyphname = softhyphen;
layers = (
{
background = {
paths = (
{
closed = 1;
nodes = (
"233 650 LINE SMOOTH",
"188 650 OFFCURVE",
"170 632 OFFCURVE",
"170 582 CURVE SMOOTH",
"170 532 OFFCURVE",
"188 514 OFFCURVE",
"233 514 CURVE SMOOTH",
"995 514 LINE SMOOTH",
"1040 514 OFFCURVE",
"1058 532 OFFCURVE",
"1058 582 CURVE SMOOTH",
"1058 632 OFFCURVE",
"1040 650 OFFCURVE",
"995 650 CURVE SMOOTH"
);
}
);
};
layerId = UUID0;
paths = (
{
closed = 1;
nodes = (
"283 509 LINE SMOOTH",
"238 509 OFFCURVE",
"220 491 OFFCURVE",
"220 441 CURVE SMOOTH",
"220 391 OFFCURVE",
"238 373 OFFCURVE",
"283 373 CURVE SMOOTH",
"945 373 LINE SMOOTH",
"990 373 OFFCURVE",
"1008 391 OFFCURVE",
"1008 441 CURVE SMOOTH",
"1008 491 OFFCURVE",
"990 509 OFFCURVE",
"945 509 CURVE SMOOTH"
);
}
);
width = 1228;
},
{
background = {
paths = (
{
closed = 1;
nodes = (
"233 695 LINE SMOOTH",
"188 695 OFFCURVE",
"170 677 OFFCURVE",
"170 582 CURVE SMOOTH",
"170 487 OFFCURVE",
"188 470 OFFCURVE",
"233 470 CURVE SMOOTH",
"995 470 LINE SMOOTH",
"1040 470 OFFCURVE",
"1058 487 OFFCURVE",
"1058 582 CURVE SMOOTH",
"1058 677 OFFCURVE",
"1040 695 OFFCURVE",
"995 695 CURVE SMOOTH"
);
}
);
};
layerId = "8538028E-5D6C-4318-9676-30148CDA39CA";
paths = (
{
closed = 1;
nodes = (
"263 551 LINE SMOOTH",
"218 551 OFFCURVE",
"200 533 OFFCURVE",
"200 438 CURVE SMOOTH",
"200 343 OFFCURVE",
"218 326 OFFCURVE",
"263 326 CURVE SMOOTH",
"965 326 LINE SMOOTH",
"1010 326 OFFCURVE",
"1028 343 OFFCURVE",
"1028 438 CURVE SMOOTH",
"1028 533 OFFCURVE",
"1010 551 OFFCURVE",
"965 551 CURVE SMOOTH"
);
}
);
width = 1228;
}
);
unicode = 00AD;
}
{
glyphname = sterling;
layers = (
{
layerId = UUID0;
paths = (
{
closed = 1;
nodes = (
"413 1209 OFFCURVE",
"278 1069 OFFCURVE",
"278 884 CURVE SMOOTH",
"278 781 OFFCURVE",
"328 701 OFFCURVE",
"368 620 CURVE",
"273 620 LINE SMOOTH",
"228 620 OFFCURVE",
"210 602 OFFCURVE",
"210 552 CURVE SMOOTH",
"210 502 OFFCURVE",
"228 484 OFFCURVE",
"273 484 CURVE SMOOTH",
"414 484 LINE",
"430 348 OFFCURVE",
"386 247 OFFCURVE",
"215 92 CURVE SMOOTH",
"194 71 OFFCURVE",
"202 34 OFFCURVE",
"229 0 CURVE SMOOTH",
"253 -30 OFFCURVE",
"281 -44 OFFCURVE",
"307 -34 CURVE SMOOTH",
"395 3 OFFCURVE",
"467 15 OFFCURVE",
"528 15 CURVE SMOOTH",
"638 15 OFFCURVE",
"716 -24 OFFCURVE",
"803 -24 CURVE SMOOTH",
"863 -24 OFFCURVE",
"928 -5 OFFCURVE",
"1010 56 CURVE SMOOTH",
"1033 72 OFFCURVE",
"1040 110 OFFCURVE",
"1015 146 CURVE SMOOTH",
"992 182 OFFCURVE",
"960 193 OFFCURVE",
"940 179 CURVE SMOOTH",
"881 136 OFFCURVE",
"833 123 OFFCURVE",
"789 123 CURVE SMOOTH",
"718 123 OFFCURVE",
"655 157 OFFCURVE",
"564 157 CURVE SMOOTH",
"525 157 OFFCURVE",
"479 151 OFFCURVE",
"426 132 CURVE",
"531 236 OFFCURVE",
"577 353 OFFCURVE",
"567 484 CURVE",
"845 484 LINE SMOOTH",
"890 484 OFFCURVE",
"908 502 OFFCURVE",
"908 552 CURVE SMOOTH",
"908 602 OFFCURVE",
"890 620 OFFCURVE",
"845 620 CURVE SMOOTH",
"535 620 LINE",
"494 718 OFFCURVE",
"434 792 OFFCURVE",
"434 884 CURVE SMOOTH",
"434 982 OFFCURVE",
"503 1061 OFFCURVE",
"617 1061 CURVE SMOOTH",
"697 1061 OFFCURVE",
"764 1043 OFFCURVE",
"812 1014 CURVE",
"812 924 LINE SMOOTH",
"812 878 OFFCURVE",
"831 859 OFFCURVE",
"887 859 CURVE SMOOTH",
"943 859 OFFCURVE",
"962 878 OFFCURVE",
"962 924 CURVE SMOOTH",
"962 1051 LINE SMOOTH",
"962 1077 OFFCURVE",
"956 1094 OFFCURVE",
"941 1105 CURVE SMOOTH",
"853 1168 OFFCURVE",
"742 1209 OFFCURVE",
"618 1209 CURVE SMOOTH"
);
}
);
width = 1228;
},
{
layerId = "8538028E-5D6C-4318-9676-30148CDA39CA";
paths = (
{
closed = 1;
nodes = (
"378 1209 OFFCURVE",
"241 1061 OFFCURVE",
"241 867 CURVE SMOOTH",
"241 781 OFFCURVE",
"274 714 OFFCURVE",
"308 650 CURVE",
"213 650 LINE SMOOTH",
"168 650 OFFCURVE",
"150 632 OFFCURVE",
"150 537 CURVE SMOOTH",
"150 442 OFFCURVE",
"168 425 OFFCURVE",
"213 425 CURVE SMOOTH",
"375 425 LINE",
"369 315 OFFCURVE",
"309 247 OFFCURVE",
"199 161 CURVE SMOOTH",
"167 137 OFFCURVE",
"176 80 OFFCURVE",
"199 34 CURVE SMOOTH",
"222 -11 OFFCURVE",
"259 -46 OFFCURVE",
"287 -34 CURVE SMOOTH",
"374 2 OFFCURVE",
"451 13 OFFCURVE",
"515 13 CURVE SMOOTH",
"632 13 OFFCURVE",
"722 -24 OFFCURVE",
"818 -24 CURVE SMOOTH",
"885 -24 OFFCURVE",
"956 -6 OFFCURVE",
"1040 56 CURVE SMOOTH",
"1071 78 OFFCURVE",
"1064 136 OFFCURVE",
"1042 184 CURVE SMOOTH",
"1020 231 OFFCURVE",
"983 267 OFFCURVE",
"951 251 CURVE SMOOTH",
"898 225 OFFCURVE",
"856 218 OFFCURVE",
"818 218 CURVE SMOOTH",
"761 218 OFFCURVE",
"713 235 OFFCURVE",
"650 235 CURVE SMOOTH",
"610 235 OFFCURVE",
"565 228 OFFCURVE",
"509 207 CURVE",
"572 275 OFFCURVE",
"613 344 OFFCURVE",
"624 425 CURVE",
"865 425 LINE SMOOTH",
"910 425 OFFCURVE",
"928 442 OFFCURVE",
"928 537 CURVE SMOOTH",
"928 632 OFFCURVE",
"910 650 OFFCURVE",
"865 650 CURVE SMOOTH",
"577 650 LINE",
"540 719 OFFCURVE",
"495 777 OFFCURVE",
"495 858 CURVE SMOOTH",
"495 939 OFFCURVE",
"544 992 OFFCURVE",
"628 992 CURVE SMOOTH",
"686 992 OFFCURVE",
"730 981 OFFCURVE",
"771 961 CURVE",
"771 850 LINE SMOOTH",
"771 805 OFFCURVE",
"794 787 OFFCURVE",
"879 787 CURVE SMOOTH",
"964 787 OFFCURVE",
"1001 805 OFFCURVE",
"1001 850 CURVE SMOOTH",
"1001 1057 LINE SMOOTH",
"1001 1086 OFFCURVE",
"984 1105 OFFCURVE",
"955 1120 CURVE SMOOTH",
"840 1179 OFFCURVE",
"727 1209 OFFCURVE",
"620 1209 CURVE SMOOTH"
);
}
);
width = 1228;
}
);
unicode = 00A3;
}
{
glyphname = thorn;
layers = (
{
layerId = UUID0;
paths = (
{
closed = 1;
nodes = (
"120 1312 LINE SMOOTH",
"75 1312 OFFCURVE",
"57 1294 OFFCURVE",
"57 1244 CURVE SMOOTH",
"57 1194 OFFCURVE",
"75 1176 OFFCURVE",
"120 1176 CURVE SMOOTH",
"202 1176 LINE",
"202 -252 LINE",
"100 -252 LINE SMOOTH",
"55 -252 OFFCURVE",
"37 -270 OFFCURVE",
"37 -320 CURVE SMOOTH",
"37 -370 OFFCURVE",
"55 -388 OFFCURVE",
"100 -388 CURVE SMOOTH",
"524 -388 LINE SMOOTH",
"569 -388 OFFCURVE",
"587 -370 OFFCURVE",
"587 -320 CURVE SMOOTH",
"587 -270 OFFCURVE",
"569 -252 OFFCURVE",
"524 -252 CURVE SMOOTH",
"352 -252 LINE",
"352 143 LINE",
"432 41 OFFCURVE",
"536 -22 OFFCURVE",
"669 -22 CURVE SMOOTH",
"916 -22 OFFCURVE",
"1101 160 OFFCURVE",
"1101 462 CURVE SMOOTH",
"1101 764 OFFCURVE",
"916 946 OFFCURVE",
"669 946 CURVE SMOOTH",
"536 946 OFFCURVE",
"432 883 OFFCURVE",
"352 781 CURVE",
"352 1244 LINE SMOOTH",
"352 1294 OFFCURVE",
"334 1312 OFFCURVE",
"289 1312 CURVE SMOOTH"
);
},
{
closed = 1;
nodes = (
"840 798 OFFCURVE",
"943 658 OFFCURVE",
"943 462 CURVE SMOOTH",
"943 266 OFFCURVE",
"840 126 OFFCURVE",
"659 126 CURVE SMOOTH",
"482 126 OFFCURVE",
"352 250 OFFCURVE",
"352 462 CURVE SMOOTH",
"352 674 OFFCURVE",
"482 798 OFFCURVE",
"659 798 CURVE SMOOTH"
);
}
);
width = 1228;
},
{
layerId = "8538028E-5D6C-4318-9676-30148CDA39CA";
paths = (
{
closed = 1;
nodes = (
"100 1312 LINE SMOOTH",
"55 1312 OFFCURVE",
"37 1294 OFFCURVE",
"37 1209 CURVE SMOOTH",
"37 1124 OFFCURVE",
"55 1107 OFFCURVE",
"100 1107 CURVE SMOOTH",
"187 1107 LINE",
"187 -183 LINE",
"100 -183 LINE SMOOTH",
"55 -183 OFFCURVE",
"37 -201 OFFCURVE",
"37 -286 CURVE SMOOTH",
"37 -371 OFFCURVE",
"55 -388 OFFCURVE",
"100 -388 CURVE SMOOTH",
"604 -388 LINE SMOOTH",
"649 -388 OFFCURVE",
"667 -370 OFFCURVE",
"667 -285 CURVE SMOOTH",
"667 -200 OFFCURVE",
"649 -183 OFFCURVE",
"604 -183 CURVE SMOOTH",
"437 -183 LINE",
"437 96 LINE",
"504 22 OFFCURVE",
"594 -22 OFFCURVE",
"700 -22 CURVE SMOOTH",
"969 -22 OFFCURVE",
"1131 192 OFFCURVE",
"1131 462 CURVE SMOOTH",
"1131 732 OFFCURVE",
"969 946 OFFCURVE",
"700 946 CURVE SMOOTH",
"594 946 OFFCURVE",
"504 902 OFFCURVE",
"437 828 CURVE",
"437 1249 LINE SMOOTH",
"437 1294 OFFCURVE",
"419 1312 OFFCURVE",
"374 1312 CURVE SMOOTH"
);
},
{
closed = 1;
nodes = (
"785 719 OFFCURVE",
"863 618 OFFCURVE",
"863 462 CURVE SMOOTH",
"863 306 OFFCURVE",
"785 205 OFFCURVE",
"660 205 CURVE SMOOTH",
"535 205 OFFCURVE",
"430 296 OFFCURVE",
"430 462 CURVE SMOOTH",
"430 628 OFFCURVE",
"535 719 OFFCURVE",
"660 719 CURVE SMOOTH"
);
}
);
width = 1228;
}
);
unicode = 00FE;
}
{
glyphname = threequarters;
layers = (
{
background = {
components = (
{
alignment = -1;
name = threesuperior;
transform = "{0.835, 0, 0, 0.835, -232, 281}";
},
{
alignment = -1;
name = foursuperior;
transform = "{0.835, 0, 0, 0.835, 428, -619}";
},
{
alignment = -1;
name = fraction;
}
);
};
layerId = UUID0;
paths = (
{
closed = 1;
nodes = (
"197 1395 OFFCURVE",
"111 1377 OFFCURVE",
"45 1337 CURVE SMOOTH",
"34 1331 OFFCURVE",
"28 1318 OFFCURVE",
"28 1302 CURVE SMOOTH",
"28 1210 LINE SMOOTH",
"28 1183 OFFCURVE",
"43 1168 OFFCURVE",
"84 1168 CURVE SMOOTH",
"125 1168 OFFCURVE",
"140 1183 OFFCURVE",
"140 1210 CURVE SMOOTH",
"140 1263 LINE",
"175 1278 OFFCURVE",
"216 1287 OFFCURVE",
"263 1287 CURVE SMOOTH",
"348 1287 OFFCURVE",
"402 1254 OFFCURVE",
"402 1188 CURVE SMOOTH",
"402 1115 OFFCURVE",
"350 1087 OFFCURVE",
"260 1087 CURVE SMOOTH",
"227 1087 LINE SMOOTH",
"201 1087 OFFCURVE",
"191 1063 OFFCURVE",
"191 1034 CURVE SMOOTH",
"191 1004 OFFCURVE",
"201 982 OFFCURVE",
"227 982 CURVE SMOOTH",
"271 982 LINE SMOOTH",
"362 982 OFFCURVE",
"424 960 OFFCURVE",
"424 882 CURVE SMOOTH",
"424 815 OFFCURVE",
"367 777 OFFCURVE",
"267 777 CURVE SMOOTH",
"205 777 OFFCURVE",
"138 796 OFFCURVE",
"84 824 CURVE SMOOTH",
"55 836 OFFCURVE",
"37 815 OFFCURVE",
"27 788 CURVE SMOOTH",
"18 763 OFFCURVE",
"15 736 OFFCURVE",
"39 724 CURVE SMOOTH",
"107 686 OFFCURVE",
"195 669 OFFCURVE",
"273 669 CURVE SMOOTH",
"453 669 OFFCURVE",
"541 753 OFFCURVE",
"541 881 CURVE SMOOTH",
"541 966 OFFCURVE",
"496 1021 OFFCURVE",
"425 1045 CURVE",
"484 1077 OFFCURVE",
"519 1126 OFFCURVE",
"519 1196 CURVE SMOOTH",
"519 1313 OFFCURVE",
"426 1395 OFFCURVE",
"272 1395 CURVE SMOOTH"
);
},
{
closed = 1;
nodes = (
"998 495 OFFCURVE",
"980 482 OFFCURVE",
"961 458 CURVE SMOOTH",
"644 81 LINE SMOOTH",
"634 67 OFFCURVE",
"630 56 OFFCURVE",
"630 36 CURVE SMOOTH",
"630 -9 OFFCURVE",
"649 -29 OFFCURVE",
"675 -29 CURVE SMOOTH",
"989 -29 LINE",
"989 -182 LINE SMOOTH",
"989 -208 OFFCURVE",
"1005 -222 OFFCURVE",
"1046 -222 CURVE SMOOTH",
"1088 -222 OFFCURVE",
"1102 -208 OFFCURVE",
"1102 -182 CURVE SMOOTH",
"1102 -29 LINE",
"1193 -29 LINE SMOOTH",
"1219 -29 OFFCURVE",
"1233 -14 OFFCURVE",
"1233 24 CURVE SMOOTH",
"1233 62 OFFCURVE",
"1219 76 OFFCURVE",
"1193 76 CURVE SMOOTH",
"1102 76 LINE",
"1102 448 LINE SMOOTH",
"1102 476 OFFCURVE",
"1065 495 OFFCURVE",
"1028 495 CURVE SMOOTH"
);
},
{
closed = 1;
nodes = (
"989 76 LINE",
"773 76 LINE",
"994 342 LINE"
);
},
{
closed = 1;
nodes = (
"125 289 LINE SMOOTH",
"106 277 OFFCURVE",
"106 250 OFFCURVE",
"125 224 CURVE SMOOTH",
"144 198 OFFCURVE",
"168 190 OFFCURVE",
"185 200 CURVE SMOOTH",
"1103 761 LINE SMOOTH",
"1122 773 OFFCURVE",
"1122 800 OFFCURVE",
"1103 826 CURVE SMOOTH",
"1084 852 OFFCURVE",
"1060 860 OFFCURVE",
"1043 850 CURVE SMOOTH"
);
}
);
width = 1228;
},
{
background = {
components = (
{
alignment = -1;
name = threesuperior;
transform = "{0.835, 0, 0, 0.835, -243, 280}";
},
{
alignment = -1;
name = foursuperior;
transform = "{0.835, 0, 0, 0.835, 435, -615}";
},
{
alignment = -1;
name = fraction;
}
);
};
layerId = "8538028E-5D6C-4318-9676-30148CDA39CA";
paths = (
{
closed = 1;
nodes = (
"185 1394 OFFCURVE",
"93 1376 OFFCURVE",
"22 1345 CURVE SMOOTH",
"4 1337 OFFCURVE",
"-4 1324 OFFCURVE",
"-4 1307 CURVE SMOOTH",
"-4 1179 LINE SMOOTH",
"-4 1153 OFFCURVE",
"20 1139 OFFCURVE",
"78 1139 CURVE SMOOTH",
"137 1139 OFFCURVE",
"150 1153 OFFCURVE",
"150 1179 CURVE SMOOTH",
"150 1228 LINE",
"189 1242 OFFCURVE",
"229 1249 OFFCURVE",
"264 1249 CURVE SMOOTH",
"337 1249 OFFCURVE",
"375 1222 OFFCURVE",
"375 1177 CURVE SMOOTH",
"375 1128 OFFCURVE",
"341 1101 OFFCURVE",
"271 1101 CURVE SMOOTH",
"210 1101 LINE SMOOTH",
"184 1101 OFFCURVE",
"169 1082 OFFCURVE",
"169 1029 CURVE SMOOTH",
"169 976 OFFCURVE",
"184 957 OFFCURVE",
"210 957 CURVE SMOOTH",
"287 957 LINE SMOOTH",
"346 957 OFFCURVE",
"377 932 OFFCURVE",
"377 885 CURVE SMOOTH",
"377 840 OFFCURVE",
"341 813 OFFCURVE",
"253 813 CURVE SMOOTH",
"190 813 OFFCURVE",
"116 833 OFFCURVE",
"59 856 CURVE SMOOTH",
"38 864 OFFCURVE",
"16 845 OFFCURVE",
"-1 800 CURVE SMOOTH",
"-18 754 OFFCURVE",
"-9 725 OFFCURVE",
"19 713 CURVE SMOOTH",
"82 687 OFFCURVE",
"178 668 OFFCURVE",
"261 668 CURVE SMOOTH",
"444 668 OFFCURVE",
"554 738 OFFCURVE",
"554 880 CURVE SMOOTH",
"554 957 OFFCURVE",
"512 1011 OFFCURVE",
"442 1037 CURVE",
"504 1067 OFFCURVE",
"544 1113 OFFCURVE",
"544 1185 CURVE SMOOTH",
"544 1315 OFFCURVE",
"449 1394 OFFCURVE",
"276 1394 CURVE SMOOTH"
);
},
{
closed = 1;
nodes = (
"995 499 OFFCURVE",
"969 486 OFFCURVE",
"951 463 CURVE SMOOTH",
"641 85 LINE SMOOTH",
"631 71 OFFCURVE",
"627 60 OFFCURVE",
"627 40 CURVE SMOOTH",
"627 -6 OFFCURVE",
"655 -60 OFFCURVE",
"680 -60 CURVE SMOOTH",
"970 -60 LINE",
"970 -178 LINE SMOOTH",
"970 -204 OFFCURVE",
"995 -218 OFFCURVE",
"1060 -218 CURVE SMOOTH",
"1119 -218 OFFCURVE",
"1133 -204 OFFCURVE",
"1133 -178 CURVE SMOOTH",
"1133 -60 LINE",
"1208 -60 LINE SMOOTH",
"1238 -60 OFFCURVE",
"1251 -39 OFFCURVE",
"1251 10 CURVE SMOOTH",
"1251 59 OFFCURVE",
"1238 81 OFFCURVE",
"1208 81 CURVE SMOOTH",
"1133 81 LINE",
"1133 452 LINE SMOOTH",
"1133 481 OFFCURVE",
"1104 499 OFFCURVE",
"1043 499 CURVE SMOOTH"
);
},
{
closed = 1;
nodes = (
"970 81 LINE",
"820 81 LINE",
"975 280 LINE"
);
},
{
closed = 1;
nodes = (
"105 329 LINE SMOOTH",
"77 313 OFFCURVE",
"79 286 OFFCURVE",
"109 240 CURVE SMOOTH",
"139 194 OFFCURVE",
"162 188 OFFCURVE",
"185 200 CURVE SMOOTH",
"1122 721 LINE SMOOTH",
"1150 737 OFFCURVE",
"1148 764 OFFCURVE",
"1118 810 CURVE SMOOTH",
"1088 856 OFFCURVE",
"1065 862 OFFCURVE",
"1042 850 CURVE SMOOTH"
);
}
);
width = 1228;
}
);
unicode = 00BE;
}
{
glyphname = twosuperior;
layers = (
{
layerId = UUID0;
paths = (
{
closed = 1;
nodes = (
"520 1334 OFFCURVE",
"412 1305 OFFCURVE",
"332 1252 CURVE SMOOTH",
"319 1243 OFFCURVE",
"311 1229 OFFCURVE",
"311 1210 CURVE SMOOTH",
"311 1063 LINE SMOOTH",
"311 1030 OFFCURVE",
"329 1012 OFFCURVE",
"378 1012 CURVE SMOOTH",
"428 1012 OFFCURVE",
"446 1030 OFFCURVE",
"446 1063 CURVE SMOOTH",
"446 1166 LINE",
"491 1190 OFFCURVE",
"550 1205 OFFCURVE",
"607 1205 CURVE SMOOTH",
"708 1205 OFFCURVE",
"761 1154 OFFCURVE",
"761 1078 CURVE SMOOTH",
"761 1010 OFFCURVE",
"723 961 OFFCURVE",
"651 900 CURVE SMOOTH",
"319 620 LINE SMOOTH",
"300 604 OFFCURVE",
"288 584 OFFCURVE",
"288 555 CURVE SMOOTH",
"288 509 OFFCURVE",
"303 483 OFFCURVE",
"335 483 CURVE SMOOTH",
"906 483 LINE SMOOTH",
"938 483 OFFCURVE",
"956 501 OFFCURVE",
"956 536 CURVE SMOOTH",
"956 686 LINE SMOOTH",
"956 719 OFFCURVE",
"938 737 OFFCURVE",
"889 737 CURVE SMOOTH",
"839 737 OFFCURVE",
"821 719 OFFCURVE",
"821 686 CURVE SMOOTH",
"821 608 LINE",
"499 608 LINE",
"738 806 LINE SMOOTH",
"844 894 OFFCURVE",
"901 971 OFFCURVE",
"901 1078 CURVE SMOOTH",
"901 1233 OFFCURVE",
"794 1334 OFFCURVE",
"616 1334 CURVE SMOOTH"
);
}
);
width = 1228;
},
{
layerId = "8538028E-5D6C-4318-9676-30148CDA39CA";
paths = (
{
closed = 1;
nodes = (
"541 1334 OFFCURVE",
"427 1311 OFFCURVE",
"339 1265 CURVE SMOOTH",
"319 1254 OFFCURVE",
"308 1240 OFFCURVE",
"308 1220 CURVE SMOOTH",
"308 1047 LINE SMOOTH",
"308 1015 OFFCURVE",
"337 999 OFFCURVE",
"407 999 CURVE SMOOTH",
"477 999 OFFCURVE",
"493 1015 OFFCURVE",
"493 1047 CURVE SMOOTH",
"493 1135 LINE",
"532 1152 OFFCURVE",
"581 1161 OFFCURVE",
"625 1161 CURVE SMOOTH",
"699 1161 OFFCURVE",
"742 1121 OFFCURVE",
"742 1058 CURVE SMOOTH",
"742 1006 OFFCURVE",
"705 965 OFFCURVE",
"634 912 CURVE SMOOTH",
"307 659 LINE SMOOTH",
"290 646 OFFCURVE",
"279 623 OFFCURVE",
"279 583 CURVE SMOOTH",
"279 513 OFFCURVE",
"300 483 OFFCURVE",
"332 483 CURVE SMOOTH",
"937 483 LINE SMOOTH",
"970 483 OFFCURVE",
"983 496 OFFCURVE",
"983 529 CURVE SMOOTH",
"983 699 LINE SMOOTH",
"983 731 OFFCURVE",
"954 747 OFFCURVE",
"884 747 CURVE SMOOTH",
"814 747 OFFCURVE",
"798 731 OFFCURVE",
"798 699 CURVE SMOOTH",
"798 653 LINE",
"560 653 LINE",
"758 796 LINE SMOOTH",
"870 877 OFFCURVE",
"944 957 OFFCURVE",
"944 1067 CURVE SMOOTH",
"944 1225 OFFCURVE",
"838 1334 OFFCURVE",
"641 1334 CURVE SMOOTH"
);
}
);
width = 1228;
}
);
unicode = 00B2;
}
{
glyphname = breve;
layers = (
{
layerId = UUID0;
paths = (
{
closed = 1;
nodes = (
"845 1378 OFFCURVE",
"823 1367 OFFCURVE",
"817 1348 CURVE SMOOTH",
"787 1252 OFFCURVE",
"721 1209 OFFCURVE",
"614 1209 CURVE SMOOTH",
"507 1209 OFFCURVE",
"442 1253 OFFCURVE",
"411 1348 CURVE SMOOTH",
"405 1367 OFFCURVE",
"383 1378 OFFCURVE",
"340 1369 CURVE SMOOTH",
"298 1360 OFFCURVE",
"280 1342 OFFCURVE",
"287 1308 CURVE SMOOTH",
"317 1160 OFFCURVE",
"429 1071 OFFCURVE",
"614 1071 CURVE SMOOTH",
"799 1071 OFFCURVE",
"911 1160 OFFCURVE",
"941 1308 CURVE SMOOTH",
"948 1342 OFFCURVE",
"930 1360 OFFCURVE",
"888 1369 CURVE SMOOTH"
);
}
);
width = 1228;
},
{
layerId = "8538028E-5D6C-4318-9676-30148CDA39CA";
paths = (
{
closed = 1;
nodes = (
"851 1401 OFFCURVE",
"825 1395 OFFCURVE",
"815 1367 CURVE SMOOTH",
"784 1282 OFFCURVE",
"722 1245 OFFCURVE",
"614 1245 CURVE SMOOTH",
"506 1245 OFFCURVE",
"444 1282 OFFCURVE",
"413 1367 CURVE SMOOTH",
"403 1395 OFFCURVE",
"377 1401 OFFCURVE",
"327 1387 CURVE SMOOTH",
"277 1373 OFFCURVE",
"255 1352 OFFCURVE",
"262 1315 CURVE SMOOTH",
"293 1151 OFFCURVE",
"412 1041 OFFCURVE",
"614 1041 CURVE SMOOTH",
"816 1041 OFFCURVE",
"935 1151 OFFCURVE",
"966 1315 CURVE SMOOTH",
"973 1352 OFFCURVE",
"951 1373 OFFCURVE",
"901 1387 CURVE SMOOTH"
);
}
);
width = 1228;
}
);
unicode = 02D8;
}
{
glyphname = circumflex;
layers = (
{
layerId = UUID0;
paths = (
{
closed = 1;
nodes = (
"587 1396 OFFCURVE",
"570 1389 OFFCURVE",
"556 1376 CURVE SMOOTH",
"311 1143 LINE SMOOTH",
"287 1121 OFFCURVE",
"291 1093 OFFCURVE",
"318 1063 CURVE SMOOTH",
"344 1034 OFFCURVE",
"370 1033 OFFCURVE",
"393 1051 CURVE SMOOTH",
"614 1224 LINE",
"835 1051 LINE SMOOTH",
"858 1033 OFFCURVE",
"884 1034 OFFCURVE",
"910 1063 CURVE SMOOTH",
"937 1093 OFFCURVE",
"941 1121 OFFCURVE",
"917 1143 CURVE SMOOTH",
"672 1376 LINE SMOOTH",
"658 1389 OFFCURVE",
"641 1396 OFFCURVE",
"614 1396 CURVE SMOOTH"
);
}
);
width = 1228;
},
{
layerId = "8538028E-5D6C-4318-9676-30148CDA39CA";
paths = (
{
closed = 1;
nodes = (
"578 1410 OFFCURVE",
"560 1402 OFFCURVE",
"543 1387 CURVE SMOOTH",
"278 1162 LINE SMOOTH",
"249 1138 OFFCURVE",
"248 1107 OFFCURVE",
"281 1060 CURVE SMOOTH",
"314 1013 OFFCURVE",
"342 1009 OFFCURVE",
"374 1028 CURVE SMOOTH",
"614 1166 LINE",
"854 1028 LINE SMOOTH",
"886 1009 OFFCURVE",
"914 1013 OFFCURVE",
"947 1060 CURVE SMOOTH",
"980 1107 OFFCURVE",
"979 1138 OFFCURVE",
"950 1162 CURVE SMOOTH",
"685 1387 LINE SMOOTH",
"668 1402 OFFCURVE",
"650 1410 OFFCURVE",
"614 1410 CURVE SMOOTH"
);
}
);
width = 1228;
}
);
unicode = 02C6;
}
{
glyphname = hungarumlaut;
layers = (
{
layerId = UUID0;
paths = (
{
closed = 1;
nodes = (
"630 1409 OFFCURVE",
"591 1402 OFFCURVE",
"564 1373 CURVE SMOOTH",
"327 1120 LINE SMOOTH",
"308 1100 OFFCURVE",
"317 1075 OFFCURVE",
"347 1056 CURVE SMOOTH",
"381 1035 OFFCURVE",
"411 1034 OFFCURVE",
"434 1053 CURVE SMOOTH",
"704 1286 LINE SMOOTH",
"733 1311 OFFCURVE",
"733 1345 OFFCURVE",
"678 1379 CURVE SMOOTH"
);
},
{
closed = 1;
nodes = (
"1010 1409 OFFCURVE",
"971 1402 OFFCURVE",
"944 1373 CURVE SMOOTH",
"707 1120 LINE SMOOTH",
"688 1100 OFFCURVE",
"697 1075 OFFCURVE",
"727 1056 CURVE SMOOTH",
"761 1035 OFFCURVE",
"791 1034 OFFCURVE",
"814 1053 CURVE SMOOTH",
"1084 1286 LINE SMOOTH",
"1113 1311 OFFCURVE",
"1113 1345 OFFCURVE",
"1058 1379 CURVE SMOOTH"
);
}
);
width = 1228;
},
{
layerId = "8538028E-5D6C-4318-9676-30148CDA39CA";
paths = (
{
closed = 1;
nodes = (
"581 1420 OFFCURVE",
"532 1414 OFFCURVE",
"510 1388 CURVE SMOOTH",
"289 1122 LINE SMOOTH",
"270 1099 OFFCURVE",
"286 1071 OFFCURVE",
"334 1053 CURVE SMOOTH",
"387 1033 OFFCURVE",
"426 1034 OFFCURVE",
"448 1054 CURVE SMOOTH",
"713 1294 LINE SMOOTH",
"738 1317 OFFCURVE",
"734 1351 OFFCURVE",
"656 1386 CURVE SMOOTH"
);
},
{
closed = 1;
nodes = (
"1011 1420 OFFCURVE",
"962 1414 OFFCURVE",
"940 1388 CURVE SMOOTH",
"719 1122 LINE SMOOTH",
"700 1099 OFFCURVE",
"716 1071 OFFCURVE",
"764 1053 CURVE SMOOTH",
"817 1033 OFFCURVE",
"856 1034 OFFCURVE",
"878 1054 CURVE SMOOTH",
"1143 1294 LINE SMOOTH",
"1168 1317 OFFCURVE",
"1164 1351 OFFCURVE",
"1086 1386 CURVE SMOOTH"
);
}
);
width = 1228;
}
);
unicode = 02DD;
}
{
glyphname = ogonek;
layers = (
{
layerId = UUID0;
paths = (
{
closed = 1;
nodes = (
"599 28 LINE",
"485 -69 OFFCURVE",
"411 -168 OFFCURVE",
"411 -281 CURVE SMOOTH",
"411 -397 OFFCURVE",
"487 -472 OFFCURVE",
"611 -472 CURVE SMOOTH",
"673 -472 OFFCURVE",
"729 -462 OFFCURVE",
"775 -446 CURVE SMOOTH",
"804 -436 OFFCURVE",
"814 -414 OFFCURVE",
"807 -368 CURVE SMOOTH",
"800 -324 OFFCURVE",
"783 -309 OFFCURVE",
"757 -316 CURVE SMOOTH",
"721 -326 OFFCURVE",
"683 -333 OFFCURVE",
"644 -333 CURVE SMOOTH",
"598 -333 OFFCURVE",
"567 -307 OFFCURVE",
"567 -260 CURVE SMOOTH",
"567 -181 OFFCURVE",
"622 -98 OFFCURVE",
"764 28 CURVE"
);
}
);
width = 1228;
},
{
layerId = "8538028E-5D6C-4318-9676-30148CDA39CA";
paths = (
{
closed = 1;
nodes = (
"578 28 LINE",
"451 -51 OFFCURVE",
"349 -139 OFFCURVE",
"349 -269 CURVE SMOOTH",
"349 -402 OFFCURVE",
"439 -472 OFFCURVE",
"595 -472 CURVE SMOOTH",
"668 -472 OFFCURVE",
"745 -460 OFFCURVE",
"811 -438 CURVE SMOOTH",
"841 -428 OFFCURVE",
"854 -402 OFFCURVE",
"850 -343 CURVE SMOOTH",
"846 -280 OFFCURVE",
"827 -260 OFFCURVE",
"800 -265 CURVE SMOOTH",
"760 -272 OFFCURVE",
"719 -278 OFFCURVE",
"680 -278 CURVE SMOOTH",
"623 -278 OFFCURVE",
"592 -256 OFFCURVE",
"592 -211 CURVE SMOOTH",
"592 -147 OFFCURVE",
"654 -69 OFFCURVE",
"785 28 CURVE"
);
}
);
width = 1228;
}
);
unicode = 02DB;
}
{
glyphname = period;
layers = (
{
layerId = UUID0;
paths = (
{
closed = 1;
nodes = (
"519 300 OFFCURVE",
"479 282 OFFCURVE",
"479 237 CURVE SMOOTH",
"479 53 LINE SMOOTH",
"479 8 OFFCURVE",
"519 -10 OFFCURVE",
"614 -10 CURVE SMOOTH",
"709 -10 OFFCURVE",
"749 8 OFFCURVE",
"749 53 CURVE SMOOTH",
"749 237 LINE SMOOTH",
"749 282 OFFCURVE",
"709 300 OFFCURVE",
"614 300 CURVE SMOOTH"
);
}
);
width = 1228;
},
{
layerId = "8538028E-5D6C-4318-9676-30148CDA39CA";
paths = (
{
closed = 1;
nodes = (
"498 370 OFFCURVE",
"449 352 OFFCURVE",
"449 307 CURVE SMOOTH",
"449 53 LINE SMOOTH",
"449 8 OFFCURVE",
"498 -10 OFFCURVE",
"614 -10 CURVE SMOOTH",
"730 -10 OFFCURVE",
"779 8 OFFCURVE",
"779 53 CURVE SMOOTH",
"779 307 LINE SMOOTH",
"779 352 OFFCURVE",
"730 370 OFFCURVE",
"614 370 CURVE SMOOTH"
);
}
);
width = 1228;
}
);
unicode = 002E;
}
{
glyphname = slash;
layers = (
{
layerId = UUID0;
paths = (
{
closed = 1;
nodes = (
"906 1394 OFFCURVE",
"882 1379 OFFCURVE",
"873 1358 CURVE SMOOTH",
"201 -285 LINE SMOOTH",
"185 -325 OFFCURVE",
"227 -355 OFFCURVE",
"290 -355 CURVE SMOOTH",
"322 -355 OFFCURVE",
"346 -340 OFFCURVE",
"355 -319 CURVE SMOOTH",
"1027 1324 LINE SMOOTH",
"1043 1364 OFFCURVE",
"1001 1394 OFFCURVE",
"938 1394 CURVE SMOOTH"
);
}
);
width = 1228;
},
{
layerId = "8538028E-5D6C-4318-9676-30148CDA39CA";
paths = (
{
closed = 1;
nodes = (
"869 1399 OFFCURVE",
"841 1385 OFFCURVE",
"829 1356 CURVE SMOOTH",
"163 -262 LINE SMOOTH",
"140 -318 OFFCURVE",
"216 -360 OFFCURVE",
"317 -360 CURVE SMOOTH",
"359 -360 OFFCURVE",
"387 -346 OFFCURVE",
"399 -317 CURVE SMOOTH",
"1065 1301 LINE SMOOTH",
"1088 1357 OFFCURVE",
"1012 1399 OFFCURVE",
"911 1399 CURVE SMOOTH"
);
}
);
width = 1228;
}
);
unicode = 002F;
}
{
glyphname = Omega;
layers = (
{
layerId = UUID0;
paths = (
{
closed = 1;
nodes = (
"299 1209 OFFCURVE",
"88 975 OFFCURVE",
"88 623 CURVE SMOOTH",
"88 416 OFFCURVE",
"191 244 OFFCURVE",
"321 144 CURVE",
"144 144 LINE SMOOTH",
"99 144 OFFCURVE",
"81 124 OFFCURVE",
"81 72 CURVE SMOOTH",
"81 20 OFFCURVE",
"99 0 OFFCURVE",
"144 0 CURVE SMOOTH",
"478 0 LINE SMOOTH",
"523 0 OFFCURVE",
"541 21 OFFCURVE",
"541 78 CURVE SMOOTH",
"541 109 OFFCURVE",
"537 133 OFFCURVE",
"524 142 CURVE SMOOTH",
"349 254 OFFCURVE",
"246 413 OFFCURVE",
"246 623 CURVE SMOOTH",
"246 893 OFFCURVE",
"392 1061 OFFCURVE",
"614 1061 CURVE SMOOTH",
"836 1061 OFFCURVE",
"982 893 OFFCURVE",
"982 623 CURVE SMOOTH",
"982 413 OFFCURVE",
"879 254 OFFCURVE",
"704 142 CURVE SMOOTH",
"691 133 OFFCURVE",
"687 109 OFFCURVE",
"687 78 CURVE SMOOTH",
"687 21 OFFCURVE",
"705 0 OFFCURVE",
"750 0 CURVE SMOOTH",
"1084 0 LINE SMOOTH",
"1129 0 OFFCURVE",
"1147 20 OFFCURVE",
"1147 72 CURVE SMOOTH",
"1147 124 OFFCURVE",
"1129 144 OFFCURVE",
"1084 144 CURVE SMOOTH",
"907 144 LINE",
"1037 244 OFFCURVE",
"1140 416 OFFCURVE",
"1140 623 CURVE SMOOTH",
"1140 975 OFFCURVE",
"929 1209 OFFCURVE",
"614 1209 CURVE SMOOTH"
);
}
);
width = 1228;
},
{
layerId = "8538028E-5D6C-4318-9676-30148CDA39CA";
paths = (
{
closed = 1;
nodes = (
"284 1209 OFFCURVE",
"63 994 OFFCURVE",
"63 644 CURVE SMOOTH",
"63 472 OFFCURVE",
"138 336 OFFCURVE",
"260 235 CURVE",
"107 235 LINE SMOOTH",
"62 235 OFFCURVE",
"44 212 OFFCURVE",
"44 117 CURVE SMOOTH",
"44 22 OFFCURVE",
"62 0 OFFCURVE",
"107 0 CURVE SMOOTH",
"477 0 LINE SMOOTH",
"522 0 OFFCURVE",
"540 28 OFFCURVE",
"540 153 CURVE SMOOTH",
"540 219 OFFCURVE",
"535 249 OFFCURVE",
"512 264 CURVE SMOOTH",
"383 350 OFFCURVE",
"331 473 OFFCURVE",
"331 644 CURVE SMOOTH",
"331 862 OFFCURVE",
"427 982 OFFCURVE",
"614 982 CURVE SMOOTH",
"801 982 OFFCURVE",
"897 862 OFFCURVE",
"897 644 CURVE SMOOTH",
"897 473 OFFCURVE",
"845 350 OFFCURVE",
"716 264 CURVE SMOOTH",
"693 249 OFFCURVE",
"688 219 OFFCURVE",
"688 153 CURVE SMOOTH",
"688 28 OFFCURVE",
"706 0 OFFCURVE",
"751 0 CURVE SMOOTH",
"1121 0 LINE SMOOTH",
"1166 0 OFFCURVE",
"1184 22 OFFCURVE",
"1184 117 CURVE SMOOTH",
"1184 212 OFFCURVE",
"1166 235 OFFCURVE",
"1121 235 CURVE SMOOTH",
"968 235 LINE",
"1090 336 OFFCURVE",
"1165 472 OFFCURVE",
"1165 644 CURVE SMOOTH",
"1165 994 OFFCURVE",
"944 1209 OFFCURVE",
"614 1209 CURVE SMOOTH"
);
}
);
width = 1228;
}
);
unicode = 03A9;
}
{
glyphname = equal;
layers = (
{
layerId = UUID0;
paths = (
{
closed = 1;
nodes = (
"233 850 LINE SMOOTH",
"188 850 OFFCURVE",
"170 832 OFFCURVE",
"170 782 CURVE SMOOTH",
"170 732 OFFCURVE",
"188 714 OFFCURVE",
"233 714 CURVE SMOOTH",
"995 714 LINE SMOOTH",
"1040 714 OFFCURVE",
"1058 732 OFFCURVE",
"1058 782 CURVE SMOOTH",
"1058 832 OFFCURVE",
"1040 850 OFFCURVE",
"995 850 CURVE SMOOTH"
);
},
{
closed = 1;
nodes = (
"233 450 LINE SMOOTH",
"188 450 OFFCURVE",
"170 432 OFFCURVE",
"170 382 CURVE SMOOTH",
"170 332 OFFCURVE",
"188 314 OFFCURVE",
"233 314 CURVE SMOOTH",
"995 314 LINE SMOOTH",
"1040 314 OFFCURVE",
"1058 332 OFFCURVE",
"1058 382 CURVE SMOOTH",
"1058 432 OFFCURVE",
"1040 450 OFFCURVE",
"995 450 CURVE SMOOTH"
);
}
);
width = 1228;
},
{
layerId = "8538028E-5D6C-4318-9676-30148CDA39CA";
paths = (
{
closed = 1;
nodes = (
"233 924 LINE SMOOTH",
"188 924 OFFCURVE",
"170 906 OFFCURVE",
"170 811 CURVE SMOOTH",
"170 716 OFFCURVE",
"188 699 OFFCURVE",
"233 699 CURVE SMOOTH",
"995 699 LINE SMOOTH",
"1040 699 OFFCURVE",
"1058 716 OFFCURVE",
"1058 811 CURVE SMOOTH",
"1058 906 OFFCURVE",
"1040 924 OFFCURVE",
"995 924 CURVE SMOOTH"
);
},
{
closed = 1;
nodes = (
"233 466 LINE SMOOTH",
"188 466 OFFCURVE",
"170 448 OFFCURVE",
"170 353 CURVE SMOOTH",
"170 258 OFFCURVE",
"188 241 OFFCURVE",
"233 241 CURVE SMOOTH",
"995 241 LINE SMOOTH",
"1040 241 OFFCURVE",
"1058 258 OFFCURVE",
"1058 353 CURVE SMOOTH",
"1058 448 OFFCURVE",
"1040 466 OFFCURVE",
"995 466 CURVE SMOOTH"
);
}
);
width = 1228;
}
);
unicode = 003D;
}
{
glyphname = less;
layers = (
{
layerId = UUID0;
paths = (
{
closed = 1;
nodes = (
"172 652 LINE SMOOTH",
"140 636 OFFCURVE",
"125 618 OFFCURVE",
"125 583 CURVE SMOOTH",
"125 548 OFFCURVE",
"140 530 OFFCURVE",
"172 514 CURVE SMOOTH",
"949 133 LINE SMOOTH",
"990 113 OFFCURVE",
"1019 122 OFFCURVE",
"1041 166 CURVE SMOOTH",
"1064 212 OFFCURVE",
"1054 241 OFFCURVE",
"1012 261 CURVE SMOOTH",
"340 583 LINE",
"1012 905 LINE SMOOTH",
"1054 925 OFFCURVE",
"1064 954 OFFCURVE",
"1041 1000 CURVE SMOOTH",
"1019 1044 OFFCURVE",
"990 1053 OFFCURVE",
"949 1033 CURVE SMOOTH"
);
}
);
width = 1228;
},
{
layerId = "8538028E-5D6C-4318-9676-30148CDA39CA";
paths = (
{
closed = 1;
nodes = (
"166 677 LINE SMOOTH",
"134 661 OFFCURVE",
"120 640 OFFCURVE",
"120 583 CURVE SMOOTH",
"120 526 OFFCURVE",
"134 505 OFFCURVE",
"166 489 CURVE SMOOTH",
"946 87 LINE SMOOTH",
"987 66 OFFCURVE",
"1016 75 OFFCURVE",
"1056 155 CURVE SMOOTH",
"1096 235 OFFCURVE",
"1088 270 OFFCURVE",
"1046 291 CURVE SMOOTH",
"461 583 LINE",
"1046 875 LINE SMOOTH",
"1088 896 OFFCURVE",
"1096 931 OFFCURVE",
"1056 1011 CURVE SMOOTH",
"1016 1091 OFFCURVE",
"987 1100 OFFCURVE",
"946 1079 CURVE SMOOTH"
);
}
);
width = 1228;
}
);
unicode = 003C;
}
{
glyphname = mu;
layers = (
{
layerId = UUID0;
paths = (
{
closed = 1;
nodes = (
"944 934 LINE SMOOTH",
"888 934 OFFCURVE",
"870 915 OFFCURVE",
"870 869 CURVE SMOOTH",
"870 502 LINE SMOOTH",
"870 292 OFFCURVE",
"701 126 OFFCURVE",
"550 126 CURVE SMOOTH",
"421 126 OFFCURVE",
"368 204 OFFCURVE",
"368 319 CURVE SMOOTH",
"368 869 LINE SMOOTH",
"368 915 OFFCURVE",
"350 934 OFFCURVE",
"294 934 CURVE SMOOTH",
"292 934 LINE SMOOTH",
"236 934 OFFCURVE",
"218 915 OFFCURVE",
"218 869 CURVE SMOOTH",
"218 -333 LINE SMOOTH",
"218 -379 OFFCURVE",
"236 -398 OFFCURVE",
"292 -398 CURVE SMOOTH",
"294 -398 LINE SMOOTH",
"350 -398 OFFCURVE",
"368 -379 OFFCURVE",
"368 -333 CURVE SMOOTH",
"368 25 LINE",
"412 -6 OFFCURVE",
"470 -22 OFFCURVE",
"535 -22 CURVE SMOOTH",
"675 -22 OFFCURVE",
"800 74 OFFCURVE",
"880 198 CURVE",
"880 55 LINE SMOOTH",
"880 9 OFFCURVE",
"896 -10 OFFCURVE",
"949 -10 CURVE SMOOTH",
"951 -10 LINE SMOOTH",
"1004 -10 OFFCURVE",
"1020 9 OFFCURVE",
"1020 55 CURVE SMOOTH",
"1020 869 LINE SMOOTH",
"1020 915 OFFCURVE",
"1002 934 OFFCURVE",
"946 934 CURVE SMOOTH"
);
}
);
width = 1228;
},
{
layerId = "8538028E-5D6C-4318-9676-30148CDA39CA";
paths = (
{
closed = 1;
nodes = (
"869 924 LINE SMOOTH",
"824 924 OFFCURVE",
"806 906 OFFCURVE",
"806 861 CURVE SMOOTH",
"806 506 LINE SMOOTH",
"806 348 OFFCURVE",
"685 215 OFFCURVE",
"571 215 CURVE SMOOTH",
"473 215 OFFCURVE",
"434 275 OFFCURVE",
"434 373 CURVE SMOOTH",
"434 861 LINE SMOOTH",
"434 906 OFFCURVE",
"416 924 OFFCURVE",
"371 924 CURVE SMOOTH",
"247 924 LINE SMOOTH",
"202 924 OFFCURVE",
"184 906 OFFCURVE",
"184 861 CURVE SMOOTH",
"184 -325 LINE SMOOTH",
"184 -370 OFFCURVE",
"202 -388 OFFCURVE",
"247 -388 CURVE SMOOTH",
"371 -388 LINE SMOOTH",
"416 -388 OFFCURVE",
"434 -370 OFFCURVE",
"434 -325 CURVE SMOOTH",
"434 -12 LINE",
"457 -18 OFFCURVE",
"481 -22 OFFCURVE",
"506 -22 CURVE SMOOTH",
"643 -22 OFFCURVE",
"761 57 OFFCURVE",
"846 178 CURVE",
"846 63 LINE SMOOTH",
"846 18 OFFCURVE",
"864 0 OFFCURVE",
"909 0 CURVE SMOOTH",
"993 0 LINE SMOOTH",
"1038 0 OFFCURVE",
"1056 18 OFFCURVE",
"1056 63 CURVE SMOOTH",
"1056 861 LINE SMOOTH",
"1056 906 OFFCURVE",
"1038 924 OFFCURVE",
"993 924 CURVE SMOOTH"
);
}
);
width = 1228;
}
);
unicode = 03BC;
}
{
glyphname = pi;
layers = (
{
layerId = UUID0;
paths = (
{
closed = 1;
nodes = (
"161 924 LINE SMOOTH",
"116 924 OFFCURVE",
"98 904 OFFCURVE",
"98 852 CURVE SMOOTH",
"98 800 OFFCURVE",
"116 780 OFFCURVE",
"161 780 CURVE SMOOTH",
"248 780 LINE",
"248 55 LINE SMOOTH",
"248 9 OFFCURVE",
"266 -10 OFFCURVE",
"322 -10 CURVE SMOOTH",
"324 -10 LINE SMOOTH",
"380 -10 OFFCURVE",
"398 9 OFFCURVE",
"398 55 CURVE SMOOTH",
"398 780 LINE",
"830 780 LINE",
"830 55 LINE SMOOTH",
"830 9 OFFCURVE",
"848 -10 OFFCURVE",
"904 -10 CURVE SMOOTH",
"906 -10 LINE SMOOTH",
"962 -10 OFFCURVE",
"980 9 OFFCURVE",
"980 55 CURVE SMOOTH",
"980 780 LINE",
"1067 780 LINE SMOOTH",
"1112 780 OFFCURVE",
"1130 800 OFFCURVE",
"1130 852 CURVE SMOOTH",
"1130 904 OFFCURVE",
"1112 924 OFFCURVE",
"1067 924 CURVE SMOOTH"
);
}
);
width = 1228;
},
{
layerId = "8538028E-5D6C-4318-9676-30148CDA39CA";
paths = (
{
closed = 1;
nodes = (
"133 924 LINE SMOOTH",
"88 924 OFFCURVE",
"70 901 OFFCURVE",
"70 811 CURVE SMOOTH",
"70 721 OFFCURVE",
"88 699 OFFCURVE",
"133 699 CURVE SMOOTH",
"216 699 LINE",
"216 63 LINE SMOOTH",
"216 18 OFFCURVE",
"234 0 OFFCURVE",
"279 0 CURVE SMOOTH",
"403 0 LINE SMOOTH",
"448 0 OFFCURVE",
"466 18 OFFCURVE",
"466 63 CURVE SMOOTH",
"466 699 LINE",
"762 699 LINE",
"762 63 LINE SMOOTH",
"762 18 OFFCURVE",
"780 0 OFFCURVE",
"825 0 CURVE SMOOTH",
"949 0 LINE SMOOTH",
"994 0 OFFCURVE",
"1012 18 OFFCURVE",
"1012 63 CURVE SMOOTH",
"1012 699 LINE",
"1095 699 LINE SMOOTH",
"1140 699 OFFCURVE",
"1158 721 OFFCURVE",
"1158 811 CURVE SMOOTH",
"1158 901 OFFCURVE",
"1140 924 OFFCURVE",
"1095 924 CURVE SMOOTH"
);
}
);
width = 1228;
}
);
unicode = 03C0;
}
{
glyphname = question;
layers = (
{
layerId = UUID0;
paths = (
{
closed = 1;
nodes = (
"496 1269 OFFCURVE",
"380 1239 OFFCURVE",
"279 1178 CURVE SMOOTH",
"261 1167 OFFCURVE",
"254 1150 OFFCURVE",
"254 1122 CURVE SMOOTH",
"254 995 LINE SMOOTH",
"254 949 OFFCURVE",
"273 930 OFFCURVE",
"329 930 CURVE SMOOTH",
"385 930 OFFCURVE",
"404 949 OFFCURVE",
"404 995 CURVE SMOOTH",
"404 1084 LINE",
"466 1110 OFFCURVE",
"538 1121 OFFCURVE",
"619 1121 CURVE SMOOTH",
"744 1121 OFFCURVE",
"812 1053 OFFCURVE",
"812 956 CURVE SMOOTH",
"812 856 OFFCURVE",
"746 806 OFFCURVE",
"594 744 CURVE SMOOTH",
"525 716 LINE SMOOTH",
"502 707 OFFCURVE",
"493 691 OFFCURVE",
"495 665 CURVE SMOOTH",
"508 467 LINE SMOOTH",
"510 436 OFFCURVE",
"532 419 OFFCURVE",
"574 419 CURVE SMOOTH",
"616 419 OFFCURVE",
"637 436 OFFCURVE",
"640 467 CURVE SMOOTH",
"653 611 LINE",
"859 695 OFFCURVE",
"966 780 OFFCURVE",
"966 956 CURVE SMOOTH",
"966 1141 OFFCURVE",
"838 1269 OFFCURVE",
"618 1269 CURVE SMOOTH"
);
},
{
closed = 1;
nodes = (
"493 230 OFFCURVE",
"459 212 OFFCURVE",
"459 167 CURVE SMOOTH",
"459 53 LINE SMOOTH",
"459 8 OFFCURVE",
"493 -10 OFFCURVE",
"574 -10 CURVE SMOOTH",
"655 -10 OFFCURVE",
"689 8 OFFCURVE",
"689 53 CURVE SMOOTH",
"689 167 LINE SMOOTH",
"689 212 OFFCURVE",
"655 230 OFFCURVE",
"574 230 CURVE SMOOTH"
);
}
);
width = 1228;
},
{
layerId = "8538028E-5D6C-4318-9676-30148CDA39CA";
paths = (
{
closed = 1;
nodes = (
"477 1269 OFFCURVE",
"359 1233 OFFCURVE",
"249 1181 CURVE SMOOTH",
"222 1168 OFFCURVE",
"208 1147 OFFCURVE",
"208 1120 CURVE SMOOTH",
"208 930 LINE SMOOTH",
"208 885 OFFCURVE",
"245 867 OFFCURVE",
"330 867 CURVE SMOOTH",
"415 867 OFFCURVE",
"438 885 OFFCURVE",
"438 930 CURVE SMOOTH",
"438 1022 LINE",
"485 1040 OFFCURVE",
"537 1052 OFFCURVE",
"591 1052 CURVE SMOOTH",
"693 1052 OFFCURVE",
"747 1005 OFFCURVE",
"747 914 CURVE SMOOTH",
"747 831 OFFCURVE",
"700 785 OFFCURVE",
"605 767 CURVE SMOOTH",
"502 747 LINE SMOOTH",
"477 742 OFFCURVE",
"470 722 OFFCURVE",
"471 696 CURVE SMOOTH",
"483 487 LINE SMOOTH",
"485 456 OFFCURVE",
"507 439 OFFCURVE",
"584 439 CURVE SMOOTH",
"661 439 OFFCURVE",
"683 456 OFFCURVE",
"685 487 CURVE SMOOTH",
"691 573 LINE",
"891 628 OFFCURVE",
"998 723 OFFCURVE",
"998 914 CURVE SMOOTH",
"998 1134 OFFCURVE",
"861 1269 OFFCURVE",
"600 1269 CURVE SMOOTH"
);
},
{
closed = 1;
nodes = (
"482 290 OFFCURVE",
"439 272 OFFCURVE",
"439 227 CURVE SMOOTH",
"439 53 LINE SMOOTH",
"439 8 OFFCURVE",
"482 -10 OFFCURVE",
"584 -10 CURVE SMOOTH",
"686 -10 OFFCURVE",
"729 8 OFFCURVE",
"729 53 CURVE SMOOTH",
"729 227 LINE SMOOTH",
"729 272 OFFCURVE",
"686 290 OFFCURVE",
"584 290 CURVE SMOOTH"
);
}
);
width = 1228;
}
);
unicode = 003F;
}
{
glyphname = K;
layers = (
{
layerId = UUID0;
paths = (
{
closed = 1;
nodes = (
"771 1187 LINE SMOOTH",
"726 1187 OFFCURVE",
"708 1169 OFFCURVE",
"708 1119 CURVE SMOOTH",
"708 1069 OFFCURVE",
"726 1051 OFFCURVE",
"771 1051 CURVE SMOOTH",
"843 1051 LINE",
"405 622 LINE",
"405 1051 LINE",
"497 1051 LINE SMOOTH",
"542 1051 OFFCURVE",
"560 1069 OFFCURVE",
"560 1119 CURVE SMOOTH",
"560 1169 OFFCURVE",
"542 1187 OFFCURVE",
"497 1187 CURVE SMOOTH",
"143 1187 LINE SMOOTH",
"98 1187 OFFCURVE",
"80 1169 OFFCURVE",
"80 1119 CURVE SMOOTH",
"80 1069 OFFCURVE",
"98 1051 OFFCURVE",
"143 1051 CURVE SMOOTH",
"255 1051 LINE",
"255 136 LINE",
"143 136 LINE SMOOTH",
"98 136 OFFCURVE",
"80 118 OFFCURVE",
"80 68 CURVE SMOOTH",
"80 18 OFFCURVE",
"98 0 OFFCURVE",
"143 0 CURVE SMOOTH",
"567 0 LINE SMOOTH",
"612 0 OFFCURVE",
"630 18 OFFCURVE",
"630 68 CURVE SMOOTH",
"630 118 OFFCURVE",
"612 136 OFFCURVE",
"567 136 CURVE SMOOTH",
"405 136 LINE",
"405 436 LINE",
"435 465 LINE SMOOTH",
"476 505 OFFCURVE",
"531 524 OFFCURVE",
"585 524 CURVE SMOOTH",
"646 524 OFFCURVE",
"696 500 OFFCURVE",
"728 454 CURVE SMOOTH",
"786 371 OFFCURVE",
"817 245 OFFCURVE",
"871 139 CURVE SMOOTH",
"923 37 OFFCURVE",
"984 0 OFFCURVE",
"1043 0 CURVE SMOOTH",
"1125 0 LINE SMOOTH",
"1170 0 OFFCURVE",
"1188 18 OFFCURVE",
"1188 68 CURVE SMOOTH",
"1188 118 OFFCURVE",
"1170 136 OFFCURVE",
"1125 136 CURVE SMOOTH",
"1097 136 LINE SMOOTH",
"1059 136 OFFCURVE",
"1031 164 OFFCURVE",
"1007 208 CURVE SMOOTH",
"958 297 OFFCURVE",
"924 449 OFFCURVE",
"848 547 CURVE SMOOTH",
"786 626 OFFCURVE",
"705 652 OFFCURVE",
"615 646 CURVE",
"1034 1051 LINE",
"1095 1051 LINE SMOOTH",
"1140 1051 OFFCURVE",
"1158 1069 OFFCURVE",
"1158 1119 CURVE SMOOTH",
"1158 1169 OFFCURVE",
"1140 1187 OFFCURVE",
"1095 1187 CURVE SMOOTH"
);
}
);
width = 1228;
},
{
layerId = "8538028E-5D6C-4318-9676-30148CDA39CA";
paths = (
{
closed = 1;
nodes = (
"741 1187 LINE SMOOTH",
"696 1187 OFFCURVE",
"678 1169 OFFCURVE",
"678 1084 CURVE SMOOTH",
"678 999 OFFCURVE",
"696 982 OFFCURVE",
"741 982 CURVE SMOOTH",
"794 982 LINE",
"470 662 LINE",
"470 982 LINE",
"517 982 LINE SMOOTH",
"562 982 OFFCURVE",
"580 999 OFFCURVE",
"580 1084 CURVE SMOOTH",
"580 1169 OFFCURVE",
"562 1187 OFFCURVE",
"517 1187 CURVE SMOOTH",
"113 1187 LINE SMOOTH",
"68 1187 OFFCURVE",
"50 1169 OFFCURVE",
"50 1084 CURVE SMOOTH",
"50 999 OFFCURVE",
"68 982 OFFCURVE",
"113 982 CURVE SMOOTH",
"220 982 LINE",
"220 205 LINE",
"113 205 LINE SMOOTH",
"68 205 OFFCURVE",
"50 187 OFFCURVE",
"50 102 CURVE SMOOTH",
"50 17 OFFCURVE",
"68 0 OFFCURVE",
"113 0 CURVE SMOOTH",
"585 0 LINE SMOOTH",
"630 0 OFFCURVE",
"648 17 OFFCURVE",
"648 102 CURVE SMOOTH",
"648 187 OFFCURVE",
"630 205 OFFCURVE",
"585 205 CURVE SMOOTH",
"470 205 LINE",
"470 381 LINE",
"521 431 LINE SMOOTH",
"545 454 OFFCURVE",
"572 465 OFFCURVE",
"600 465 CURVE SMOOTH",
"646 465 OFFCURVE",
"690 432 OFFCURVE",
"724 381 CURVE SMOOTH",
"766 317 OFFCURVE",
"802 221 OFFCURVE",
"844 142 CURVE SMOOTH",
"885 65 OFFCURVE",
"937 0 OFFCURVE",
"1026 0 CURVE SMOOTH",
"1165 0 LINE SMOOTH",
"1210 0 OFFCURVE",
"1228 17 OFFCURVE",
"1228 102 CURVE SMOOTH",
"1228 187 OFFCURVE",
"1210 205 OFFCURVE",
"1165 205 CURVE SMOOTH",
"1155 205 LINE SMOOTH",
"1112 205 OFFCURVE",
"1081 236 OFFCURVE",
"1054 282 CURVE SMOOTH",
"1011 354 OFFCURVE",
"977 453 OFFCURVE",
"919 535 CURVE SMOOTH",
"875 598 OFFCURVE",
"813 637 OFFCURVE",
"737 641 CURVE",
"1087 982 LINE",
"1130 982 LINE SMOOTH",
"1175 982 OFFCURVE",
"1193 999 OFFCURVE",
"1193 1084 CURVE SMOOTH",
"1193 1169 OFFCURVE",
"1175 1187 OFFCURVE",
"1130 1187 CURVE SMOOTH"
);
}
);
width = 1228;
}
);
unicode = 004B;
}
{
glyphname = M;
layers = (
{
layerId = UUID0;
paths = (
{
closed = 1;
nodes = (
"894 1187 LINE SMOOTH",
"862 1187 OFFCURVE",
"843 1177 OFFCURVE",
"835 1154 CURVE SMOOTH",
"614 545 LINE",
"392 1154 LINE SMOOTH",
"384 1177 OFFCURVE",
"366 1187 OFFCURVE",
"334 1187 CURVE SMOOTH",
"123 1187 LINE SMOOTH",
"78 1187 OFFCURVE",
"60 1169 OFFCURVE",
"60 1119 CURVE SMOOTH",
"60 1069 OFFCURVE",
"78 1051 OFFCURVE",
"123 1051 CURVE SMOOTH",
"172 1051 LINE",
"147 136 LINE",
"93 136 LINE SMOOTH",
"48 136 OFFCURVE",
"30 118 OFFCURVE",
"30 68 CURVE SMOOTH",
"30 18 OFFCURVE",
"48 0 OFFCURVE",
"93 0 CURVE SMOOTH",
"407 0 LINE SMOOTH",
"452 0 OFFCURVE",
"470 18 OFFCURVE",
"470 68 CURVE SMOOTH",
"470 118 OFFCURVE",
"452 136 OFFCURVE",
"407 136 CURVE SMOOTH",
"296 136 LINE",
"317 955 LINE",
"522 385 LINE SMOOTH",
"539 338 OFFCURVE",
"567 320 OFFCURVE",
"614 320 CURVE SMOOTH",
"661 320 OFFCURVE",
"689 338 OFFCURVE",
"706 385 CURVE SMOOTH",
"910 955 LINE",
"932 136 LINE",
"821 136 LINE SMOOTH",
"776 136 OFFCURVE",
"758 118 OFFCURVE",
"758 68 CURVE SMOOTH",
"758 18 OFFCURVE",
"776 0 OFFCURVE",
"821 0 CURVE SMOOTH",
"1135 0 LINE SMOOTH",
"1180 0 OFFCURVE",
"1198 18 OFFCURVE",
"1198 68 CURVE SMOOTH",
"1198 118 OFFCURVE",
"1180 136 OFFCURVE",
"1135 136 CURVE SMOOTH",
"1081 136 LINE",
"1055 1051 LINE",
"1105 1051 LINE SMOOTH",
"1150 1051 OFFCURVE",
"1168 1069 OFFCURVE",
"1168 1119 CURVE SMOOTH",
"1168 1169 OFFCURVE",
"1150 1187 OFFCURVE",
"1105 1187 CURVE SMOOTH"
);
}
);
width = 1228;
},
{
layerId = "8538028E-5D6C-4318-9676-30148CDA39CA";
paths = (
{
closed = 1;
nodes = (
"850 1187 LINE SMOOTH",
"823 1187 OFFCURVE",
"805 1180 OFFCURVE",
"796 1156 CURVE SMOOTH",
"614 665 LINE",
"431 1156 LINE SMOOTH",
"422 1180 OFFCURVE",
"404 1187 OFFCURVE",
"377 1187 CURVE SMOOTH",
"93 1187 LINE SMOOTH",
"48 1187 OFFCURVE",
"30 1169 OFFCURVE",
"30 1084 CURVE SMOOTH",
"30 999 OFFCURVE",
"48 982 OFFCURVE",
"93 982 CURVE SMOOTH",
"147 982 LINE",
"132 205 LINE",
"73 205 LINE SMOOTH",
"28 205 OFFCURVE",
"10 187 OFFCURVE",
"10 102 CURVE SMOOTH",
"10 17 OFFCURVE",
"28 0 OFFCURVE",
"73 0 CURVE SMOOTH",
"447 0 LINE SMOOTH",
"492 0 OFFCURVE",
"510 17 OFFCURVE",
"510 102 CURVE SMOOTH",
"510 187 OFFCURVE",
"492 205 OFFCURVE",
"447 205 CURVE SMOOTH",
"354 205 LINE",
"360 794 LINE",
"512 389 LINE SMOOTH",
"530 343 OFFCURVE",
"558 325 OFFCURVE",
"615 325 CURVE SMOOTH",
"672 325 OFFCURVE",
"699 343 OFFCURVE",
"716 389 CURVE SMOOTH",
"867 797 LINE",
"873 205 LINE",
"781 205 LINE SMOOTH",
"736 205 OFFCURVE",
"718 187 OFFCURVE",
"718 102 CURVE SMOOTH",
"718 17 OFFCURVE",
"736 0 OFFCURVE",
"781 0 CURVE SMOOTH",
"1155 0 LINE SMOOTH",
"1200 0 OFFCURVE",
"1218 17 OFFCURVE",
"1218 102 CURVE SMOOTH",
"1218 187 OFFCURVE",
"1200 205 OFFCURVE",
"1155 205 CURVE SMOOTH",
"1095 205 LINE",
"1081 982 LINE",
"1135 982 LINE SMOOTH",
"1180 982 OFFCURVE",
"1198 999 OFFCURVE",
"1198 1084 CURVE SMOOTH",
"1198 1169 OFFCURVE",
"1180 1187 OFFCURVE",
"1135 1187 CURVE SMOOTH"
);
}
);
width = 1228;
}
);
unicode = 004D;
}
{
glyphname = N;
layers = (
{
layerId = UUID0;
paths = (
{
closed = 1;
nodes = (
"771 1187 LINE SMOOTH",
"726 1187 OFFCURVE",
"708 1169 OFFCURVE",
"708 1119 CURVE SMOOTH",
"708 1069 OFFCURVE",
"726 1051 OFFCURVE",
"771 1051 CURVE SMOOTH",
"892 1051 LINE",
"892 311 LINE",
"888 311 LINE",
"414 1159 LINE SMOOTH",
"403 1178 OFFCURVE",
"386 1187 OFFCURVE",
"357 1187 CURVE SMOOTH",
"133 1187 LINE SMOOTH",
"88 1187 OFFCURVE",
"70 1169 OFFCURVE",
"70 1119 CURVE SMOOTH",
"70 1069 OFFCURVE",
"88 1051 OFFCURVE",
"133 1051 CURVE SMOOTH",
"210 1051 LINE",
"210 136 LINE",
"143 136 LINE SMOOTH",
"98 136 OFFCURVE",
"80 118 OFFCURVE",
"80 68 CURVE SMOOTH",
"80 18 OFFCURVE",
"98 0 OFFCURVE",
"143 0 CURVE SMOOTH",
"497 0 LINE SMOOTH",
"542 0 OFFCURVE",
"560 18 OFFCURVE",
"560 68 CURVE SMOOTH",
"560 118 OFFCURVE",
"542 136 OFFCURVE",
"497 136 CURVE SMOOTH",
"356 136 LINE",
"356 960 LINE",
"360 960 LINE",
"879 33 LINE SMOOTH",
"899 -2 OFFCURVE",
"925 -22 OFFCURVE",
"963 -22 CURVE SMOOTH",
"1015 -22 OFFCURVE",
"1038 2 OFFCURVE",
"1038 37 CURVE SMOOTH",
"1038 1051 LINE",
"1095 1051 LINE SMOOTH",
"1140 1051 OFFCURVE",
"1158 1069 OFFCURVE",
"1158 1119 CURVE SMOOTH",
"1158 1169 OFFCURVE",
"1140 1187 OFFCURVE",
"1095 1187 CURVE SMOOTH"
);
}
);
width = 1228;
},
{
layerId = "8538028E-5D6C-4318-9676-30148CDA39CA";
paths = (
{
closed = 1;
nodes = (
"760 1187 LINE SMOOTH",
"715 1187 OFFCURVE",
"697 1169 OFFCURVE",
"697 1084 CURVE SMOOTH",
"697 999 OFFCURVE",
"715 982 OFFCURVE",
"760 982 CURVE SMOOTH",
"852 982 LINE",
"852 473 LINE",
"848 473 LINE",
"433 1160 LINE SMOOTH",
"421 1180 OFFCURVE",
"402 1187 OFFCURVE",
"377 1187 CURVE SMOOTH",
"113 1187 LINE SMOOTH",
"68 1187 OFFCURVE",
"50 1169 OFFCURVE",
"50 1084 CURVE SMOOTH",
"50 999 OFFCURVE",
"68 982 OFFCURVE",
"113 982 CURVE SMOOTH",
"180 982 LINE",
"180 205 LINE",
"113 205 LINE SMOOTH",
"68 205 OFFCURVE",
"50 187 OFFCURVE",
"50 102 CURVE SMOOTH",
"50 17 OFFCURVE",
"68 0 OFFCURVE",
"113 0 CURVE SMOOTH",
"517 0 LINE SMOOTH",
"562 0 OFFCURVE",
"580 17 OFFCURVE",
"580 102 CURVE SMOOTH",
"580 187 OFFCURVE",
"562 205 OFFCURVE",
"517 205 CURVE SMOOTH",
"406 205 LINE",
"406 776 LINE",
"410 776 LINE",
"860 31 LINE SMOOTH",
"881 -3 OFFCURVE",
"903 -22 OFFCURVE",
"968 -22 CURVE SMOOTH",
"1052 -22 OFFCURVE",
"1078 2 OFFCURVE",
"1078 44 CURVE SMOOTH",
"1078 982 LINE",
"1135 982 LINE SMOOTH",
"1180 982 OFFCURVE",
"1198 999 OFFCURVE",
"1198 1084 CURVE SMOOTH",
"1198 1169 OFFCURVE",
"1180 1187 OFFCURVE",
"1135 1187 CURVE SMOOTH"
);
}
);
width = 1228;
}
);
unicode = 004E;
}
{
glyphname = k;
layers = (
{
layerId = UUID0;
paths = (
{
closed = 1;
nodes = (
"130 1312 LINE SMOOTH",
"85 1312 OFFCURVE",
"67 1294 OFFCURVE",
"67 1244 CURVE SMOOTH",
"67 1194 OFFCURVE",
"85 1176 OFFCURVE",
"130 1176 CURVE SMOOTH",
"261 1176 LINE",
"261 136 LINE",
"150 136 LINE SMOOTH",
"105 136 OFFCURVE",
"87 118 OFFCURVE",
"87 68 CURVE SMOOTH",
"87 18 OFFCURVE",
"105 0 OFFCURVE",
"150 0 CURVE SMOOTH",
"484 0 LINE SMOOTH",
"529 0 OFFCURVE",
"547 18 OFFCURVE",
"547 68 CURVE SMOOTH",
"547 118 OFFCURVE",
"529 136 OFFCURVE",
"484 136 CURVE SMOOTH",
"411 136 LINE",
"411 1244 LINE SMOOTH",
"411 1294 OFFCURVE",
"393 1312 OFFCURVE",
"348 1312 CURVE SMOOTH"
);
},
{
closed = 1;
nodes = (
"804 799 LINE",
"399 441 LINE",
"399 263 LINE",
"605 445 LINE",
"690 518 LINE",
"1008 799 LINE"
);
},
{
closed = 1;
nodes = (
"721 924 LINE SMOOTH",
"676 924 OFFCURVE",
"658 906 OFFCURVE",
"658 856 CURVE SMOOTH",
"658 806 OFFCURVE",
"676 788 OFFCURVE",
"721 788 CURVE SMOOTH",
"1055 788 LINE SMOOTH",
"1100 788 OFFCURVE",
"1118 806 OFFCURVE",
"1118 856 CURVE SMOOTH",
"1118 906 OFFCURVE",
"1100 924 OFFCURVE",
"1055 924 CURVE SMOOTH"
);
},
{
closed = 1;
nodes = (
"583 446 LINE",
"932 31 LINE SMOOTH",
"951 9 OFFCURVE",
"975 0 OFFCURVE",
"1003 0 CURVE SMOOTH",
"1048 0 LINE",
"1048 124 LINE",
"692 541 LINE"
);
},
{
closed = 1;
nodes = (
"772 136 LINE SMOOTH",
"727 136 OFFCURVE",
"709 118 OFFCURVE",
"709 68 CURVE SMOOTH",
"709 18 OFFCURVE",
"727 0 OFFCURVE",
"772 0 CURVE SMOOTH",
"1096 0 LINE SMOOTH",
"1141 0 OFFCURVE",
"1159 18 OFFCURVE",
"1159 68 CURVE SMOOTH",
"1159 118 OFFCURVE",
"1141 136 OFFCURVE",
"1096 136 CURVE SMOOTH"
);
}
);
width = 1228;
},
{
layerId = "8538028E-5D6C-4318-9676-30148CDA39CA";
paths = (
{
closed = 1;
nodes = (
"120 1312 LINE SMOOTH",
"75 1312 OFFCURVE",
"57 1294 OFFCURVE",
"57 1209 CURVE SMOOTH",
"57 1124 OFFCURVE",
"75 1107 OFFCURVE",
"120 1107 CURVE SMOOTH",
"217 1107 LINE",
"217 205 LINE",
"140 205 LINE SMOOTH",
"95 205 OFFCURVE",
"77 187 OFFCURVE",
"77 102 CURVE SMOOTH",
"77 17 OFFCURVE",
"95 0 OFFCURVE",
"140 0 CURVE SMOOTH",
"554 0 LINE SMOOTH",
"599 0 OFFCURVE",
"617 17 OFFCURVE",
"617 102 CURVE SMOOTH",
"617 187 OFFCURVE",
"599 205 OFFCURVE",
"554 205 CURVE SMOOTH",
"467 205 LINE",
"467 1249 LINE SMOOTH",
"467 1294 OFFCURVE",
"449 1312 OFFCURVE",
"404 1312 CURVE SMOOTH"
);
},
{
closed = 1;
nodes = (
"739 749 LINE",
"455 517 LINE",
"454 275 LINE",
"618 400 LINE",
"790 528 LINE",
"1063 749 LINE"
);
},
{
closed = 1;
nodes = (
"677 924 LINE SMOOTH",
"632 924 OFFCURVE",
"614 906 OFFCURVE",
"614 831 CURVE SMOOTH",
"614 756 OFFCURVE",
"632 739 OFFCURVE",
"677 739 CURVE SMOOTH",
"1091 739 LINE SMOOTH",
"1136 739 OFFCURVE",
"1154 756 OFFCURVE",
"1154 831 CURVE SMOOTH",
"1154 906 OFFCURVE",
"1136 924 OFFCURVE",
"1091 924 CURVE SMOOTH"
);
},
{
closed = 1;
nodes = (
"596 403 LINE",
"857 40 LINE SMOOTH",
"877 11 OFFCURVE",
"904 0 OFFCURVE",
"935 0 CURVE SMOOTH",
"1088 0 LINE",
"1088 146 LINE",
"793 551 LINE"
);
},
{
closed = 1;
nodes = (
"972 205 LINE SMOOTH",
"927 205 OFFCURVE",
"909 187 OFFCURVE",
"909 102 CURVE SMOOTH",
"909 17 OFFCURVE",
"927 0 OFFCURVE",
"972 0 CURVE SMOOTH",
"1106 0 LINE SMOOTH",
"1151 0 OFFCURVE",
"1169 17 OFFCURVE",
"1169 102 CURVE SMOOTH",
"1169 187 OFFCURVE",
"1150 205 OFFCURVE",
"1106 205 CURVE SMOOTH"
);
}
);
width = 1228;
}
);
unicode = 006B;
}
{
glyphname = n;
layers = (
{
layerId = UUID0;
paths = (
{
closed = 1;
nodes = (
"591 946 OFFCURVE",
"470 872 OFFCURVE",
"382 736 CURVE",
"382 856 LINE SMOOTH",
"382 906 OFFCURVE",
"364 924 OFFCURVE",
"319 924 CURVE SMOOTH",
"140 924 LINE SMOOTH",
"95 924 OFFCURVE",
"77 906 OFFCURVE",
"77 856 CURVE SMOOTH",
"77 806 OFFCURVE",
"95 788 OFFCURVE",
"140 788 CURVE SMOOTH",
"242 788 LINE",
"242 136 LINE",
"160 136 LINE SMOOTH",
"115 136 OFFCURVE",
"97 118 OFFCURVE",
"97 68 CURVE SMOOTH",
"97 18 OFFCURVE",
"115 0 OFFCURVE",
"160 0 CURVE SMOOTH",
"484 0 LINE SMOOTH",
"529 0 OFFCURVE",
"547 18 OFFCURVE",
"547 68 CURVE SMOOTH",
"547 118 OFFCURVE",
"529 136 OFFCURVE",
"484 136 CURVE SMOOTH",
"392 136 LINE",
"392 422 LINE SMOOTH",
"392 640 OFFCURVE",
"541 798 OFFCURVE",
"712 798 CURVE SMOOTH",
"821 798 OFFCURVE",
"874 720 OFFCURVE",
"874 605 CURVE SMOOTH",
"874 136 LINE",
"782 136 LINE SMOOTH",
"737 136 OFFCURVE",
"719 118 OFFCURVE",
"719 68 CURVE SMOOTH",
"719 18 OFFCURVE",
"737 0 OFFCURVE",
"782 0 CURVE SMOOTH",
"1106 0 LINE SMOOTH",
"1151 0 OFFCURVE",
"1169 18 OFFCURVE",
"1169 68 CURVE SMOOTH",
"1169 118 OFFCURVE",
"1151 136 OFFCURVE",
"1106 136 CURVE SMOOTH",
"1024 136 LINE",
"1024 620 LINE SMOOTH",
"1024 820 OFFCURVE",
"911 946 OFFCURVE",
"727 946 CURVE SMOOTH"
);
}
);
width = 1228;
},
{
layerId = "8538028E-5D6C-4318-9676-30148CDA39CA";
paths = (
{
closed = 1;
nodes = (
"632 946 OFFCURVE",
"520 878 OFFCURVE",
"427 716 CURVE",
"427 861 LINE SMOOTH",
"427 906 OFFCURVE",
"409 924 OFFCURVE",
"364 924 CURVE SMOOTH",
"120 924 LINE SMOOTH",
"75 924 OFFCURVE",
"57 906 OFFCURVE",
"57 821 CURVE SMOOTH",
"57 736 OFFCURVE",
"75 719 OFFCURVE",
"120 719 CURVE SMOOTH",
"217 719 LINE",
"217 205 LINE",
"140 205 LINE SMOOTH",
"95 205 OFFCURVE",
"77 187 OFFCURVE",
"77 102 CURVE SMOOTH",
"77 17 OFFCURVE",
"95 0 OFFCURVE",
"140 0 CURVE SMOOTH",
"514 0 LINE SMOOTH",
"559 0 OFFCURVE",
"577 17 OFFCURVE",
"577 102 CURVE SMOOTH",
"577 187 OFFCURVE",
"559 205 OFFCURVE",
"514 205 CURVE SMOOTH",
"467 205 LINE",
"467 368 LINE SMOOTH",
"467 556 OFFCURVE",
"573 719 OFFCURVE",
"692 719 CURVE SMOOTH",
"780 719 OFFCURVE",
"809 659 OFFCURVE",
"809 561 CURVE SMOOTH",
"809 205 LINE",
"762 205 LINE SMOOTH",
"717 205 OFFCURVE",
"699 187 OFFCURVE",
"699 102 CURVE SMOOTH",
"699 17 OFFCURVE",
"717 0 OFFCURVE",
"762 0 CURVE SMOOTH",
"1136 0 LINE SMOOTH",
"1181 0 OFFCURVE",
"1199 17 OFFCURVE",
"1199 102 CURVE SMOOTH",
"1199 187 OFFCURVE",
"1181 205 OFFCURVE",
"1136 205 CURVE SMOOTH",
"1059 205 LINE",
"1059 620 LINE SMOOTH",
"1059 820 OFFCURVE",
"941 946 OFFCURVE",
"757 946 CURVE SMOOTH"
);
}
);
width = 1228;
}
);
unicode = 006E;
}
{
glyphname = o;
layers = (
{
layerId = UUID0;
paths = (
{
closed = 1;
nodes = (
"338 946 OFFCURVE",
"132 744 OFFCURVE",
"132 462 CURVE SMOOTH",
"132 180 OFFCURVE",
"338 -22 OFFCURVE",
"614 -22 CURVE SMOOTH",
"890 -22 OFFCURVE",
"1096 180 OFFCURVE",
"1096 462 CURVE SMOOTH",
"1096 744 OFFCURVE",
"890 946 OFFCURVE",
"614 946 CURVE SMOOTH"
);
},
{
closed = 1;
nodes = (
"810 798 OFFCURVE",
"938 659 OFFCURVE",
"938 462 CURVE SMOOTH",
"938 265 OFFCURVE",
"810 126 OFFCURVE",
"614 126 CURVE SMOOTH",
"418 126 OFFCURVE",
"290 265 OFFCURVE",
"290 462 CURVE SMOOTH",
"290 659 OFFCURVE",
"418 798 OFFCURVE",
"614 798 CURVE SMOOTH"
);
}
);
width = 1228;
},
{
layerId = "8538028E-5D6C-4318-9676-30148CDA39CA";
paths = (
{
closed = 1;
nodes = (
"305 946 OFFCURVE",
"111 742 OFFCURVE",
"111 462 CURVE SMOOTH",
"111 182 OFFCURVE",
"305 -22 OFFCURVE",
"614 -22 CURVE SMOOTH",
"923 -22 OFFCURVE",
"1117 182 OFFCURVE",
"1117 462 CURVE SMOOTH",
"1117 742 OFFCURVE",
"923 946 OFFCURVE",
"614 946 CURVE SMOOTH"
);
},
{
closed = 1;
nodes = (
"759 719 OFFCURVE",
"849 618 OFFCURVE",
"849 462 CURVE SMOOTH",
"849 306 OFFCURVE",
"759 205 OFFCURVE",
"614 205 CURVE SMOOTH",
"469 205 OFFCURVE",
"379 306 OFFCURVE",
"379 462 CURVE SMOOTH",
"379 618 OFFCURVE",
"469 719 OFFCURVE",
"614 719 CURVE SMOOTH"
);
}
);
width = 1228;
}
);
unicode = 006F;
}
{
glyphname = asciitilde;
layers = (
{
layerId = UUID0;
paths = (
{
closed = 1;
nodes = (
"311 735 OFFCURVE",
"217 666 OFFCURVE",
"157 568 CURVE SMOOTH",
"142 543 OFFCURVE",
"151 514 OFFCURVE",
"182 491 CURVE SMOOTH",
"214 467 OFFCURVE",
"243 469 OFFCURVE",
"263 493 CURVE SMOOTH",
"309 548 OFFCURVE",
"359 577 OFFCURVE",
"418 577 CURVE SMOOTH",
"541 577 OFFCURVE",
"647 429 OFFCURVE",
"810 429 CURVE SMOOTH",
"917 429 OFFCURVE",
"1011 498 OFFCURVE",
"1071 596 CURVE SMOOTH",
"1086 621 OFFCURVE",
"1077 650 OFFCURVE",
"1046 673 CURVE SMOOTH",
"1014 697 OFFCURVE",
"985 695 OFFCURVE",
"965 671 CURVE SMOOTH",
"919 616 OFFCURVE",
"869 587 OFFCURVE",
"810 587 CURVE SMOOTH",
"686 587 OFFCURVE",
"581 735 OFFCURVE",
"418 735 CURVE SMOOTH"
);
}
);
width = 1228;
},
{
layerId = "8538028E-5D6C-4318-9676-30148CDA39CA";
paths = (
{
closed = 1;
nodes = (
"307 765 OFFCURVE",
"218 703 OFFCURVE",
"142 590 CURVE SMOOTH",
"118 554 OFFCURVE",
"127 517 OFFCURVE",
"176 474 CURVE SMOOTH",
"225 431 OFFCURVE",
"262 426 OFFCURVE",
"290 456 CURVE SMOOTH",
"331 500 OFFCURVE",
"369 522 OFFCURVE",
"422 522 CURVE SMOOTH",
"535 522 OFFCURVE",
"647 396 OFFCURVE",
"798 396 CURVE SMOOTH",
"921 396 OFFCURVE",
"1010 458 OFFCURVE",
"1086 571 CURVE SMOOTH",
"1110 607 OFFCURVE",
"1101 644 OFFCURVE",
"1052 687 CURVE SMOOTH",
"1003 730 OFFCURVE",
"966 735 OFFCURVE",
"938 705 CURVE SMOOTH",
"897 661 OFFCURVE",
"859 639 OFFCURVE",
"806 639 CURVE SMOOTH",
"690 639 OFFCURVE",
"581 765 OFFCURVE",
"430 765 CURVE SMOOTH"
);
}
);
width = 1228;
}
);
unicode = 007E;
}
{
glyphname = braceleft;
layers = (
{
layerId = UUID0;
paths = (
{
closed = 1;
nodes = (
"648 1372 OFFCURVE",
"486 1240 OFFCURVE",
"505 959 CURVE SMOOTH",
"510 885 LINE SMOOTH",
"521 717 OFFCURVE",
"443 613 OFFCURVE",
"240 613 CURVE SMOOTH",
"195 613 OFFCURVE",
"177 593 OFFCURVE",
"177 541 CURVE SMOOTH",
"177 489 OFFCURVE",
"195 469 OFFCURVE",
"240 469 CURVE SMOOTH",
"453 469 OFFCURVE",
"531 376 OFFCURVE",
"516 203 CURVE SMOOTH",
"505 80 LINE SMOOTH",
"480 -201 OFFCURVE",
"648 -333 OFFCURVE",
"927 -333 CURVE SMOOTH",
"972 -333 OFFCURVE",
"990 -313 OFFCURVE",
"990 -261 CURVE SMOOTH",
"990 -209 OFFCURVE",
"972 -189 OFFCURVE",
"927 -189 CURVE SMOOTH",
"725 -189 OFFCURVE",
"642 -105 OFFCURVE",
"655 92 CURVE SMOOTH",
"663 213 LINE SMOOTH",
"674 374 OFFCURVE",
"609 481 OFFCURVE",
"425 536 CURVE",
"425 546 LINE",
"595 615 OFFCURVE",
"665 715 OFFCURVE",
"658 875 CURVE SMOOTH",
"655 947 LINE SMOOTH",
"647 1143 OFFCURVE",
"715 1228 OFFCURVE",
"927 1228 CURVE SMOOTH",
"972 1228 OFFCURVE",
"990 1248 OFFCURVE",
"990 1300 CURVE SMOOTH",
"990 1352 OFFCURVE",
"972 1372 OFFCURVE",
"927 1372 CURVE SMOOTH"
);
}
);
width = 1228;
},
{
layerId = "8538028E-5D6C-4318-9676-30148CDA39CA";
paths = (
{
closed = 1;
nodes = (
"575 1372 OFFCURVE",
"418 1241 OFFCURVE",
"444 959 CURVE SMOOTH",
"454 850 LINE SMOOTH",
"466 723 OFFCURVE",
"390 648 OFFCURVE",
"228 648 CURVE SMOOTH",
"183 648 OFFCURVE",
"165 631 OFFCURVE",
"165 542 CURVE SMOOTH",
"165 453 OFFCURVE",
"183 435 OFFCURVE",
"228 435 CURVE SMOOTH",
"390 435 OFFCURVE",
"470 361 OFFCURVE",
"458 233 CURVE SMOOTH",
"445 90 LINE SMOOTH",
"419 -201 OFFCURVE",
"575 -333 OFFCURVE",
"935 -333 CURVE SMOOTH",
"980 -333 OFFCURVE",
"998 -312 OFFCURVE",
"998 -227 CURVE SMOOTH",
"998 -134 OFFCURVE",
"980 -120 OFFCURVE",
"935 -120 CURVE SMOOTH",
"738 -120 OFFCURVE",
"683 -54 OFFCURVE",
"694 102 CURVE SMOOTH",
"703 233 LINE SMOOTH",
"713 379 OFFCURVE",
"652 486 OFFCURVE",
"470 537 CURVE",
"470 547 LINE",
"652 598 OFFCURVE",
"708 704 OFFCURVE",
"700 850 CURVE SMOOTH",
"695 947 LINE SMOOTH",
"687 1097 OFFCURVE",
"738 1159 OFFCURVE",
"935 1159 CURVE SMOOTH",
"980 1159 OFFCURVE",
"998 1174 OFFCURVE",
"998 1267 CURVE SMOOTH",
"998 1352 OFFCURVE",
"980 1372 OFFCURVE",
"935 1372 CURVE SMOOTH"
);
}
);
width = 1228;
}
);
unicode = 007B;
}
{
glyphname = dcaron;
layers = (
{
components = (
{
name = caron.alt;
transform = "{1, 0, 0, 1, 807, 0}";
}
);
layerId = UUID0;
paths = (
{
closed = 1;
nodes = (
"614 1312 LINE SMOOTH",
"569 1312 OFFCURVE",
"551 1294 OFFCURVE",
"551 1244 CURVE SMOOTH",
"551 1194 OFFCURVE",
"569 1176 OFFCURVE",
"614 1176 CURVE SMOOTH",
"776 1176 LINE",
"776 785 LINE",
"716 884 OFFCURVE",
"630 946 OFFCURVE",
"509 946 CURVE SMOOTH",
"292 946 OFFCURVE",
"127 764 OFFCURVE",
"127 462 CURVE SMOOTH",
"127 160 OFFCURVE",
"292 -22 OFFCURVE",
"509 -22 CURVE SMOOTH",
"639 -22 OFFCURVE",
"726 46 OFFCURVE",
"786 143 CURVE",
"786 68 LINE SMOOTH",
"786 18 OFFCURVE",
"804 0 OFFCURVE",
"849 0 CURVE SMOOTH",
"1008 0 LINE SMOOTH",
"1053 0 OFFCURVE",
"1071 18 OFFCURVE",
"1071 68 CURVE SMOOTH",
"1071 118 OFFCURVE",
"1053 136 OFFCURVE",
"1008 136 CURVE SMOOTH",
"926 136 LINE",
"926 1244 LINE SMOOTH",
"926 1294 OFFCURVE",
"908 1312 OFFCURVE",
"863 1312 CURVE SMOOTH"
);
},
{
closed = 1;
nodes = (
"676 798 OFFCURVE",
"776 674 OFFCURVE",
"776 462 CURVE SMOOTH",
"776 250 OFFCURVE",
"676 126 OFFCURVE",
"519 126 CURVE SMOOTH",
"368 126 OFFCURVE",
"285 266 OFFCURVE",
"285 462 CURVE SMOOTH",
"285 658 OFFCURVE",
"368 798 OFFCURVE",
"519 798 CURVE SMOOTH"
);
}
);
width = 1228;
},
{
components = (
{
name = caron.alt;
transform = "{1, 0, 0, 1, 810, 0}";
}
);
layerId = "8538028E-5D6C-4318-9676-30148CDA39CA";
paths = (
{
closed = 1;
nodes = (
"524 1312 LINE SMOOTH",
"479 1312 OFFCURVE",
"461 1294 OFFCURVE",
"461 1209 CURVE SMOOTH",
"461 1124 OFFCURVE",
"479 1107 OFFCURVE",
"524 1107 CURVE SMOOTH",
"671 1107 LINE",
"671 827 LINE",
"614 902 OFFCURVE",
"553 946 OFFCURVE",
"458 946 CURVE SMOOTH",
"224 946 OFFCURVE",
"77 741 OFFCURVE",
"77 462 CURVE SMOOTH",
"77 183 OFFCURVE",
"224 -22 OFFCURVE",
"458 -22 CURVE SMOOTH",
"576 -22 OFFCURVE",
"652 36 OFFCURVE",
"711 137 CURVE",
"711 63 LINE SMOOTH",
"711 18 OFFCURVE",
"729 0 OFFCURVE",
"774 0 CURVE SMOOTH",
"1008 0 LINE SMOOTH",
"1053 0 OFFCURVE",
"1071 18 OFFCURVE",
"1071 103 CURVE SMOOTH",
"1071 188 OFFCURVE",
"1053 205 OFFCURVE",
"1008 205 CURVE SMOOTH",
"921 205 LINE",
"921 1249 LINE SMOOTH",
"921 1294 OFFCURVE",
"903 1312 OFFCURVE",
"858 1312 CURVE SMOOTH"
);
},
{
closed = 1;
nodes = (
"603 719 OFFCURVE",
"678 635 OFFCURVE",
"678 462 CURVE SMOOTH",
"678 290 OFFCURVE",
"603 205 OFFCURVE",
"498 205 CURVE SMOOTH",
"406 205 OFFCURVE",
"345 297 OFFCURVE",
"345 462 CURVE SMOOTH",
"345 627 OFFCURVE",
"406 719 OFFCURVE",
"498 719 CURVE SMOOTH"
);
}
);
width = 1228;
}
);
unicode = 010F;
}
{
color = 6;
glyphname = Ldot;
layers = (
{
layerId = UUID0;
paths = (
{
closed = 1;
nodes = (
"143 1187 LINE SMOOTH",
"98 1187 OFFCURVE",
"80 1169 OFFCURVE",
"80 1119 CURVE SMOOTH",
"80 1069 OFFCURVE",
"98 1051 OFFCURVE",
"143 1051 CURVE SMOOTH",
"305 1051 LINE",
"305 136 LINE",
"143 136 LINE SMOOTH",
"98 136 OFFCURVE",
"80 118 OFFCURVE",
"80 68 CURVE SMOOTH",
"80 18 OFFCURVE",
"98 0 OFFCURVE",
"143 0 CURVE SMOOTH",
"1037 0 LINE SMOOTH",
"1082 0 OFFCURVE",
"1100 18 OFFCURVE",
"1100 68 CURVE SMOOTH",
"1100 465 LINE SMOOTH",
"1100 511 OFFCURVE",
"1081 530 OFFCURVE",
"1025 530 CURVE SMOOTH",
"969 530 OFFCURVE",
"950 511 OFFCURVE",
"950 465 CURVE SMOOTH",
"950 136 LINE",
"455 136 LINE",
"455 1051 LINE",
"697 1051 LINE SMOOTH",
"742 1051 OFFCURVE",
"760 1069 OFFCURVE",
"760 1119 CURVE SMOOTH",
"760 1169 OFFCURVE",
"742 1187 OFFCURVE",
"697 1187 CURVE SMOOTH"
);
},
{
closed = 1;
nodes = (
"666 851 OFFCURVE",
"603 788 OFFCURVE",
"603 710 CURVE SMOOTH",
"603 632 OFFCURVE",
"666 569 OFFCURVE",
"744 569 CURVE SMOOTH",
"822 569 OFFCURVE",
"885 632 OFFCURVE",
"885 710 CURVE SMOOTH",
"885 788 OFFCURVE",
"822 851 OFFCURVE",
"744 851 CURVE SMOOTH"
);
}
);
width = 1228;
},
{
layerId = "8538028E-5D6C-4318-9676-30148CDA39CA";
paths = (
{
closed = 1;
nodes = (
"123 1187 LINE SMOOTH",
"78 1187 OFFCURVE",
"60 1169 OFFCURVE",
"60 1084 CURVE SMOOTH",
"60 999 OFFCURVE",
"78 982 OFFCURVE",
"123 982 CURVE SMOOTH",
"269 982 LINE",
"269 205 LINE",
"123 205 LINE SMOOTH",
"78 205 OFFCURVE",
"60 187 OFFCURVE",
"60 102 CURVE SMOOTH",
"60 17 OFFCURVE",
"78 0 OFFCURVE",
"123 0 CURVE SMOOTH",
"1055 0 LINE SMOOTH",
"1101 0 OFFCURVE",
"1120 19 OFFCURVE",
"1120 65 CURVE SMOOTH",
"1120 397 LINE SMOOTH",
"1120 442 OFFCURVE",
"1097 460 OFFCURVE",
"1002 460 CURVE SMOOTH",
"907 460 OFFCURVE",
"870 442 OFFCURVE",
"870 397 CURVE SMOOTH",
"870 215 LINE",
"519 215 LINE",
"519 982 LINE",
"737 982 LINE SMOOTH",
"782 982 OFFCURVE",
"800 999 OFFCURVE",
"800 1084 CURVE SMOOTH",
"800 1169 OFFCURVE",
"782 1187 OFFCURVE",
"737 1187 CURVE SMOOTH"
);
},
{
closed = 1;
nodes = (
"715 896 OFFCURVE",
"634 815 OFFCURVE",
"634 716 CURVE SMOOTH",
"634 617 OFFCURVE",
"715 536 OFFCURVE",
"814 536 CURVE SMOOTH",
"913 536 OFFCURVE",
"994 617 OFFCURVE",
"994 716 CURVE SMOOTH",
"994 815 OFFCURVE",
"913 896 OFFCURVE",
"814 896 CURVE SMOOTH"
);
}
);
width = 1228;
}
);
unicode = 013F;
}
{
color = 3;
glyphname = Eng;
layers = (
{
background = {
components = (
{
name = N;
}
);
paths = (
{
closed = 1;
nodes = (
"892 198 LINE",
"892 -107 LINE SMOOTH",
"892 -220 OFFCURVE",
"848 -264 OFFCURVE",
"766 -264 CURVE SMOOTH",
"706 -264 OFFCURVE",
"642 -246 OFFCURVE",
"589 -224 CURVE SMOOTH",
"560 -212 OFFCURVE",
"529 -212 OFFCURVE",
"506 -265 CURVE SMOOTH",
"484 -315 OFFCURVE",
"496 -343 OFFCURVE",
"534 -360 CURVE SMOOTH",
"602 -390 OFFCURVE",
"685 -410 OFFCURVE",
"765 -410 CURVE SMOOTH",
"941 -410 OFFCURVE",
"1038 -314 OFFCURVE",
"1038 -135 CURVE SMOOTH",
"1038 198 LINE"
);
}
);
};
layerId = UUID0;
paths = (
{
closed = 1;
nodes = (
"771 1187 LINE SMOOTH",
"726 1187 OFFCURVE",
"708 1169 OFFCURVE",
"708 1119 CURVE SMOOTH",
"708 1069 OFFCURVE",
"726 1051 OFFCURVE",
"771 1051 CURVE SMOOTH",
"892 1051 LINE",
"892 311 LINE",
"888 311 LINE",
"414 1159 LINE SMOOTH",
"403 1178 OFFCURVE",
"386 1187 OFFCURVE",
"357 1187 CURVE SMOOTH",
"133 1187 LINE SMOOTH",
"88 1187 OFFCURVE",
"70 1169 OFFCURVE",
"70 1119 CURVE SMOOTH",
"70 1069 OFFCURVE",
"88 1051 OFFCURVE",
"133 1051 CURVE SMOOTH",
"210 1051 LINE",
"210 136 LINE",
"143 136 LINE SMOOTH",
"98 136 OFFCURVE",
"80 118 OFFCURVE",
"80 68 CURVE SMOOTH",
"80 18 OFFCURVE",
"98 0 OFFCURVE",
"143 0 CURVE SMOOTH",
"497 0 LINE SMOOTH",
"542 0 OFFCURVE",
"560 18 OFFCURVE",
"560 68 CURVE SMOOTH",
"560 118 OFFCURVE",
"542 136 OFFCURVE",
"497 136 CURVE SMOOTH",
"356 136 LINE",
"356 960 LINE",
"360 960 LINE",
"892 10 LINE",
"892 -107 LINE SMOOTH",
"892 -220 OFFCURVE",
"848 -264 OFFCURVE",
"766 -264 CURVE SMOOTH",
"706 -264 OFFCURVE",
"642 -246 OFFCURVE",
"589 -224 CURVE SMOOTH",
"560 -212 OFFCURVE",
"529 -212 OFFCURVE",
"506 -265 CURVE SMOOTH",
"484 -315 OFFCURVE",
"496 -343 OFFCURVE",
"534 -360 CURVE SMOOTH",
"602 -390 OFFCURVE",
"685 -410 OFFCURVE",
"765 -410 CURVE SMOOTH",
"941 -410 OFFCURVE",
"1038 -314 OFFCURVE",
"1038 -135 CURVE SMOOTH",
"1038 1051 LINE",
"1095 1051 LINE SMOOTH",
"1140 1051 OFFCURVE",
"1158 1069 OFFCURVE",
"1158 1119 CURVE SMOOTH",
"1158 1169 OFFCURVE",
"1140 1187 OFFCURVE",
"1095 1187 CURVE SMOOTH"
);
}
);
width = 1228;
},
{
background = {
components = (
{
name = N;
}
);
paths = (
{
closed = 1;
nodes = (
"838 336 LINE",
"838 -39 LINE SMOOTH",
"838 -135 OFFCURVE",
"794 -173 OFFCURVE",
"709 -173 CURVE SMOOTH",
"672 -173 OFFCURVE",
"616 -162 OFFCURVE",
"568 -147 CURVE SMOOTH",
"527 -134 OFFCURVE",
"495 -153 OFFCURVE",
"474 -235 CURVE SMOOTH",
"453 -319 OFFCURVE",
"463 -353 OFFCURVE",
"507 -370 CURVE SMOOTH",
"575 -396 OFFCURVE",
"651 -410 OFFCURVE",
"716 -410 CURVE SMOOTH",
"955 -410 OFFCURVE",
"1078 -292 OFFCURVE",
"1078 -55 CURVE SMOOTH",
"1078 336 LINE"
);
}
);
};
layerId = "8538028E-5D6C-4318-9676-30148CDA39CA";
paths = (
{
closed = 1;
nodes = (
"760 1187 LINE SMOOTH",
"715 1187 OFFCURVE",
"697 1169 OFFCURVE",
"697 1084 CURVE SMOOTH",
"697 999 OFFCURVE",
"715 982 OFFCURVE",
"760 982 CURVE SMOOTH",
"852 982 LINE",
"852 473 LINE",
"848 473 LINE",
"433 1160 LINE SMOOTH",
"421 1180 OFFCURVE",
"402 1187 OFFCURVE",
"377 1187 CURVE SMOOTH",
"113 1187 LINE SMOOTH",
"68 1187 OFFCURVE",
"50 1169 OFFCURVE",
"50 1084 CURVE SMOOTH",
"50 999 OFFCURVE",
"68 982 OFFCURVE",
"113 982 CURVE SMOOTH",
"180 982 LINE",
"180 205 LINE",
"113 205 LINE SMOOTH",
"68 205 OFFCURVE",
"50 187 OFFCURVE",
"50 102 CURVE SMOOTH",
"50 17 OFFCURVE",
"68 0 OFFCURVE",
"113 0 CURVE SMOOTH",
"517 0 LINE SMOOTH",
"562 0 OFFCURVE",
"580 17 OFFCURVE",
"580 102 CURVE SMOOTH",
"580 187 OFFCURVE",
"562 205 OFFCURVE",
"517 205 CURVE SMOOTH",
"406 205 LINE",
"406 776 LINE",
"410 776 LINE",
"838 67.422 LINE",
"838 -39 LINE SMOOTH",
"838 -135 OFFCURVE",
"794 -173 OFFCURVE",
"709 -173 CURVE SMOOTH",
"672 -173 OFFCURVE",
"616 -162 OFFCURVE",
"568 -147 CURVE SMOOTH",
"527 -134 OFFCURVE",
"495 -153 OFFCURVE",
"474 -235 CURVE SMOOTH",
"453 -319 OFFCURVE",
"463 -353 OFFCURVE",
"507 -370 CURVE SMOOTH",
"575 -396 OFFCURVE",
"651 -410 OFFCURVE",
"716 -410 CURVE SMOOTH",
"955 -410 OFFCURVE",
"1078 -292 OFFCURVE",
"1078 -55 CURVE SMOOTH",
"1078 982 LINE",
"1135 982 LINE SMOOTH",
"1180 982 OFFCURVE",
"1198 999 OFFCURVE",
"1198 1084 CURVE SMOOTH",
"1198 1169 OFFCURVE",
"1180 1187 OFFCURVE",
"1135 1187 CURVE SMOOTH"
);
}
);
width = 1228;
}
);
unicode = 014A;
}
{
glyphname = franc;
layers = (
{
layerId = UUID0;
paths = (
{
closed = 1;
nodes = (
"143 1187 LINE SMOOTH",
"98 1187 OFFCURVE",
"80 1169 OFFCURVE",
"80 1119 CURVE SMOOTH",
"80 1069 OFFCURVE",
"98 1051 OFFCURVE",
"143 1051 CURVE SMOOTH",
"275 1051 LINE",
"275 136 LINE",
"143 136 LINE SMOOTH",
"98 136 OFFCURVE",
"80 118 OFFCURVE",
"80 68 CURVE SMOOTH",
"80 18 OFFCURVE",
"98 0 OFFCURVE",
"143 0 CURVE SMOOTH",
"657 0 LINE SMOOTH",
"702 0 OFFCURVE",
"720 18 OFFCURVE",
"720 68 CURVE SMOOTH",
"720 118 OFFCURVE",
"702 136 OFFCURVE",
"657 136 CURVE SMOOTH",
"425 136 LINE",
"425 564 LINE",
"770 564 LINE SMOOTH",
"815 564 OFFCURVE",
"833 582 OFFCURVE",
"833 632 CURVE SMOOTH",
"833 682 OFFCURVE",
"815 700 OFFCURVE",
"770 700 CURVE SMOOTH",
"425 700 LINE",
"425 1051 LINE",
"960 1051 LINE",
"960 855 LINE SMOOTH",
"960 809 OFFCURVE",
"979 790 OFFCURVE",
"1035 790 CURVE SMOOTH",
"1091 790 OFFCURVE",
"1110 809 OFFCURVE",
"1110 855 CURVE SMOOTH",
"1110 1119 LINE SMOOTH",
"1110 1169 OFFCURVE",
"1092 1187 OFFCURVE",
"1047 1187 CURVE SMOOTH"
);
},
{
closed = 1;
nodes = (
"103 420 LINE SMOOTH",
"58 420 OFFCURVE",
"40 402 OFFCURVE",
"40 352 CURVE SMOOTH",
"40 302 OFFCURVE",
"58 284 OFFCURVE",
"103 284 CURVE SMOOTH",
"865 284 LINE SMOOTH",
"910 284 OFFCURVE",
"928 302 OFFCURVE",
"928 352 CURVE SMOOTH",
"928 402 OFFCURVE",
"910 420 OFFCURVE",
"865 420 CURVE SMOOTH"
);
}
);
width = 1228;
},
{
layerId = "8538028E-5D6C-4318-9676-30148CDA39CA";
paths = (
{
closed = 1;
nodes = (
"123 1187 LINE SMOOTH",
"78 1187 OFFCURVE",
"60 1169 OFFCURVE",
"60 1084 CURVE SMOOTH",
"60 999 OFFCURVE",
"78 982 OFFCURVE",
"123 982 CURVE SMOOTH",
"250 982 LINE",
"250 205 LINE",
"123 205 LINE SMOOTH",
"78 205 OFFCURVE",
"60 187 OFFCURVE",
"60 102 CURVE SMOOTH",
"60 17 OFFCURVE",
"78 0 OFFCURVE",
"123 0 CURVE SMOOTH",
"717 0 LINE SMOOTH",
"762 0 OFFCURVE",
"780 17 OFFCURVE",
"780 102 CURVE SMOOTH",
"780 187 OFFCURVE",
"762 205 OFFCURVE",
"717 205 CURVE SMOOTH",
"500 205 LINE",
"500 512 LINE",
"804 512 LINE SMOOTH",
"849 512 OFFCURVE",
"867 534 OFFCURVE",
"867 619 CURVE SMOOTH",
"867 704 OFFCURVE",
"849 727 OFFCURVE",
"804 727 CURVE SMOOTH",
"500 727 LINE",
"500 972 LINE",
"890 972 LINE",
"890 870 LINE SMOOTH",
"890 825 OFFCURVE",
"913 807 OFFCURVE",
"998 807 CURVE SMOOTH",
"1083 807 OFFCURVE",
"1120 825 OFFCURVE",
"1120 870 CURVE SMOOTH",
"1120 1122 LINE SMOOTH",
"1120 1168 OFFCURVE",
"1101 1187 OFFCURVE",
"1055 1187 CURVE SMOOTH"
);
},
{
closed = 1;
nodes = (
"93 424 LINE SMOOTH",
"48 424 OFFCURVE",
"30 406 OFFCURVE",
"30 356 CURVE SMOOTH",
"30 306 OFFCURVE",
"48 288 OFFCURVE",
"93 288 CURVE SMOOTH",
"885 288 LINE SMOOTH",
"930 288 OFFCURVE",
"948 306 OFFCURVE",
"948 356 CURVE SMOOTH",
"948 406 OFFCURVE",
"930 424 OFFCURVE",
"885 424 CURVE SMOOTH"
);
}
);
width = 1228;
}
);
unicode = 20A3;
}
{
glyphname = lozenge;
layers = (
{
layerId = UUID0;
paths = (
{
closed = 1;
nodes = (
"557 1209 OFFCURVE",
"533 1188 OFFCURVE",
"508 1144 CURVE SMOOTH",
"213 623 LINE SMOOTH",
"202 603 OFFCURVE",
"202 583 OFFCURVE",
"213 563 CURVE SMOOTH",
"508 43 LINE SMOOTH",
"533 -1 OFFCURVE",
"557 -22 OFFCURVE",
"614 -22 CURVE SMOOTH",
"671 -22 OFFCURVE",
"695 -1 OFFCURVE",
"720 43 CURVE SMOOTH",
"1014 563 LINE SMOOTH",
"1025 583 OFFCURVE",
"1025 603 OFFCURVE",
"1014 623 CURVE SMOOTH",
"720 1144 LINE SMOOTH",
"695 1188 OFFCURVE",
"671 1209 OFFCURVE",
"614 1209 CURVE SMOOTH"
);
},
{
closed = 1;
nodes = (
"860 593 LINE",
"614 158 LINE",
"368 593 LINE",
"614 1029 LINE"
);
}
);
width = 1228;
},
{
layerId = "8538028E-5D6C-4318-9676-30148CDA39CA";
paths = (
{
closed = 1;
nodes = (
"542 1209 OFFCURVE",
"505 1191 OFFCURVE",
"478 1144 CURVE SMOOTH",
"183 623 LINE SMOOTH",
"172 603 OFFCURVE",
"172 583 OFFCURVE",
"183 563 CURVE SMOOTH",
"478 43 LINE SMOOTH",
"505 -4 OFFCURVE",
"542 -22 OFFCURVE",
"614 -22 CURVE SMOOTH",
"686 -22 OFFCURVE",
"724 -4 OFFCURVE",
"750 43 CURVE SMOOTH",
"1044 563 LINE SMOOTH",
"1055 583 OFFCURVE",
"1055 603 OFFCURVE",
"1044 623 CURVE SMOOTH",
"750 1144 LINE SMOOTH",
"724 1191 OFFCURVE",
"686 1209 OFFCURVE",
"614 1209 CURVE SMOOTH"
);
},
{
closed = 1;
nodes = (
"800 593 LINE",
"614 258 LINE",
"428 593 LINE",
"614 929 LINE"
);
}
);
width = 1228;
}
);
unicode = 25CA;
}
{
glyphname = percent;
layers = (
{
layerId = UUID0;
paths = (
{
closed = 1;
nodes = (
"129 229 LINE SMOOTH",
"96 198 OFFCURVE",
"98 167 OFFCURVE",
"130 134 CURVE SMOOTH",
"161 101 OFFCURVE",
"192 98 OFFCURVE",
"225 129 CURVE SMOOTH",
"1099 959 LINE SMOOTH",
"1132 990 OFFCURVE",
"1130 1021 OFFCURVE",
"1098 1054 CURVE SMOOTH",
"1067 1087 OFFCURVE",
"1036 1090 OFFCURVE",
"1003 1059 CURVE SMOOTH"
);
},
{
closed = 1;
nodes = (
"753 526 OFFCURVE",
"630 403 OFFCURVE",
"630 252 CURVE SMOOTH",
"630 101 OFFCURVE",
"753 -22 OFFCURVE",
"904 -22 CURVE SMOOTH",
"1055 -22 OFFCURVE",
"1178 101 OFFCURVE",
"1178 252 CURVE SMOOTH",
"1178 403 OFFCURVE",
"1055 526 OFFCURVE",
"904 526 CURVE SMOOTH"
);
},
{
closed = 1;
nodes = (
"983 396 OFFCURVE",
"1048 331 OFFCURVE",
"1048 252 CURVE SMOOTH",
"1048 173 OFFCURVE",
"983 108 OFFCURVE",
"904 108 CURVE SMOOTH",
"825 108 OFFCURVE",
"760 173 OFFCURVE",
"760 252 CURVE SMOOTH",
"760 331 OFFCURVE",
"825 396 OFFCURVE",
"904 396 CURVE SMOOTH"
);
},
{
closed = 1;
nodes = (
"173 1209 OFFCURVE",
"50 1086 OFFCURVE",
"50 935 CURVE SMOOTH",
"50 784 OFFCURVE",
"173 661 OFFCURVE",
"324 661 CURVE SMOOTH",
"475 661 OFFCURVE",
"598 784 OFFCURVE",
"598 935 CURVE SMOOTH",
"598 1086 OFFCURVE",
"475 1209 OFFCURVE",
"324 1209 CURVE SMOOTH"
);
},
{
closed = 1;
nodes = (
"403 1079 OFFCURVE",
"468 1014 OFFCURVE",
"468 935 CURVE SMOOTH",
"468 856 OFFCURVE",
"403 791 OFFCURVE",
"324 791 CURVE SMOOTH",
"245 791 OFFCURVE",
"180 856 OFFCURVE",
"180 935 CURVE SMOOTH",
"180 1014 OFFCURVE",
"245 1079 OFFCURVE",
"324 1079 CURVE SMOOTH"
);
}
);
width = 1228;
},
{
layerId = "8538028E-5D6C-4318-9676-30148CDA39CA";
paths = (
{
closed = 1;
nodes = (
"108 249 LINE SMOOTH",
"75 218 OFFCURVE",
"75 193 OFFCURVE",
"130 134 CURVE SMOOTH",
"185 75 OFFCURVE",
"210 75 OFFCURVE",
"243 106 CURVE SMOOTH",
"1120 940 LINE SMOOTH",
"1152 971 OFFCURVE",
"1154 996 OFFCURVE",
"1098 1054 CURVE SMOOTH",
"1042 1112 OFFCURVE",
"1017 1114 OFFCURVE",
"985 1083 CURVE SMOOTH"
);
},
{
closed = 1;
nodes = (
"753 526 OFFCURVE",
"630 403 OFFCURVE",
"630 252 CURVE SMOOTH",
"630 101 OFFCURVE",
"753 -22 OFFCURVE",
"904 -22 CURVE SMOOTH",
"1055 -22 OFFCURVE",
"1178 101 OFFCURVE",
"1178 252 CURVE SMOOTH",
"1178 403 OFFCURVE",
"1055 526 OFFCURVE",
"904 526 CURVE SMOOTH"
);
},
{
closed = 1;
nodes = (
"952 339 OFFCURVE",
"991 300 OFFCURVE",
"991 252 CURVE SMOOTH",
"991 204 OFFCURVE",
"952 165 OFFCURVE",
"904 165 CURVE SMOOTH",
"856 165 OFFCURVE",
"817 204 OFFCURVE",
"817 252 CURVE SMOOTH",
"817 300 OFFCURVE",
"856 339 OFFCURVE",
"904 339 CURVE SMOOTH"
);
},
{
closed = 1;
nodes = (
"173 1209 OFFCURVE",
"50 1086 OFFCURVE",
"50 935 CURVE SMOOTH",
"50 784 OFFCURVE",
"173 661 OFFCURVE",
"324 661 CURVE SMOOTH",
"475 661 OFFCURVE",
"598 784 OFFCURVE",
"598 935 CURVE SMOOTH",
"598 1086 OFFCURVE",
"475 1209 OFFCURVE",
"324 1209 CURVE SMOOTH"
);
},
{
closed = 1;
nodes = (
"372 1022 OFFCURVE",
"411 983 OFFCURVE",
"411 935 CURVE SMOOTH",
"411 887 OFFCURVE",
"372 848 OFFCURVE",
"324 848 CURVE SMOOTH",
"276 848 OFFCURVE",
"237 887 OFFCURVE",
"237 935 CURVE SMOOTH",
"237 983 OFFCURVE",
"276 1022 OFFCURVE",
"324 1022 CURVE SMOOTH"
);
}
);
width = 1228;
}
);
unicode = 0025;
}
{
glyphname = quotesingle;
layers = (
{
layerId = UUID0;
paths = (
{
closed = 1;
nodes = (
"532 1269 LINE SMOOTH",
"502 1269 OFFCURVE",
"487 1254 OFFCURVE",
"491 1219 CURVE SMOOTH",
"546 769 LINE SMOOTH",
"550 735 OFFCURVE",
"575 715 OFFCURVE",
"614 715 CURVE SMOOTH",
"654 715 OFFCURVE",
"678 735 OFFCURVE",
"682 769 CURVE SMOOTH",
"737 1219 LINE SMOOTH",
"741 1254 OFFCURVE",
"726 1269 OFFCURVE",
"696 1269 CURVE SMOOTH"
);
}
);
width = 1228;
},
{
layerId = "8538028E-5D6C-4318-9676-30148CDA39CA";
paths = (
{
closed = 1;
nodes = (
"489 1269 LINE SMOOTH",
"459 1269 OFFCURVE",
"443 1254 OFFCURVE",
"448 1219 CURVE SMOOTH",
"521 739 LINE SMOOTH",
"527 698 OFFCURVE",
"549 671 OFFCURVE",
"614 671 CURVE SMOOTH",
"679 671 OFFCURVE",
"701 698 OFFCURVE",
"707 739 CURVE SMOOTH",
"780 1219 LINE SMOOTH",
"785 1254 OFFCURVE",
"769 1269 OFFCURVE",
"739 1269 CURVE SMOOTH"
);
}
);
width = 1228;
}
);
unicode = 0027;
}
{
glyphname = one;
layers = (
{
layerId = UUID0;
paths = (
{
closed = 1;
nodes = (
"251 968 LINE SMOOTH",
"221 950 OFFCURVE",
"208 915 OFFCURVE",
"234 870 CURVE SMOOTH",
"261 823 OFFCURVE",
"294 823 OFFCURVE",
"320 839 CURVE SMOOTH",
"569 994 LINE",
"569 108 LINE",
"719 108 LINE",
"719 1157 LINE SMOOTH",
"719 1211 OFFCURVE",
"668 1224 OFFCURVE",
"628 1200 CURVE SMOOTH"
);
},
{
closed = 1;
nodes = (
"300 136 LINE SMOOTH",
"255 136 OFFCURVE",
"237 118 OFFCURVE",
"237 68 CURVE SMOOTH",
"237 18 OFFCURVE",
"255 0 OFFCURVE",
"300 0 CURVE SMOOTH",
"974 0 LINE SMOOTH",
"1019 0 OFFCURVE",
"1037 18 OFFCURVE",
"1037 68 CURVE SMOOTH",
"1037 118 OFFCURVE",
"1019 136 OFFCURVE",
"974 136 CURVE SMOOTH"
);
}
);
width = 1228;
},
{
layerId = "8538028E-5D6C-4318-9676-30148CDA39CA";
paths = (
{
closed = 1;
nodes = (
"225 958 LINE SMOOTH",
"184 935 OFFCURVE",
"171 902 OFFCURVE",
"206 825 CURVE SMOOTH",
"239 752 OFFCURVE",
"270 737 OFFCURVE",
"310 760 CURVE SMOOTH",
"519 879 LINE",
"519 165 LINE",
"769 165 LINE",
"769 1148 LINE SMOOTH",
"769 1214 OFFCURVE",
"702 1227 OFFCURVE",
"647 1196 CURVE SMOOTH"
);
},
{
closed = 1;
nodes = (
"273 205 LINE SMOOTH",
"228 205 OFFCURVE",
"210 187 OFFCURVE",
"210 102 CURVE SMOOTH",
"210 17 OFFCURVE",
"228 0 OFFCURVE",
"273 0 CURVE SMOOTH",
"1005 0 LINE SMOOTH",
"1050 0 OFFCURVE",
"1068 17 OFFCURVE",
"1068 102 CURVE SMOOTH",
"1068 187 OFFCURVE",
"1050 205 OFFCURVE",
"1005 205 CURVE SMOOTH"
);
}
);
width = 1228;
}
);
unicode = 0031;
}
{
glyphname = two;
layers = (
{
layerId = UUID0;
paths = (
{
closed = 1;
nodes = (
"457 1209 OFFCURVE",
"342 1166 OFFCURVE",
"247 1097 CURVE SMOOTH",
"231 1086 OFFCURVE",
"224 1069 OFFCURVE",
"224 1042 CURVE SMOOTH",
"224 895 LINE SMOOTH",
"224 849 OFFCURVE",
"243 830 OFFCURVE",
"299 830 CURVE SMOOTH",
"355 830 OFFCURVE",
"374 849 OFFCURVE",
"374 895 CURVE SMOOTH",
"374 1005 LINE",
"431 1038 OFFCURVE",
"500 1061 OFFCURVE",
"581 1061 CURVE SMOOTH",
"729 1061 OFFCURVE",
"809 981 OFFCURVE",
"809 859 CURVE SMOOTH",
"809 759 OFFCURVE",
"759 687 OFFCURVE",
"642 568 CURVE SMOOTH",
"202 122 LINE SMOOTH",
"192 111 OFFCURVE",
"187 94 OFFCURVE",
"187 68 CURVE SMOOTH",
"187 18 OFFCURVE",
"205 0 OFFCURVE",
"250 0 CURVE SMOOTH",
"944 0 LINE SMOOTH",
"989 0 OFFCURVE",
"1007 18 OFFCURVE",
"1007 68 CURVE SMOOTH",
"1007 262 LINE SMOOTH",
"1007 308 OFFCURVE",
"988 327 OFFCURVE",
"932 327 CURVE SMOOTH",
"876 327 OFFCURVE",
"857 308 OFFCURVE",
"857 262 CURVE SMOOTH",
"857 136 LINE",
"423 136 LINE",
"759 477 LINE SMOOTH",
"888 608 OFFCURVE",
"967 714 OFFCURVE",
"967 859 CURVE SMOOTH",
"967 1080 OFFCURVE",
"813 1209 OFFCURVE",
"580 1209 CURVE SMOOTH"
);
}
);
width = 1228;
},
{
layerId = "8538028E-5D6C-4318-9676-30148CDA39CA";
paths = (
{
closed = 1;
nodes = (
"488 1209 OFFCURVE",
"362 1177 OFFCURVE",
"241 1111 CURVE SMOOTH",
"213 1096 OFFCURVE",
"198 1075 OFFCURVE",
"198 1047 CURVE SMOOTH",
"198 810 LINE SMOOTH",
"198 765 OFFCURVE",
"235 747 OFFCURVE",
"320 747 CURVE SMOOTH",
"405 747 OFFCURVE",
"428 765 OFFCURVE",
"428 810 CURVE SMOOTH",
"428 950 LINE",
"479 975 OFFCURVE",
"539 992 OFFCURVE",
"601 992 CURVE SMOOTH",
"705 992 OFFCURVE",
"757 928 OFFCURVE",
"757 839 CURVE SMOOTH",
"757 768 OFFCURVE",
"719 713 OFFCURVE",
"611 609 CURVE SMOOTH",
"182 196 LINE SMOOTH",
"164 179 OFFCURVE",
"158 157 OFFCURVE",
"158 103 CURVE SMOOTH",
"158 18 OFFCURVE",
"176 0 OFFCURVE",
"221 0 CURVE SMOOTH",
"995 0 LINE SMOOTH",
"1041 0 OFFCURVE",
"1060 19 OFFCURVE",
"1060 65 CURVE SMOOTH",
"1060 307 LINE SMOOTH",
"1060 352 OFFCURVE",
"1023 370 OFFCURVE",
"938 370 CURVE SMOOTH",
"853 370 OFFCURVE",
"830 352 OFFCURVE",
"830 307 CURVE SMOOTH",
"830 215 LINE",
"548 215 LINE",
"821 478 LINE SMOOTH",
"949 601 OFFCURVE",
"1011 705 OFFCURVE",
"1011 844 CURVE SMOOTH",
"1011 1062 OFFCURVE",
"868 1209 OFFCURVE",
"600 1209 CURVE SMOOTH"
);
}
);
width = 1228;
}
);
unicode = 0032;
}
{
glyphname = four;
layers = (
{
layerId = UUID0;
paths = (
{
closed = 1;
nodes = (
"699 1209 OFFCURVE",
"669 1188 OFFCURVE",
"641 1148 CURVE SMOOTH",
"157 475 LINE SMOOTH",
"150 465 OFFCURVE",
"147 449 OFFCURVE",
"147 428 CURVE SMOOTH",
"147 378 OFFCURVE",
"165 360 OFFCURVE",
"210 360 CURVE SMOOTH",
"688 360 LINE",
"688 136 LINE",
"540 136 LINE SMOOTH",
"495 136 OFFCURVE",
"477 118 OFFCURVE",
"477 68 CURVE SMOOTH",
"477 18 OFFCURVE",
"495 0 OFFCURVE",
"540 0 CURVE SMOOTH",
"970 0 LINE SMOOTH",
"1015 0 OFFCURVE",
"1033 18 OFFCURVE",
"1033 68 CURVE SMOOTH",
"1033 118 OFFCURVE",
"1015 136 OFFCURVE",
"970 136 CURVE SMOOTH",
"838 136 LINE",
"838 360 LINE",
"1000 360 LINE SMOOTH",
"1045 360 OFFCURVE",
"1063 378 OFFCURVE",
"1063 428 CURVE SMOOTH",
"1063 478 OFFCURVE",
"1045 496 OFFCURVE",
"1000 496 CURVE SMOOTH",
"838 496 LINE",
"838 1131 LINE SMOOTH",
"838 1178 OFFCURVE",
"813 1209 OFFCURVE",
"751 1209 CURVE SMOOTH"
);
},
{
closed = 1;
nodes = (
"688 496 LINE",
"346 496 LINE",
"696 992 LINE"
);
}
);
width = 1228;
},
{
layerId = "8538028E-5D6C-4318-9676-30148CDA39CA";
paths = (
{
closed = 1;
nodes = (
"688 1209 OFFCURVE",
"644 1184 OFFCURVE",
"609 1140 CURVE SMOOTH",
"139 561 LINE SMOOTH",
"127 546 OFFCURVE",
"120 520 OFFCURVE",
"120 472 CURVE SMOOTH",
"120 387 OFFCURVE",
"138 370 OFFCURVE",
"183 370 CURVE SMOOTH",
"613 370 LINE",
"613 205 LINE",
"443 205 LINE SMOOTH",
"398 205 OFFCURVE",
"380 187 OFFCURVE",
"380 102 CURVE SMOOTH",
"380 17 OFFCURVE",
"398 0 OFFCURVE",
"443 0 CURVE SMOOTH",
"1005 0 LINE SMOOTH",
"1050 0 OFFCURVE",
"1068 17 OFFCURVE",
"1068 102 CURVE SMOOTH",
"1068 187 OFFCURVE",
"1050 205 OFFCURVE",
"1005 205 CURVE SMOOTH",
"863 205 LINE",
"863 370 LINE",
"1035 370 LINE SMOOTH",
"1080 370 OFFCURVE",
"1098 387 OFFCURVE",
"1098 472 CURVE SMOOTH",
"1098 557 OFFCURVE",
"1080 575 OFFCURVE",
"1035 575 CURVE SMOOTH",
"863 575 LINE",
"863 1119 LINE SMOOTH",
"863 1173 OFFCURVE",
"840 1209 OFFCURVE",
"758 1209 CURVE SMOOTH"
);
},
{
closed = 1;
nodes = (
"622 575 LINE",
"403 575 LINE",
"638 867 LINE"
);
}
);
width = 1228;
}
);
unicode = 0034;
}
{
glyphname = five;
layers = (
{
layerId = UUID0;
paths = (
{
closed = 1;
nodes = (
"351 1187 LINE SMOOTH",
"295 1187 OFFCURVE",
"278 1168 OFFCURVE",
"276 1122 CURVE SMOOTH",
"256 622 LINE SMOOTH",
"254 576 OFFCURVE",
"275 557 OFFCURVE",
"331 557 CURVE SMOOTH",
"354 557 OFFCURVE",
"370 560 OFFCURVE",
"381 567 CURVE SMOOTH",
"446 612 OFFCURVE",
"513 638 OFFCURVE",
"608 638 CURVE SMOOTH",
"759 638 OFFCURVE",
"852 534 OFFCURVE",
"852 386 CURVE SMOOTH",
"852 230 OFFCURVE",
"753 126 OFFCURVE",
"588 126 CURVE SMOOTH",
"485 126 OFFCURVE",
"380 166 OFFCURVE",
"296 226 CURVE SMOOTH",
"266 248 OFFCURVE",
"232 243 OFFCURVE",
"204 196 CURVE SMOOTH",
"176 150 OFFCURVE",
"187 119 OFFCURVE",
"219 97 CURVE SMOOTH",
"322 25 OFFCURVE",
"458 -22 OFFCURVE",
"588 -22 CURVE SMOOTH",
"846 -22 OFFCURVE",
"1010 152 OFFCURVE",
"1010 386 CURVE SMOOTH",
"1010 619 OFFCURVE",
"865 786 OFFCURVE",
"621 786 CURVE SMOOTH",
"542 786 OFFCURVE",
"470 766 OFFCURVE",
"406 730 CURVE",
"419 1051 LINE",
"885 1051 LINE SMOOTH",
"930 1051 OFFCURVE",
"948 1069 OFFCURVE",
"948 1119 CURVE SMOOTH",
"948 1169 OFFCURVE",
"930 1187 OFFCURVE",
"885 1187 CURVE SMOOTH"
);
}
);
width = 1228;
},
{
layerId = "8538028E-5D6C-4318-9676-30148CDA39CA";
paths = (
{
closed = 1;
nodes = (
"313 1187 LINE SMOOTH",
"267 1187 OFFCURVE",
"251 1168 OFFCURVE",
"248 1122 CURVE SMOOTH",
"215 572 LINE SMOOTH",
"212 526 OFFCURVE",
"244 507 OFFCURVE",
"330 507 CURVE SMOOTH",
"354 507 OFFCURVE",
"386 513 OFFCURVE",
"412 523 CURVE SMOOTH",
"469 544 OFFCURVE",
"537 559 OFFCURVE",
"604 559 CURVE SMOOTH",
"715 559 OFFCURVE",
"778 494 OFFCURVE",
"778 386 CURVE SMOOTH",
"778 270 OFFCURVE",
"694 205 OFFCURVE",
"574 205 CURVE SMOOTH",
"480 205 OFFCURVE",
"379 237 OFFCURVE",
"289 282 CURVE SMOOTH",
"258 297 OFFCURVE",
"223 280 OFFCURVE",
"193 203 CURVE SMOOTH",
"163 126 OFFCURVE",
"176 88 OFFCURVE",
"214 67 CURVE",
"317 11 OFFCURVE",
"447 -22 OFFCURVE",
"574 -22 CURVE SMOOTH",
"862 -22 OFFCURVE",
"1046 112 OFFCURVE",
"1046 386 CURVE SMOOTH",
"1046 619 OFFCURVE",
"911 786 OFFCURVE",
"657 786 CURVE SMOOTH",
"591 786 OFFCURVE",
"527 773 OFFCURVE",
"465 749 CURVE",
"479 972 LINE",
"921 972 LINE SMOOTH",
"966 972 OFFCURVE",
"984 994 OFFCURVE",
"984 1079 CURVE SMOOTH",
"984 1164 OFFCURVE",
"966 1187 OFFCURVE",
"921 1187 CURVE SMOOTH"
);
}
);
width = 1228;
}
);
unicode = 0035;
}
{
glyphname = six;
layers = (
{
layerId = UUID0;
paths = (
{
closed = 1;
nodes = (
"393 1185 OFFCURVE",
"201 834 OFFCURVE",
"201 512 CURVE SMOOTH",
"201 368 OFFCURVE",
"228 259 OFFCURVE",
"278 173 CURVE SMOOTH",
"354 43 OFFCURVE",
"484 -22 OFFCURVE",
"626 -22 CURVE SMOOTH",
"873 -22 OFFCURVE",
"1036 136 OFFCURVE",
"1036 353 CURVE SMOOTH",
"1036 581 OFFCURVE",
"869 731 OFFCURVE",
"648 731 CURVE SMOOTH",
"534 731 OFFCURVE",
"428 681 OFFCURVE",
"358 589 CURVE",
"394 861 OFFCURVE",
"571 1043 OFFCURVE",
"938 1062 CURVE SMOOTH",
"964 1063 OFFCURVE",
"979 1083 OFFCURVE",
"974 1142 CURVE SMOOTH",
"969 1197 OFFCURVE",
"946 1210 OFFCURVE",
"917 1209 CURVE"
);
},
{
closed = 1;
nodes = (
"783 583 OFFCURVE",
"878 492 OFFCURVE",
"878 353 CURVE SMOOTH",
"878 216 OFFCURVE",
"779 126 OFFCURVE",
"626 126 CURVE SMOOTH",
"472 126 OFFCURVE",
"372 227 OFFCURVE",
"372 368 CURVE SMOOTH",
"372 495 OFFCURVE",
"478 583 OFFCURVE",
"626 583 CURVE SMOOTH"
);
}
);
width = 1228;
},
{
layerId = "8538028E-5D6C-4318-9676-30148CDA39CA";
paths = (
{
closed = 1;
nodes = (
"444 1188 OFFCURVE",
"160 934 OFFCURVE",
"160 512 CURVE SMOOTH",
"160 377 OFFCURVE",
"191 257 OFFCURVE",
"246 176 CURVE SMOOTH",
"331 51 OFFCURVE",
"460 -22 OFFCURVE",
"631 -22 CURVE",
"891 -22 OFFCURVE",
"1078 139 OFFCURVE",
"1078 366 CURVE SMOOTH",
"1078 588 OFFCURVE",
"919 741 OFFCURVE",
"695 741 CURVE SMOOTH",
"580 741 OFFCURVE",
"493 705 OFFCURVE",
"420 624 CURVE",
"459 851 OFFCURVE",
"634 949 OFFCURVE",
"998 967 CURVE SMOOTH",
"1029 969 OFFCURVE",
"1046 1010 OFFCURVE",
"1037 1102 CURVE SMOOTH",
"1030 1177 OFFCURVE",
"1012 1210 OFFCURVE",
"977 1209 CURVE SMOOTH"
);
},
{
closed = 1;
nodes = (
"751 529 OFFCURVE",
"820 468 OFFCURVE",
"820 365 CURVE SMOOTH",
"820 264 OFFCURVE",
"744 201 OFFCURVE",
"630 201 CURVE SMOOTH",
"509 201 OFFCURVE",
"440 280 OFFCURVE",
"440 371 CURVE",
"440 465 OFFCURVE",
"521 529 OFFCURVE",
"638 529 CURVE SMOOTH"
);
}
);
width = 1228;
}
);
unicode = 0036;
}
{
glyphname = seven;
layers = (
{
layerId = UUID0;
paths = (
{
closed = 1;
nodes = (
"292 1187 LINE SMOOTH",
"247 1187 OFFCURVE",
"229 1169 OFFCURVE",
"229 1119 CURVE SMOOTH",
"229 905 LINE SMOOTH",
"229 859 OFFCURVE",
"248 840 OFFCURVE",
"304 840 CURVE SMOOTH",
"360 840 OFFCURVE",
"379 859 OFFCURVE",
"379 905 CURVE SMOOTH",
"379 1051 LINE",
"853 1051 LINE",
"446 56 LINE SMOOTH",
"429 15 OFFCURVE",
"454 -12 OFFCURVE",
"499 -20 CURVE SMOOTH",
"545 -28 OFFCURVE",
"582 -13 OFFCURVE",
"597 24 CURVE SMOOTH",
"1023 1079 LINE SMOOTH",
"1026 1087 OFFCURVE",
"1029 1102 OFFCURVE",
"1029 1119 CURVE SMOOTH",
"1029 1169 OFFCURVE",
"1011 1187 OFFCURVE",
"966 1187 CURVE SMOOTH"
);
}
);
width = 1228;
},
{
layerId = "8538028E-5D6C-4318-9676-30148CDA39CA";
paths = (
{
closed = 1;
nodes = (
"253 1187 LINE SMOOTH",
"207 1187 OFFCURVE",
"188 1168 OFFCURVE",
"188 1122 CURVE SMOOTH",
"188 780 LINE SMOOTH",
"188 735 OFFCURVE",
"225 717 OFFCURVE",
"310 717 CURVE SMOOTH",
"395 717 OFFCURVE",
"418 735 OFFCURVE",
"418 780 CURVE SMOOTH",
"418 972 LINE",
"784 972 LINE",
"408 97 LINE SMOOTH",
"384 42 OFFCURVE",
"434 1 OFFCURVE",
"504 -15 CURVE SMOOTH",
"574 -31 OFFCURVE",
"635 -20 OFFCURVE",
"654 24 CURVE SMOOTH",
"1071 1012 LINE SMOOTH",
"1077 1027 OFFCURVE",
"1080 1050 OFFCURVE",
"1080 1084 CURVE SMOOTH",
"1080 1169 OFFCURVE",
"1062 1187 OFFCURVE",
"1017 1187 CURVE SMOOTH"
);
}
);
width = 1228;
}
);
unicode = 0037;
}
{
glyphname = Lambda;
layers = (
{
layerId = UUID0;
paths = (
{
closed = 1;
nodes = (
"1200 0 OFFCURVE",
"1218 18 OFFCURVE",
"1218 68 CURVE SMOOTH",
"1218 118 OFFCURVE",
"1200 136 OFFCURVE",
"1155 136 CURVE SMOOTH",
"1078 136 LINE",
"719 1144 LINE SMOOTH",
"702 1191 OFFCURVE",
"668 1209 OFFCURVE",
"611 1209 CURVE SMOOTH",
"554 1209 OFFCURVE",
"521 1190 OFFCURVE",
"505 1144 CURVE SMOOTH",
"149 136 LINE",
"73 136 LINE SMOOTH",
"28 136 OFFCURVE",
"10 118 OFFCURVE",
"10 68 CURVE SMOOTH",
"10 18 OFFCURVE",
"28 0 OFFCURVE",
"73 0 CURVE SMOOTH",
"447 0 LINE SMOOTH",
"492 0 OFFCURVE",
"510 18 OFFCURVE",
"510 68 CURVE SMOOTH",
"510 118 OFFCURVE",
"492 136 OFFCURVE",
"447 136 CURVE SMOOTH",
"306 136 LINE",
"612 1020 LINE",
"921 136 LINE",
"821 136 LINE SMOOTH",
"776 136 OFFCURVE",
"758 118 OFFCURVE",
"758 68 CURVE SMOOTH",
"758 18 OFFCURVE",
"776 0 OFFCURVE",
"821 0 CURVE SMOOTH",
"1155 0 LINE SMOOTH"
);
}
);
width = 1228;
},
{
layerId = "8538028E-5D6C-4318-9676-30148CDA39CA";
width = 1228;
}
);
unicode = 039B;
}
{
glyphname = nine;
layers = (
{
layerId = UUID0;
paths = (
{
closed = 1;
nodes = (
"355 1209 OFFCURVE",
"192 1051 OFFCURVE",
"192 834 CURVE SMOOTH",
"192 606 OFFCURVE",
"359 456 OFFCURVE",
"580 456 CURVE SMOOTH",
"694 456 OFFCURVE",
"800 506 OFFCURVE",
"870 598 CURVE",
"834 326 OFFCURVE",
"657 144 OFFCURVE",
"290 125 CURVE",
"264 124 OFFCURVE",
"249 104 OFFCURVE",
"254 45 CURVE SMOOTH",
"259 -10 OFFCURVE",
"282 -23 OFFCURVE",
"311 -22 CURVE SMOOTH",
"835 2 OFFCURVE",
"1027 353 OFFCURVE",
"1027 675 CURVE SMOOTH",
"1027 819 OFFCURVE",
"1000 928 OFFCURVE",
"950 1014 CURVE SMOOTH",
"874 1144 OFFCURVE",
"744 1209 OFFCURVE",
"602 1209 CURVE SMOOTH"
);
},
{
closed = 1;
nodes = (
"756 1061 OFFCURVE",
"856 960 OFFCURVE",
"856 819 CURVE",
"856 692 OFFCURVE",
"750 604 OFFCURVE",
"602 604 CURVE SMOOTH",
"445 604 OFFCURVE",
"350 695 OFFCURVE",
"350 834 CURVE SMOOTH",
"350 971 OFFCURVE",
"449 1061 OFFCURVE",
"602 1061 CURVE SMOOTH"
);
}
);
width = 1228;
},
{
layerId = "8538028E-5D6C-4318-9676-30148CDA39CA";
paths = (
{
closed = 1;
nodes = (
"337 1209 OFFCURVE",
"150 1048 OFFCURVE",
"150 821 CURVE SMOOTH",
"150 599 OFFCURVE",
"309 446 OFFCURVE",
"533 446 CURVE SMOOTH",
"648 446 OFFCURVE",
"735 482 OFFCURVE",
"808 563 CURVE",
"779 336 OFFCURVE",
"654 238 OFFCURVE",
"290 220 CURVE SMOOTH",
"259 218 OFFCURVE",
"242 177 OFFCURVE",
"251 85 CURVE SMOOTH",
"258 10 OFFCURVE",
"276 -23 OFFCURVE",
"311 -22 CURVE SMOOTH",
"844 -1 OFFCURVE",
"1068 253 OFFCURVE",
"1068 675 CURVE SMOOTH",
"1068 810 OFFCURVE",
"1037 930 OFFCURVE",
"982 1011 CURVE SMOOTH",
"897 1136 OFFCURVE",
"768 1209 OFFCURVE",
"597 1209 CURVE SMOOTH"
);
},
{
closed = 1;
nodes = (
"719 986 OFFCURVE",
"788 907 OFFCURVE",
"788 816 CURVE",
"788 722 OFFCURVE",
"707 658 OFFCURVE",
"590 658 CURVE SMOOTH",
"477 658 OFFCURVE",
"408 719 OFFCURVE",
"408 822 CURVE SMOOTH",
"408 923 OFFCURVE",
"484 986 OFFCURVE",
"598 986 CURVE SMOOTH"
);
}
);
width = 1228;
}
);
unicode = 0039;
}
{
glyphname = at;
layers = (
{
layerId = UUID0;
paths = (
{
closed = 1;
nodes = (
"309 1078 OFFCURVE",
"50 781 OFFCURVE",
"50 389 CURVE SMOOTH",
"50 54 OFFCURVE",
"242 -153 OFFCURVE",
"562 -153 CURVE SMOOTH",
"672 -153 OFFCURVE",
"778 -132 OFFCURVE",
"848 -101 CURVE SMOOTH",
"869 -92 OFFCURVE",
"878 -72 OFFCURVE",
"867 -36 CURVE SMOOTH",
"856 0 OFFCURVE",
"838 14 OFFCURVE",
"815 7 CURVE SMOOTH",
"748 -14 OFFCURVE",
"656 -30 OFFCURVE",
"560 -30 CURVE SMOOTH",
"311 -30 OFFCURVE",
"173 133 OFFCURVE",
"173 389 CURVE SMOOTH",
"173 710 OFFCURVE",
"378 955 OFFCURVE",
"655 955 CURVE SMOOTH",
"898 955 OFFCURVE",
"1049 792 OFFCURVE",
"1049 531 CURVE SMOOTH",
"1049 372 OFFCURVE",
"989 263 OFFCURVE",
"888 263 CURVE SMOOTH",
"828 263 OFFCURVE",
"798 318 OFFCURVE",
"820 404 CURVE SMOOTH",
"897 706 LINE SMOOTH",
"902 726 OFFCURVE",
"882 743 OFFCURVE",
"858 752 CURVE SMOOTH",
"834 761 OFFCURVE",
"806 762 OFFCURVE",
"799 748 CURVE SMOOTH",
"768 685 LINE",
"743 744 OFFCURVE",
"704 785 OFFCURVE",
"640 785 CURVE SMOOTH",
"460 785 OFFCURVE",
"323 536 OFFCURVE",
"323 357 CURVE SMOOTH",
"323 214 OFFCURVE",
"401 132 OFFCURVE",
"499 132 CURVE SMOOTH",
"589 132 OFFCURVE",
"647 187 OFFCURVE",
"708 266 CURVE",
"739 182 OFFCURVE",
"802 137 OFFCURVE",
"889 137 CURVE SMOOTH",
"1057 137 OFFCURVE",
"1170 296 OFFCURVE",
"1170 531 CURVE SMOOTH",
"1170 852 OFFCURVE",
"970 1078 OFFCURVE",
"660 1078 CURVE SMOOTH"
);
},
{
closed = 1;
nodes = (
"683 658 OFFCURVE",
"712 623 OFFCURVE",
"712 561 CURVE SMOOTH",
"712 430 OFFCURVE",
"627 266 OFFCURVE",
"524 266 CURVE SMOOTH",
"486 266 OFFCURVE",
"458 294 OFFCURVE",
"458 359 CURVE SMOOTH",
"458 508 OFFCURVE",
"563 658 OFFCURVE",
"636 658 CURVE SMOOTH"
);
}
);
width = 1228;
},
{
layerId = "8538028E-5D6C-4318-9676-30148CDA39CA";
paths = (
{
closed = 1;
nodes = (
"299 1078 OFFCURVE",
"33 777 OFFCURVE",
"33 389 CURVE SMOOTH",
"33 58 OFFCURVE",
"232 -153 OFFCURVE",
"562 -153 CURVE SMOOTH",
"672 -153 OFFCURVE",
"788 -132 OFFCURVE",
"858 -101 CURVE SMOOTH",
"879 -92 OFFCURVE",
"890 -75 OFFCURVE",
"875 -17 CURVE SMOOTH",
"860 41 OFFCURVE",
"841 48 OFFCURVE",
"818 40 CURVE SMOOTH",
"751 18 OFFCURVE",
"666 0 OFFCURVE",
"560 0 CURVE SMOOTH",
"326 0 OFFCURVE",
"196 158 OFFCURVE",
"196 389 CURVE SMOOTH",
"196 685 OFFCURVE",
"383 925 OFFCURVE",
"655 925 CURVE SMOOTH",
"889 925 OFFCURVE",
"1030 767 OFFCURVE",
"1030 531 CURVE SMOOTH",
"1030 376 OFFCURVE",
"972 278 OFFCURVE",
"897 278 CURVE SMOOTH",
"855 278 OFFCURVE",
"826 318 OFFCURVE",
"848 404 CURVE SMOOTH",
"920 716 LINE SMOOTH",
"925 734 OFFCURVE",
"900 748 OFFCURVE",
"868 757 CURVE SMOOTH",
"838 765 OFFCURVE",
"805 765 OFFCURVE",
"799 754 CURVE SMOOTH",
"766 685 LINE",
"745 751 OFFCURVE",
"708 800 OFFCURVE",
"638 800 CURVE SMOOTH",
"466 800 OFFCURVE",
"321 564 OFFCURVE",
"321 357 CURVE SMOOTH",
"321 202 OFFCURVE",
"398 117 OFFCURVE",
"507 117 CURVE SMOOTH",
"594 117 OFFCURVE",
"658 175 OFFCURVE",
"704 261 CURVE",
"726 180 OFFCURVE",
"786 122 OFFCURVE",
"881 122 CURVE SMOOTH",
"1055 122 OFFCURVE",
"1187 270 OFFCURVE",
"1187 531 CURVE SMOOTH",
"1187 848 OFFCURVE",
"980 1078 OFFCURVE",
"660 1078 CURVE SMOOTH"
);
},
{
closed = 1;
nodes = (
"691 643 OFFCURVE",
"710 603 OFFCURVE",
"710 541 CURVE SMOOTH",
"710 450 OFFCURVE",
"635 281 OFFCURVE",
"562 281 CURVE SMOOTH",
"524 281 OFFCURVE",
"496 314 OFFCURVE",
"496 379 CURVE SMOOTH",
"496 508 OFFCURVE",
"581 643 OFFCURVE",
"644 643 CURVE SMOOTH"
);
}
);
width = 1228;
}
);
unicode = 0040;
}
{
glyphname = A;
layers = (
{
layerId = UUID0;
paths = (
{
closed = 1;
nodes = (
"273 1187 LINE SMOOTH",
"228 1187 OFFCURVE",
"210 1169 OFFCURVE",
"210 1119 CURVE SMOOTH",
"210 1069 OFFCURVE",
"228 1051 OFFCURVE",
"273 1051 CURVE SMOOTH",
"460 1051 LINE",
"129 136 LINE",
"73 136 LINE SMOOTH",
"28 136 OFFCURVE",
"10 118 OFFCURVE",
"10 68 CURVE SMOOTH",
"10 18 OFFCURVE",
"28 0 OFFCURVE",
"73 0 CURVE SMOOTH",
"407 0 LINE SMOOTH",
"452 0 OFFCURVE",
"470 18 OFFCURVE",
"470 68 CURVE SMOOTH",
"470 118 OFFCURVE",
"452 136 OFFCURVE",
"407 136 CURVE SMOOTH",
"286 136 LINE",
"369 374 LINE",
"854 374 LINE",
"936 136 LINE",
"801 136 LINE SMOOTH",
"756 136 OFFCURVE",
"738 118 OFFCURVE",
"738 68 CURVE SMOOTH",
"738 18 OFFCURVE",
"756 0 OFFCURVE",
"801 0 CURVE SMOOTH",
"1155 0 LINE SMOOTH",
"1200 0 OFFCURVE",
"1218 18 OFFCURVE",
"1218 68 CURVE SMOOTH",
"1218 118 OFFCURVE",
"1200 136 OFFCURVE",
"1155 136 CURVE SMOOTH",
"1094 136 LINE",
"741 1122 LINE SMOOTH",
"725 1168 OFFCURVE",
"693 1187 OFFCURVE",
"640 1187 CURVE SMOOTH"
);
},
{
closed = 1;
nodes = (
"808 510 LINE",
"416 510 LINE",
"603 1051 LINE",
"622 1051 LINE"
);
}
);
width = 1228;
},
{
layerId = "8538028E-5D6C-4318-9676-30148CDA39CA";
paths = (
{
closed = 1;
nodes = (
"223 1187 LINE SMOOTH",
"178 1187 OFFCURVE",
"160 1170 OFFCURVE",
"160 1085 CURVE SMOOTH",
"160 1000 OFFCURVE",
"178 982 OFFCURVE",
"223 982 CURVE SMOOTH",
"390 982 LINE",
"137 205 LINE",
"53 205 LINE SMOOTH",
"8 205 OFFCURVE",
"-10 188 OFFCURVE",
"-10 103 CURVE SMOOTH",
"-10 18 OFFCURVE",
"8 0 OFFCURVE",
"53 0 CURVE SMOOTH",
"457 0 LINE SMOOTH",
"502 0 OFFCURVE",
"520 18 OFFCURVE",
"520 103 CURVE SMOOTH",
"520 188 OFFCURVE",
"502 205 OFFCURVE",
"457 205 CURVE SMOOTH",
"383 205 LINE",
"428 350 LINE",
"792 350 LINE",
"837 205 LINE",
"751 205 LINE SMOOTH",
"706 205 OFFCURVE",
"688 188 OFFCURVE",
"688 103 CURVE SMOOTH",
"688 18 OFFCURVE",
"706 0 OFFCURVE",
"751 0 CURVE SMOOTH",
"1175 0 LINE SMOOTH",
"1220 0 OFFCURVE",
"1238 18 OFFCURVE",
"1238 103 CURVE SMOOTH",
"1238 188 OFFCURVE",
"1220 205 OFFCURVE",
"1175 205 CURVE SMOOTH",
"1088 205 LINE",
"798 1122 LINE SMOOTH",
"783 1168 OFFCURVE",
"750 1187 OFFCURVE",
"697 1187 CURVE SMOOTH"
);
},
{
closed = 1;
nodes = (
"735 555 LINE",
"486 555 LINE",
"609 982 LINE",
"615 982 LINE"
);
}
);
width = 1228;
}
);
unicode = 0041;
}
{
glyphname = I;
layers = (
{
layerId = UUID0;
paths = (
{
closed = 1;
nodes = (
"283 1187 LINE SMOOTH",
"238 1187 OFFCURVE",
"220 1169 OFFCURVE",
"220 1119 CURVE SMOOTH",
"220 1069 OFFCURVE",
"238 1051 OFFCURVE",
"283 1051 CURVE SMOOTH",
"539 1051 LINE",
"539 136 LINE",
"263 136 LINE SMOOTH",
"218 136 OFFCURVE",
"200 118 OFFCURVE",
"200 68 CURVE SMOOTH",
"200 18 OFFCURVE",
"218 0 OFFCURVE",
"263 0 CURVE SMOOTH",
"965 0 LINE SMOOTH",
"1010 0 OFFCURVE",
"1028 18 OFFCURVE",
"1028 68 CURVE SMOOTH",
"1028 118 OFFCURVE",
"1010 136 OFFCURVE",
"965 136 CURVE SMOOTH",
"689 136 LINE",
"689 1051 LINE",
"945 1051 LINE SMOOTH",
"990 1051 OFFCURVE",
"1008 1069 OFFCURVE",
"1008 1119 CURVE SMOOTH",
"1008 1169 OFFCURVE",
"990 1187 OFFCURVE",
"945 1187 CURVE SMOOTH"
);
}
);
width = 1228;
},
{
layerId = "8538028E-5D6C-4318-9676-30148CDA39CA";
paths = (
{
closed = 1;
nodes = (
"253 1187 LINE SMOOTH",
"208 1187 OFFCURVE",
"190 1169 OFFCURVE",
"190 1084 CURVE SMOOTH",
"190 999 OFFCURVE",
"208 982 OFFCURVE",
"253 982 CURVE SMOOTH",
"489 982 LINE",
"489 205 LINE",
"233 205 LINE SMOOTH",
"188 205 OFFCURVE",
"170 187 OFFCURVE",
"170 102 CURVE SMOOTH",
"170 17 OFFCURVE",
"188 0 OFFCURVE",
"233 0 CURVE SMOOTH",
"995 0 LINE SMOOTH",
"1040 0 OFFCURVE",
"1058 17 OFFCURVE",
"1058 102 CURVE SMOOTH",
"1058 187 OFFCURVE",
"1040 205 OFFCURVE",
"995 205 CURVE SMOOTH",
"739 205 LINE",
"739 982 LINE",
"975 982 LINE SMOOTH",
"1020 982 OFFCURVE",
"1038 999 OFFCURVE",
"1038 1084 CURVE SMOOTH",
"1038 1169 OFFCURVE",
"1020 1187 OFFCURVE",
"975 1187 CURVE SMOOTH"
);
}
);
width = 1228;
}
);
unicode = 0049;
}
{
glyphname = S;
layers = (
{
layerId = UUID0;
paths = (
{
closed = 1;
nodes = (
"887 1209 OFFCURVE",
"868 1190 OFFCURVE",
"868 1144 CURVE SMOOTH",
"868 1083 LINE",
"792 1158 OFFCURVE",
"678 1209 OFFCURVE",
"558 1209 CURVE SMOOTH",
"331 1209 OFFCURVE",
"169 1082 OFFCURVE",
"169 873 CURVE SMOOTH",
"169 732 OFFCURVE",
"240 658 OFFCURVE",
"338 614 CURVE SMOOTH",
"474 553 OFFCURVE",
"662 547 OFFCURVE",
"784 495 CURVE SMOOTH",
"858 463 OFFCURVE",
"907 415 OFFCURVE",
"907 327 CURVE SMOOTH",
"907 209 OFFCURVE",
"817 126 OFFCURVE",
"642 126 CURVE SMOOTH",
"467 126 OFFCURVE",
"345 212 OFFCURVE",
"291 366 CURVE SMOOTH",
"281 394 OFFCURVE",
"262 408 OFFCURVE",
"233 408 CURVE SMOOTH",
"177 408 OFFCURVE",
"158 389 OFFCURVE",
"158 343 CURVE SMOOTH",
"158 43 LINE SMOOTH",
"158 -3 OFFCURVE",
"177 -22 OFFCURVE",
"233 -22 CURVE SMOOTH",
"289 -22 OFFCURVE",
"308 -3 OFFCURVE",
"308 43 CURVE SMOOTH",
"308 121 LINE",
"392 27 OFFCURVE",
"509 -22 OFFCURVE",
"642 -22 CURVE SMOOTH",
"916 -22 OFFCURVE",
"1065 121 OFFCURVE",
"1065 327 CURVE SMOOTH",
"1065 506 OFFCURVE",
"972 591 OFFCURVE",
"852 640 CURVE SMOOTH",
"703 700 OFFCURVE",
"514 703 OFFCURVE",
"408 756 CURVE SMOOTH",
"359 781 OFFCURVE",
"327 816 OFFCURVE",
"327 873 CURVE SMOOTH",
"327 985 OFFCURVE",
"409 1061 OFFCURVE",
"558 1061 CURVE SMOOTH",
"704 1061 OFFCURVE",
"826 998 OFFCURVE",
"891 875 CURVE SMOOTH",
"901 857 OFFCURVE",
"919 849 OFFCURVE",
"943 849 CURVE SMOOTH",
"999 849 OFFCURVE",
"1018 868 OFFCURVE",
"1018 914 CURVE SMOOTH",
"1018 1144 LINE SMOOTH",
"1018 1190 OFFCURVE",
"999 1209 OFFCURVE",
"943 1209 CURVE SMOOTH"
);
}
);
width = 1228;
},
{
layerId = "8538028E-5D6C-4318-9676-30148CDA39CA";
paths = (
{
closed = 1;
nodes = (
"831 1209 OFFCURVE",
"804 1191 OFFCURVE",
"804 1146 CURVE SMOOTH",
"804 1109 LINE",
"738 1173 OFFCURVE",
"646 1209 OFFCURVE",
"538 1209 CURVE SMOOTH",
"306 1209 OFFCURVE",
"149 1059 OFFCURVE",
"149 846 CURVE SMOOTH",
"149 696 OFFCURVE",
"218 616 OFFCURVE",
"311 567 CURVE SMOOTH",
"447 496 OFFCURVE",
"636 493 OFFCURVE",
"742 441 CURVE SMOOTH",
"791 417 OFFCURVE",
"822 383 OFFCURVE",
"822 327 CURVE SMOOTH",
"822 244 OFFCURVE",
"761 191 OFFCURVE",
"642 191 CURVE SMOOTH",
"507 191 OFFCURVE",
"409 263 OFFCURVE",
"338 398 CURVE SMOOTH",
"323 427 OFFCURVE",
"298 438 OFFCURVE",
"251 438 CURVE SMOOTH",
"186 438 OFFCURVE",
"159 420 OFFCURVE",
"159 375 CURVE SMOOTH",
"159 41 LINE SMOOTH",
"159 -4 OFFCURVE",
"192 -22 OFFCURVE",
"277 -22 CURVE SMOOTH",
"362 -22 OFFCURVE",
"389 -4 OFFCURVE",
"389 41 CURVE SMOOTH",
"389 79 LINE",
"465 13 OFFCURVE",
"561 -22 OFFCURVE",
"672 -22 CURVE SMOOTH",
"951 -22 OFFCURVE",
"1087 128 OFFCURVE",
"1087 344 CURVE SMOOTH",
"1087 508 OFFCURVE",
"1019 601 OFFCURVE",
"927 657 CURVE SMOOTH",
"786 743 OFFCURVE",
"586 742 OFFCURVE",
"482 783 CURVE SMOOTH",
"439 800 OFFCURVE",
"412 823 OFFCURVE",
"412 863 CURVE SMOOTH",
"412 939 OFFCURVE",
"469 996 OFFCURVE",
"568 996 CURVE SMOOTH",
"700 996 OFFCURVE",
"799 937 OFFCURVE",
"860 841 CURVE SMOOTH",
"874 820 OFFCURVE",
"897 809 OFFCURVE",
"942 809 CURVE SMOOTH",
"1007 809 OFFCURVE",
"1034 827 OFFCURVE",
"1034 872 CURVE SMOOTH",
"1034 1146 LINE SMOOTH",
"1034 1191 OFFCURVE",
"1001 1209 OFFCURVE",
"916 1209 CURVE SMOOTH"
);
}
);
width = 1228;
}
);
unicode = 0053;
}
{
glyphname = U;
layers = (
{
layerId = UUID0;
paths = (
{
closed = 1;
nodes = (
"771 1187 LINE SMOOTH",
"726 1187 OFFCURVE",
"708 1169 OFFCURVE",
"708 1119 CURVE SMOOTH",
"708 1069 OFFCURVE",
"726 1051 OFFCURVE",
"771 1051 CURVE SMOOTH",
"883 1051 LINE",
"883 413 LINE SMOOTH",
"883 205 OFFCURVE",
"796 126 OFFCURVE",
"614 126 CURVE SMOOTH",
"432 126 OFFCURVE",
"345 205 OFFCURVE",
"345 413 CURVE SMOOTH",
"345 1051 LINE",
"457 1051 LINE SMOOTH",
"502 1051 OFFCURVE",
"520 1069 OFFCURVE",
"520 1119 CURVE SMOOTH",
"520 1169 OFFCURVE",
"502 1187 OFFCURVE",
"457 1187 CURVE SMOOTH",
"133 1187 LINE SMOOTH",
"88 1187 OFFCURVE",
"70 1169 OFFCURVE",
"70 1119 CURVE SMOOTH",
"70 1069 OFFCURVE",
"88 1051 OFFCURVE",
"133 1051 CURVE SMOOTH",
"195 1051 LINE",
"195 393 LINE SMOOTH",
"195 108 OFFCURVE",
"354 -22 OFFCURVE",
"614 -22 CURVE SMOOTH",
"874 -22 OFFCURVE",
"1033 108 OFFCURVE",
"1033 393 CURVE SMOOTH",
"1033 1051 LINE",
"1095 1051 LINE SMOOTH",
"1140 1051 OFFCURVE",
"1158 1069 OFFCURVE",
"1158 1119 CURVE SMOOTH",
"1158 1169 OFFCURVE",
"1140 1187 OFFCURVE",
"1095 1187 CURVE SMOOTH"
);
}
);
width = 1228;
},
{
layerId = "8538028E-5D6C-4318-9676-30148CDA39CA";
paths = (
{
closed = 1;
nodes = (
"741 1187 LINE SMOOTH",
"696 1187 OFFCURVE",
"678 1169 OFFCURVE",
"678 1084 CURVE SMOOTH",
"678 999 OFFCURVE",
"696 982 OFFCURVE",
"741 982 CURVE SMOOTH",
"818 982 LINE",
"818 433 LINE SMOOTH",
"818 273 OFFCURVE",
"733 205 OFFCURVE",
"614 205 CURVE SMOOTH",
"495 205 OFFCURVE",
"410 273 OFFCURVE",
"410 433 CURVE SMOOTH",
"410 982 LINE",
"487 982 LINE SMOOTH",
"532 982 OFFCURVE",
"550 999 OFFCURVE",
"550 1084 CURVE SMOOTH",
"550 1169 OFFCURVE",
"532 1187 OFFCURVE",
"487 1187 CURVE SMOOTH",
"113 1187 LINE SMOOTH",
"68 1187 OFFCURVE",
"50 1169 OFFCURVE",
"50 1084 CURVE SMOOTH",
"50 999 OFFCURVE",
"68 982 OFFCURVE",
"113 982 CURVE SMOOTH",
"160 982 LINE",
"160 413 LINE SMOOTH",
"160 133 OFFCURVE",
"334 -22 OFFCURVE",
"614 -22 CURVE SMOOTH",
"894 -22 OFFCURVE",
"1068 133 OFFCURVE",
"1068 413 CURVE SMOOTH",
"1068 982 LINE",
"1115 982 LINE SMOOTH",
"1160 982 OFFCURVE",
"1178 999 OFFCURVE",
"1178 1084 CURVE SMOOTH",
"1178 1169 OFFCURVE",
"1160 1187 OFFCURVE",
"1115 1187 CURVE SMOOTH"
);
}
);
width = 1228;
}
);
unicode = 0055;
}
{
glyphname = W;
layers = (
{
layerId = UUID0;
paths = (
{
closed = 1;
nodes = (
"851 1187 LINE SMOOTH",
"806 1187 OFFCURVE",
"788 1169 OFFCURVE",
"788 1119 CURVE SMOOTH",
"788 1069 OFFCURVE",
"806 1051 OFFCURVE",
"851 1051 CURVE SMOOTH",
"975 1051 LINE",
"871 250 LINE",
"684 845 LINE SMOOTH",
"676 871 OFFCURVE",
"655 885 OFFCURVE",
"611 885 CURVE SMOOTH",
"568 885 OFFCURVE",
"547 864 OFFCURVE",
"539 838 CURVE SMOOTH",
"351 250 LINE",
"251 1051 LINE",
"397 1051 LINE SMOOTH",
"442 1051 OFFCURVE",
"460 1069 OFFCURVE",
"460 1119 CURVE SMOOTH",
"460 1169 OFFCURVE",
"442 1187 OFFCURVE",
"397 1187 CURVE SMOOTH",
"53 1187 LINE SMOOTH",
"8 1187 OFFCURVE",
"-10 1169 OFFCURVE",
"-10 1119 CURVE SMOOTH",
"-10 1069 OFFCURVE",
"8 1051 OFFCURVE",
"53 1051 CURVE SMOOTH",
"102 1051 LINE",
"235 43 LINE SMOOTH",
"241 -5 OFFCURVE",
"268 -22 OFFCURVE",
"319 -22 CURVE SMOOTH",
"370 -22 OFFCURVE",
"408 -3 OFFCURVE",
"423 43 CURVE SMOOTH",
"610 624 LINE",
"795 43 LINE SMOOTH",
"809 -3 OFFCURVE",
"846 -22 OFFCURVE",
"897 -22 CURVE SMOOTH",
"948 -22 OFFCURVE",
"976 -6 OFFCURVE",
"983 43 CURVE SMOOTH",
"1121 1051 LINE",
"1175 1051 LINE SMOOTH",
"1220 1051 OFFCURVE",
"1238 1069 OFFCURVE",
"1238 1119 CURVE SMOOTH",
"1238 1169 OFFCURVE",
"1220 1187 OFFCURVE",
"1175 1187 CURVE SMOOTH"
);
}
);
width = 1228;
},
{
layerId = "8538028E-5D6C-4318-9676-30148CDA39CA";
paths = (
{
closed = 1;
nodes = (
"811 1187 LINE SMOOTH",
"766 1187 OFFCURVE",
"748 1169 OFFCURVE",
"748 1084 CURVE SMOOTH",
"748 999 OFFCURVE",
"766 982 OFFCURVE",
"811 982 CURVE SMOOTH",
"914 982 LINE",
"860 398 LINE",
"713 833 LINE",
"705 859 OFFCURVE",
"682 873 OFFCURVE",
"613 873 CURVE SMOOTH",
"545 873 OFFCURVE",
"527 852 OFFCURVE",
"519 826 CURVE",
"373 398 LINE",
"320 982 LINE",
"437 982 LINE SMOOTH",
"482 982 OFFCURVE",
"500 999 OFFCURVE",
"500 1084 CURVE SMOOTH",
"500 1169 OFFCURVE",
"482 1187 OFFCURVE",
"437 1187 CURVE SMOOTH",
"43 1187 LINE SMOOTH",
"-2 1187 OFFCURVE",
"-20 1169 OFFCURVE",
"-20 1084 CURVE SMOOTH",
"-20 999 OFFCURVE",
"-2 982 OFFCURVE",
"43 982 CURVE SMOOTH",
"93 982 LINE",
"190 43 LINE SMOOTH",
"195 -5 OFFCURVE",
"218 -22 OFFCURVE",
"309 -22 CURVE SMOOTH",
"400 -22 OFFCURVE",
"432 -3 OFFCURVE",
"448 43 CURVE SMOOTH",
"610 514 LINE",
"770 43 LINE SMOOTH",
"785 -2 OFFCURVE",
"816 -22 OFFCURVE",
"907 -22 CURVE SMOOTH",
"998 -22 OFFCURVE",
"1023 -6 OFFCURVE",
"1028 43 CURVE SMOOTH",
"1129 982 LINE",
"1185 982 LINE SMOOTH",
"1230 982 OFFCURVE",
"1248 999 OFFCURVE",
"1248 1084 CURVE SMOOTH",
"1248 1169 OFFCURVE",
"1230 1187 OFFCURVE",
"1185 1187 CURVE SMOOTH"
);
}
);
width = 1228;
}
);
unicode = 0057;
}
{
glyphname = X;
layers = (
{
layerId = UUID0;
paths = (
{
closed = 1;
nodes = (
"781 1187 LINE SMOOTH",
"736 1187 OFFCURVE",
"718 1169 OFFCURVE",
"718 1119 CURVE SMOOTH",
"718 1069 OFFCURVE",
"736 1051 OFFCURVE",
"781 1051 CURVE SMOOTH",
"841 1051 LINE",
"619 735 LINE",
"398 1051 LINE",
"487 1051 LINE SMOOTH",
"532 1051 OFFCURVE",
"550 1069 OFFCURVE",
"550 1119 CURVE SMOOTH",
"550 1169 OFFCURVE",
"532 1187 OFFCURVE",
"487 1187 CURVE SMOOTH",
"143 1187 LINE SMOOTH",
"98 1187 OFFCURVE",
"80 1169 OFFCURVE",
"80 1119 CURVE SMOOTH",
"80 1069 OFFCURVE",
"98 1051 OFFCURVE",
"143 1051 CURVE SMOOTH",
"212 1051 LINE",
"524 619 LINE",
"175 136 LINE",
"113 136 LINE SMOOTH",
"68 136 OFFCURVE",
"50 118 OFFCURVE",
"50 68 CURVE SMOOTH",
"50 18 OFFCURVE",
"68 0 OFFCURVE",
"113 0 CURVE SMOOTH",
"437 0 LINE SMOOTH",
"482 0 OFFCURVE",
"500 18 OFFCURVE",
"500 68 CURVE SMOOTH",
"500 118 OFFCURVE",
"482 136 OFFCURVE",
"437 136 CURVE SMOOTH",
"354 136 LINE",
"615 501 LINE",
"870 136 LINE",
"761 136 LINE SMOOTH",
"716 136 OFFCURVE",
"698 118 OFFCURVE",
"698 68 CURVE SMOOTH",
"698 18 OFFCURVE",
"716 0 OFFCURVE",
"761 0 CURVE SMOOTH",
"1115 0 LINE SMOOTH",
"1160 0 OFFCURVE",
"1178 18 OFFCURVE",
"1178 68 CURVE SMOOTH",
"1178 118 OFFCURVE",
"1160 136 OFFCURVE",
"1115 136 CURVE SMOOTH",
"1057 136 LINE",
"711 617 LINE",
"1020 1051 LINE",
"1085 1051 LINE SMOOTH",
"1130 1051 OFFCURVE",
"1148 1069 OFFCURVE",
"1148 1119 CURVE SMOOTH",
"1148 1169 OFFCURVE",
"1130 1187 OFFCURVE",
"1085 1187 CURVE SMOOTH"
);
}
);
width = 1228;
},
{
layerId = "8538028E-5D6C-4318-9676-30148CDA39CA";
paths = (
{
closed = 1;
nodes = (
"741 1187 LINE SMOOTH",
"696 1187 OFFCURVE",
"678 1169 OFFCURVE",
"678 1084 CURVE SMOOTH",
"678 999 OFFCURVE",
"696 982 OFFCURVE",
"741 982 CURVE SMOOTH",
"765 982 LINE",
"620 773 LINE",
"474 982 LINE",
"517 982 LINE SMOOTH",
"562 982 OFFCURVE",
"580 999 OFFCURVE",
"580 1084 CURVE SMOOTH",
"580 1169 OFFCURVE",
"562 1187 OFFCURVE",
"517 1187 CURVE SMOOTH",
"123 1187 LINE SMOOTH",
"78 1187 OFFCURVE",
"60 1169 OFFCURVE",
"60 1084 CURVE SMOOTH",
"60 999 OFFCURVE",
"78 982 OFFCURVE",
"123 982 CURVE SMOOTH",
"183 982 LINE",
"446 615 LINE",
"155 205 LINE",
"93 205 LINE SMOOTH",
"48 205 OFFCURVE",
"30 187 OFFCURVE",
"30 102 CURVE SMOOTH",
"30 17 OFFCURVE",
"48 0 OFFCURVE",
"93 0 CURVE SMOOTH",
"477 0 LINE SMOOTH",
"522 0 OFFCURVE",
"540 17 OFFCURVE",
"540 102 CURVE SMOOTH",
"540 187 OFFCURVE",
"522 205 OFFCURVE",
"477 205 CURVE SMOOTH",
"439 205 LINE",
"610 449 LINE",
"783 205 LINE",
"731 205 LINE SMOOTH",
"686 205 OFFCURVE",
"668 187 OFFCURVE",
"668 102 CURVE SMOOTH",
"668 17 OFFCURVE",
"686 0 OFFCURVE",
"731 0 CURVE SMOOTH",
"1135 0 LINE SMOOTH",
"1180 0 OFFCURVE",
"1198 17 OFFCURVE",
"1198 102 CURVE SMOOTH",
"1198 187 OFFCURVE",
"1180 205 OFFCURVE",
"1135 205 CURVE SMOOTH",
"1074 205 LINE",
"783 604 LINE",
"1049 982 LINE",
"1105 982 LINE SMOOTH",
"1150 982 OFFCURVE",
"1168 999 OFFCURVE",
"1168 1084 CURVE SMOOTH",
"1168 1169 OFFCURVE",
"1150 1187 OFFCURVE",
"1105 1187 CURVE SMOOTH"
);
}
);
width = 1228;
}
);
unicode = 0058;
}
{
glyphname = Y;
layers = (
{
layerId = UUID0;
paths = (
{
closed = 1;
nodes = (
"801 1187 LINE SMOOTH",
"756 1187 OFFCURVE",
"738 1169 OFFCURVE",
"738 1119 CURVE SMOOTH",
"738 1069 OFFCURVE",
"756 1051 OFFCURVE",
"801 1051 CURVE SMOOTH",
"866 1051 LINE",
"614 642 LINE",
"364 1051 LINE",
"457 1051 LINE SMOOTH",
"502 1051 OFFCURVE",
"520 1069 OFFCURVE",
"520 1119 CURVE SMOOTH",
"520 1169 OFFCURVE",
"502 1187 OFFCURVE",
"457 1187 CURVE SMOOTH",
"123 1187 LINE SMOOTH",
"78 1187 OFFCURVE",
"60 1169 OFFCURVE",
"60 1119 CURVE SMOOTH",
"60 1069 OFFCURVE",
"78 1051 OFFCURVE",
"123 1051 CURVE SMOOTH",
"193 1051 LINE",
"539 492 LINE",
"539 136 LINE",
"313 136 LINE SMOOTH",
"268 136 OFFCURVE",
"250 118 OFFCURVE",
"250 68 CURVE SMOOTH",
"250 18 OFFCURVE",
"268 0 OFFCURVE",
"313 0 CURVE SMOOTH",
"915 0 LINE SMOOTH",
"960 0 OFFCURVE",
"978 18 OFFCURVE",
"978 68 CURVE SMOOTH",
"978 118 OFFCURVE",
"960 136 OFFCURVE",
"915 136 CURVE SMOOTH",
"689 136 LINE",
"689 492 LINE",
"1037 1051 LINE",
"1105 1051 LINE SMOOTH",
"1150 1051 OFFCURVE",
"1168 1069 OFFCURVE",
"1168 1119 CURVE SMOOTH",
"1168 1169 OFFCURVE",
"1150 1187 OFFCURVE",
"1105 1187 CURVE SMOOTH"
);
}
);
width = 1228;
},
{
layerId = "8538028E-5D6C-4318-9676-30148CDA39CA";
paths = (
{
closed = 1;
nodes = (
"751 1187 LINE SMOOTH",
"706 1187 OFFCURVE",
"688 1169 OFFCURVE",
"688 1084 CURVE SMOOTH",
"688 999 OFFCURVE",
"706 982 OFFCURVE",
"751 982 CURVE SMOOTH",
"804 982 LINE",
"616 690 LINE",
"430 982 LINE",
"497 982 LINE SMOOTH",
"542 982 OFFCURVE",
"560 999 OFFCURVE",
"560 1084 CURVE SMOOTH",
"560 1169 OFFCURVE",
"542 1187 OFFCURVE",
"497 1187 CURVE SMOOTH",
"103 1187 LINE SMOOTH",
"58 1187 OFFCURVE",
"40 1169 OFFCURVE",
"40 1084 CURVE SMOOTH",
"40 999 OFFCURVE",
"58 982 OFFCURVE",
"103 982 CURVE SMOOTH",
"149 982 LINE",
"489 460 LINE",
"489 205 LINE",
"293 205 LINE SMOOTH",
"248 205 OFFCURVE",
"230 187 OFFCURVE",
"230 102 CURVE SMOOTH",
"230 17 OFFCURVE",
"248 0 OFFCURVE",
"293 0 CURVE SMOOTH",
"935 0 LINE SMOOTH",
"980 0 OFFCURVE",
"998 17 OFFCURVE",
"998 102 CURVE SMOOTH",
"998 187 OFFCURVE",
"980 205 OFFCURVE",
"935 205 CURVE SMOOTH",
"739 205 LINE",
"739 459 LINE",
"1081 982 LINE",
"1125 982 LINE SMOOTH",
"1170 982 OFFCURVE",
"1188 999 OFFCURVE",
"1188 1084 CURVE SMOOTH",
"1188 1169 OFFCURVE",
"1170 1187 OFFCURVE",
"1125 1187 CURVE SMOOTH"
);
}
);
width = 1228;
}
);
unicode = 0059;
}
{
glyphname = d;
layers = (
{
layerId = UUID0;
paths = (
{
closed = 1;
nodes = (
"714 1312 LINE SMOOTH",
"669 1312 OFFCURVE",
"651 1294 OFFCURVE",
"651 1244 CURVE SMOOTH",
"651 1194 OFFCURVE",
"669 1176 OFFCURVE",
"714 1176 CURVE SMOOTH",
"876 1176 LINE",
"876 781 LINE",
"796 883 OFFCURVE",
"692 946 OFFCURVE",
"559 946 CURVE SMOOTH",
"312 946 OFFCURVE",
"127 764 OFFCURVE",
"127 462 CURVE SMOOTH",
"127 160 OFFCURVE",
"312 -22 OFFCURVE",
"559 -22 CURVE SMOOTH",
"692 -22 OFFCURVE",
"804 41 OFFCURVE",
"886 148 CURVE",
"886 68 LINE SMOOTH",
"886 18 OFFCURVE",
"904 0 OFFCURVE",
"949 0 CURVE SMOOTH",
"1108 0 LINE SMOOTH",
"1153 0 OFFCURVE",
"1171 18 OFFCURVE",
"1171 68 CURVE SMOOTH",
"1171 118 OFFCURVE",
"1153 136 OFFCURVE",
"1108 136 CURVE SMOOTH",
"1026 136 LINE",
"1026 1244 LINE SMOOTH",
"1026 1294 OFFCURVE",
"1008 1312 OFFCURVE",
"963 1312 CURVE SMOOTH"
);
},
{
closed = 1;
nodes = (
"746 798 OFFCURVE",
"876 674 OFFCURVE",
"876 462 CURVE SMOOTH",
"876 250 OFFCURVE",
"746 126 OFFCURVE",
"569 126 CURVE SMOOTH",
"388 126 OFFCURVE",
"285 266 OFFCURVE",
"285 462 CURVE SMOOTH",
"285 658 OFFCURVE",
"388 798 OFFCURVE",
"569 798 CURVE SMOOTH"
);
}
);
width = 1228;
},
{
layerId = "8538028E-5D6C-4318-9676-30148CDA39CA";
paths = (
{
closed = 1;
nodes = (
"644 1312 LINE SMOOTH",
"599 1312 OFFCURVE",
"581 1294 OFFCURVE",
"581 1209 CURVE SMOOTH",
"581 1124 OFFCURVE",
"599 1107 OFFCURVE",
"644 1107 CURVE SMOOTH",
"791 1107 LINE",
"791 828 LINE",
"724 902 OFFCURVE",
"634 946 OFFCURVE",
"528 946 CURVE SMOOTH",
"259 946 OFFCURVE",
"97 732 OFFCURVE",
"97 462 CURVE SMOOTH",
"97 192 OFFCURVE",
"259 -22 OFFCURVE",
"528 -22 CURVE SMOOTH",
"656 -22 OFFCURVE",
"763 42 OFFCURVE",
"831 147 CURVE",
"831 63 LINE SMOOTH",
"831 18 OFFCURVE",
"849 0 OFFCURVE",
"894 0 CURVE",
"1128 0 LINE SMOOTH",
"1173 0 OFFCURVE",
"1191 18 OFFCURVE",
"1191 103 CURVE SMOOTH",
"1191 188 OFFCURVE",
"1173 205 OFFCURVE",
"1128 205 CURVE SMOOTH",
"1041 205 LINE",
"1041 1249 LINE SMOOTH",
"1041 1294 OFFCURVE",
"1023 1312 OFFCURVE",
"978 1312 CURVE SMOOTH"
);
},
{
closed = 1;
nodes = (
"693 719 OFFCURVE",
"798 628 OFFCURVE",
"798 462 CURVE SMOOTH",
"798 296 OFFCURVE",
"693 205 OFFCURVE",
"568 205 CURVE SMOOTH",
"443 205 OFFCURVE",
"365 306 OFFCURVE",
"365 462 CURVE SMOOTH",
"365 618 OFFCURVE",
"443 719 OFFCURVE",
"568 719 CURVE SMOOTH"
);
}
);
width = 1228;
}
);
unicode = 0064;
}
{
glyphname = e;
layers = (
{
layerId = UUID0;
paths = (
{
closed = 1;
nodes = (
"344 946 OFFCURVE",
"146 753 OFFCURVE",
"146 462 CURVE SMOOTH",
"146 161 OFFCURVE",
"319 -22 OFFCURVE",
"623 -22 CURVE SMOOTH",
"770 -22 OFFCURVE",
"918 16 OFFCURVE",
"1016 65 CURVE SMOOTH",
"1060 87 OFFCURVE",
"1069 122 OFFCURVE",
"1051 165 CURVE SMOOTH",
"1034 207 OFFCURVE",
"1005 233 OFFCURVE",
"963 209 CURVE SMOOTH",
"876 159 OFFCURVE",
"749 123 OFFCURVE",
"623 123 CURVE SMOOTH",
"426 123 OFFCURVE",
"314 225 OFFCURVE",
"304 425 CURVE",
"1028 425 LINE SMOOTH",
"1073 425 OFFCURVE",
"1091 442 OFFCURVE",
"1091 487 CURVE",
"1076 753 OFFCURVE",
"920 946 OFFCURVE",
"623 946 CURVE SMOOTH"
);
},
{
closed = 1;
nodes = (
"799 801 OFFCURVE",
"897 715 OFFCURVE",
"925 565 CURVE",
"314 565 LINE",
"347 712 OFFCURVE",
"457 801 OFFCURVE",
"623 801 CURVE SMOOTH"
);
}
);
width = 1228;
},
{
layerId = "8538028E-5D6C-4318-9676-30148CDA39CA";
paths = (
{
closed = 1;
nodes = (
"319 946 OFFCURVE",
"131 742 OFFCURVE",
"131 462 CURVE SMOOTH",
"131 182 OFFCURVE",
"307 -22 OFFCURVE",
"618 -22 CURVE SMOOTH",
"755 -22 OFFCURVE",
"898 6 OFFCURVE",
"1026 49 CURVE SMOOTH",
"1074 65 OFFCURVE",
"1087 94 OFFCURVE",
"1065 176 CURVE SMOOTH",
"1043 258 OFFCURVE",
"1017 273 OFFCURVE",
"974 260 CURVE SMOOTH",
"849 222 OFFCURVE",
"740 205 OFFCURVE",
"638 205 CURVE SMOOTH",
"511 205 OFFCURVE",
"424 262 OFFCURVE",
"398 370 CURVE",
"1040 370 LINE SMOOTH",
"1085 370 OFFCURVE",
"1103 387 OFFCURVE",
"1103 432 CURVE SMOOTH",
"1103 729 OFFCURVE",
"940 946 OFFCURVE",
"628 946 CURVE SMOOTH"
);
},
{
closed = 1;
nodes = (
"743 719 OFFCURVE",
"820 661 OFFCURVE",
"842 565 CURVE",
"402 565 LINE",
"431 669 OFFCURVE",
"508 719 OFFCURVE",
"628 719 CURVE SMOOTH"
);
}
);
width = 1228;
}
);
unicode = 0065;
}
{
glyphname = f;
layers = (
{
layerId = UUID0;
paths = (
{
closed = 1;
nodes = (
"576 1317 OFFCURVE",
"448 1186 OFFCURVE",
"448 967 CURVE SMOOTH",
"448 844 LINE",
"250 844 LINE SMOOTH",
"205 844 OFFCURVE",
"187 826 OFFCURVE",
"187 776 CURVE SMOOTH",
"187 726 OFFCURVE",
"205 708 OFFCURVE",
"250 708 CURVE SMOOTH",
"448 708 LINE",
"448 136 LINE",
"250 136 LINE SMOOTH",
"205 136 OFFCURVE",
"187 118 OFFCURVE",
"187 68 CURVE SMOOTH",
"187 18 OFFCURVE",
"205 0 OFFCURVE",
"250 0 CURVE SMOOTH",
"944 0 LINE SMOOTH",
"989 0 OFFCURVE",
"1007 18 OFFCURVE",
"1007 68 CURVE SMOOTH",
"1007 118 OFFCURVE",
"989 136 OFFCURVE",
"944 136 CURVE SMOOTH",
"598 136 LINE",
"598 708 LINE",
"944 708 LINE SMOOTH",
"989 708 OFFCURVE",
"1007 726 OFFCURVE",
"1007 776 CURVE SMOOTH",
"1007 826 OFFCURVE",
"989 844 OFFCURVE",
"944 844 CURVE SMOOTH",
"598 844 LINE",
"598 954 LINE SMOOTH",
"598 1091 OFFCURVE",
"659 1171 OFFCURVE",
"800 1171 CURVE SMOOTH",
"879 1171 OFFCURVE",
"959 1152 OFFCURVE",
"1037 1122 CURVE SMOOTH",
"1071 1109 OFFCURVE",
"1098 1120 OFFCURVE",
"1111 1174 CURVE SMOOTH",
"1123 1224 OFFCURVE",
"1102 1252 OFFCURVE",
"1066 1266 CURVE SMOOTH",
"986 1297 OFFCURVE",
"894 1317 OFFCURVE",
"800 1317 CURVE SMOOTH"
);
}
);
width = 1228;
},
{
layerId = "8538028E-5D6C-4318-9676-30148CDA39CA";
paths = (
{
closed = 1;
nodes = (
"538 1317 OFFCURVE",
"413 1186 OFFCURVE",
"413 937 CURVE SMOOTH",
"413 864 LINE",
"230 864 LINE SMOOTH",
"185 864 OFFCURVE",
"167 841 OFFCURVE",
"167 756 CURVE SMOOTH",
"167 671 OFFCURVE",
"185 649 OFFCURVE",
"230 649 CURVE SMOOTH",
"413 649 LINE",
"413 205 LINE",
"230 205 LINE SMOOTH",
"185 205 OFFCURVE",
"167 187 OFFCURVE",
"167 102 CURVE SMOOTH",
"167 17 OFFCURVE",
"185 0 OFFCURVE",
"230 0 CURVE SMOOTH",
"944 0 LINE SMOOTH",
"989 0 OFFCURVE",
"1007 17 OFFCURVE",
"1007 102 CURVE SMOOTH",
"1007 187 OFFCURVE",
"989 205 OFFCURVE",
"944 205 CURVE SMOOTH",
"663 205 LINE",
"663 649 LINE",
"974 649 LINE SMOOTH",
"1019 649 OFFCURVE",
"1037 671 OFFCURVE",
"1037 756 CURVE SMOOTH",
"1037 841 OFFCURVE",
"1019 864 OFFCURVE",
"974 864 CURVE SMOOTH",
"663 864 LINE",
"663 924 LINE SMOOTH",
"663 1039 OFFCURVE",
"710 1090 OFFCURVE",
"792 1090 CURVE SMOOTH",
"860 1090 OFFCURVE",
"929 1077 OFFCURVE",
"1014 1051 CURVE SMOOTH",
"1057 1038 OFFCURVE",
"1092 1047 OFFCURVE",
"1114 1128 CURVE SMOOTH",
"1136 1211 OFFCURVE",
"1120 1243 OFFCURVE",
"1074 1260 CURVE SMOOTH",
"965 1301 OFFCURVE",
"864 1317 OFFCURVE",
"770 1317 CURVE SMOOTH"
);
}
);
width = 1228;
}
);
unicode = 0066;
}
{
glyphname = g;
layers = (
{
layerId = UUID0;
paths = (
{
closed = 1;
nodes = (
"312 946 OFFCURVE",
"127 774 OFFCURVE",
"127 487 CURVE SMOOTH",
"127 200 OFFCURVE",
"312 28 OFFCURVE",
"559 28 CURVE SMOOTH",
"692 28 OFFCURVE",
"797 85 OFFCURVE",
"876 184 CURVE",
"876 -17 LINE SMOOTH",
"876 -164 OFFCURVE",
"787 -262 OFFCURVE",
"598 -262 CURVE SMOOTH",
"490 -262 OFFCURVE",
"370 -238 OFFCURVE",
"269 -202 CURVE SMOOTH",
"235 -190 OFFCURVE",
"207 -203 OFFCURVE",
"190 -253 CURVE SMOOTH",
"173 -304 OFFCURVE",
"185 -333 OFFCURVE",
"221 -346 CURVE SMOOTH",
"336 -388 OFFCURVE",
"472 -410 OFFCURVE",
"598 -410 CURVE SMOOTH",
"869 -410 OFFCURVE",
"1026 -269 OFFCURVE",
"1026 -30 CURVE SMOOTH",
"1026 788 LINE",
"1108 788 LINE SMOOTH",
"1153 788 OFFCURVE",
"1171 806 OFFCURVE",
"1171 856 CURVE SMOOTH",
"1171 906 OFFCURVE",
"1153 924 OFFCURVE",
"1108 924 CURVE SMOOTH",
"949 924 LINE SMOOTH",
"904 924 OFFCURVE",
"886 906 OFFCURVE",
"886 856 CURVE SMOOTH",
"886 776 LINE",
"804 883 OFFCURVE",
"692 946 OFFCURVE",
"559 946 CURVE SMOOTH"
);
},
{
closed = 1;
nodes = (
"746 798 OFFCURVE",
"876 684 OFFCURVE",
"876 487 CURVE SMOOTH",
"876 290 OFFCURVE",
"746 176 OFFCURVE",
"569 176 CURVE SMOOTH",
"388 176 OFFCURVE",
"285 306 OFFCURVE",
"285 487 CURVE SMOOTH",
"285 668 OFFCURVE",
"388 798 OFFCURVE",
"569 798 CURVE SMOOTH"
);
}
);
width = 1228;
},
{
layerId = "8538028E-5D6C-4318-9676-30148CDA39CA";
paths = (
{
closed = 1;
nodes = (
"264 946 OFFCURVE",
"97 747 OFFCURVE",
"97 477 CURVE SMOOTH",
"97 207 OFFCURVE",
"264 8 OFFCURVE",
"528 8 CURVE SMOOTH",
"633 8 OFFCURVE",
"724 50 OFFCURVE",
"791 123 CURVE",
"791 21 LINE SMOOTH",
"791 -113 OFFCURVE",
"727 -183 OFFCURVE",
"562 -183 CURVE SMOOTH",
"474 -183 OFFCURVE",
"362 -157 OFFCURVE",
"255 -124 CURVE SMOOTH",
"212 -111 OFFCURVE",
"179 -128 OFFCURVE",
"154 -209 CURVE SMOOTH",
"129 -291 OFFCURVE",
"141 -333 OFFCURVE",
"189 -348 CURVE SMOOTH",
"315 -388 OFFCURVE",
"460 -410 OFFCURVE",
"572 -410 CURVE SMOOTH",
"890 -410 OFFCURVE",
"1041 -255 OFFCURVE",
"1041 1 CURVE SMOOTH",
"1041 719 LINE",
"1128 719 LINE SMOOTH",
"1173 719 OFFCURVE",
"1191 736 OFFCURVE",
"1191 821 CURVE SMOOTH",
"1191 906 OFFCURVE",
"1173 924 OFFCURVE",
"1128 924 CURVE SMOOTH",
"894 924 LINE SMOOTH",
"849 924 OFFCURVE",
"831 906 OFFCURVE",
"831 861 CURVE SMOOTH",
"831 791 LINE",
"762 890 OFFCURVE",
"656 946 OFFCURVE",
"528 946 CURVE SMOOTH"
);
},
{
closed = 1;
nodes = (
"693 719 OFFCURVE",
"798 639 OFFCURVE",
"798 477 CURVE SMOOTH",
"798 315 OFFCURVE",
"693 235 OFFCURVE",
"568 235 CURVE SMOOTH",
"446 235 OFFCURVE",
"365 321 OFFCURVE",
"365 477 CURVE SMOOTH",
"365 633 OFFCURVE",
"446 719 OFFCURVE",
"568 719 CURVE SMOOTH"
);
}
);
width = 1228;
}
);
unicode = 0067;
}
{
glyphname = h;
layers = (
{
layerId = UUID0;
paths = (
{
closed = 1;
nodes = (
"140 1312 LINE SMOOTH",
"95 1312 OFFCURVE",
"77 1294 OFFCURVE",
"77 1244 CURVE SMOOTH",
"77 1194 OFFCURVE",
"95 1176 OFFCURVE",
"140 1176 CURVE SMOOTH",
"232 1176 LINE",
"232 136 LINE",
"150 136 LINE SMOOTH",
"105 136 OFFCURVE",
"87 118 OFFCURVE",
"87 68 CURVE SMOOTH",
"87 18 OFFCURVE",
"105 0 OFFCURVE",
"150 0 CURVE SMOOTH",
"474 0 LINE SMOOTH",
"519 0 OFFCURVE",
"537 18 OFFCURVE",
"537 68 CURVE SMOOTH",
"537 118 OFFCURVE",
"519 136 OFFCURVE",
"474 136 CURVE SMOOTH",
"382 136 LINE",
"382 422 LINE SMOOTH",
"382 640 OFFCURVE",
"531 798 OFFCURVE",
"702 798 CURVE SMOOTH",
"811 798 OFFCURVE",
"864 720 OFFCURVE",
"864 605 CURVE SMOOTH",
"864 136 LINE",
"772 136 LINE SMOOTH",
"727 136 OFFCURVE",
"709 118 OFFCURVE",
"709 68 CURVE SMOOTH",
"709 18 OFFCURVE",
"727 0 OFFCURVE",
"772 0 CURVE SMOOTH",
"1096 0 LINE SMOOTH",
"1141 0 OFFCURVE",
"1159 18 OFFCURVE",
"1159 68 CURVE SMOOTH",
"1159 118 OFFCURVE",
"1141 136 OFFCURVE",
"1096 136 CURVE SMOOTH",
"1014 136 LINE",
"1014 620 LINE SMOOTH",
"1014 820 OFFCURVE",
"901 946 OFFCURVE",
"717 946 CURVE SMOOTH",
"585 946 OFFCURVE",
"468 875 OFFCURVE",
"382 746 CURVE",
"382 1244 LINE SMOOTH",
"382 1294 OFFCURVE",
"364 1312 OFFCURVE",
"319 1312 CURVE SMOOTH"
);
}
);
width = 1228;
},
{
layerId = "8538028E-5D6C-4318-9676-30148CDA39CA";
paths = (
{
closed = 1;
nodes = (
"110 1312 LINE SMOOTH",
"65 1312 OFFCURVE",
"47 1294 OFFCURVE",
"47 1209 CURVE SMOOTH",
"47 1124 OFFCURVE",
"65 1107 OFFCURVE",
"110 1107 CURVE SMOOTH",
"207 1107 LINE",
"207 205 LINE",
"130 205 LINE SMOOTH",
"85 205 OFFCURVE",
"67 187 OFFCURVE",
"67 102 CURVE SMOOTH",
"67 17 OFFCURVE",
"85 0 OFFCURVE",
"130 0 CURVE SMOOTH",
"504 0 LINE SMOOTH",
"549 0 OFFCURVE",
"567 17 OFFCURVE",
"567 102 CURVE SMOOTH",
"567 187 OFFCURVE",
"549 205 OFFCURVE",
"504 205 CURVE SMOOTH",
"457 205 LINE",
"457 368 LINE SMOOTH",
"457 556 OFFCURVE",
"563 719 OFFCURVE",
"682 719 CURVE SMOOTH",
"770 719 OFFCURVE",
"799 659 OFFCURVE",
"799 561 CURVE SMOOTH",
"799 205 LINE",
"752 205 LINE SMOOTH",
"707 205 OFFCURVE",
"689 187 OFFCURVE",
"689 102 CURVE SMOOTH",
"689 17 OFFCURVE",
"707 0 OFFCURVE",
"752 0 CURVE SMOOTH",
"1126 0 LINE SMOOTH",
"1171 0 OFFCURVE",
"1189 17 OFFCURVE",
"1189 102 CURVE SMOOTH",
"1189 187 OFFCURVE",
"1171 205 OFFCURVE",
"1126 205 CURVE SMOOTH",
"1049 205 LINE",
"1049 620 LINE SMOOTH",
"1049 820 OFFCURVE",
"931 946 OFFCURVE",
"747 946 CURVE SMOOTH",
"637 946 OFFCURVE",
"540 890 OFFCURVE",
"457 763 CURVE",
"457 1249 LINE SMOOTH",
"457 1294 OFFCURVE",
"439 1312 OFFCURVE",
"394 1312 CURVE SMOOTH"
);
}
);
width = 1228;
}
);
unicode = 0068;
}
{
glyphname = p;
layers = (
{
layerId = UUID0;
paths = (
{
closed = 1;
nodes = (
"536 946 OFFCURVE",
"424 883 OFFCURVE",
"342 776 CURVE",
"342 856 LINE SMOOTH",
"342 906 OFFCURVE",
"324 924 OFFCURVE",
"279 924 CURVE SMOOTH",
"120 924 LINE SMOOTH",
"75 924 OFFCURVE",
"57 906 OFFCURVE",
"57 856 CURVE SMOOTH",
"57 806 OFFCURVE",
"75 788 OFFCURVE",
"120 788 CURVE SMOOTH",
"202 788 LINE",
"202 -252 LINE",
"100 -252 LINE SMOOTH",
"55 -252 OFFCURVE",
"37 -270 OFFCURVE",
"37 -320 CURVE SMOOTH",
"37 -370 OFFCURVE",
"55 -388 OFFCURVE",
"100 -388 CURVE SMOOTH",
"524 -388 LINE SMOOTH",
"569 -388 OFFCURVE",
"587 -370 OFFCURVE",
"587 -320 CURVE SMOOTH",
"587 -270 OFFCURVE",
"569 -252 OFFCURVE",
"524 -252 CURVE SMOOTH",
"352 -252 LINE",
"352 143 LINE",
"432 41 OFFCURVE",
"536 -22 OFFCURVE",
"669 -22 CURVE SMOOTH",
"916 -22 OFFCURVE",
"1101 160 OFFCURVE",
"1101 462 CURVE SMOOTH",
"1101 764 OFFCURVE",
"916 946 OFFCURVE",
"669 946 CURVE SMOOTH"
);
},
{
closed = 1;
nodes = (
"840 798 OFFCURVE",
"943 658 OFFCURVE",
"943 462 CURVE SMOOTH",
"943 266 OFFCURVE",
"840 126 OFFCURVE",
"659 126 CURVE SMOOTH",
"482 126 OFFCURVE",
"352 250 OFFCURVE",
"352 462 CURVE SMOOTH",
"352 674 OFFCURVE",
"482 798 OFFCURVE",
"659 798 CURVE SMOOTH"
);
}
);
width = 1228;
},
{
layerId = "8538028E-5D6C-4318-9676-30148CDA39CA";
paths = (
{
closed = 1;
nodes = (
"572 946 OFFCURVE",
"465 882 OFFCURVE",
"397 777 CURVE",
"397 861 LINE SMOOTH",
"397 906 OFFCURVE",
"379 924 OFFCURVE",
"334 924 CURVE SMOOTH",
"100 924 LINE SMOOTH",
"55 924 OFFCURVE",
"37 906 OFFCURVE",
"37 821 CURVE SMOOTH",
"37 736 OFFCURVE",
"55 719 OFFCURVE",
"100 719 CURVE SMOOTH",
"187 719 LINE",
"187 -183 LINE",
"100 -183 LINE SMOOTH",
"55 -183 OFFCURVE",
"37 -201 OFFCURVE",
"37 -286 CURVE SMOOTH",
"37 -371 OFFCURVE",
"55 -388 OFFCURVE",
"100 -388 CURVE SMOOTH",
"604 -388 LINE SMOOTH",
"649 -388 OFFCURVE",
"667 -370 OFFCURVE",
"667 -285 CURVE SMOOTH",
"667 -200 OFFCURVE",
"649 -183 OFFCURVE",
"604 -183 CURVE SMOOTH",
"437 -183 LINE",
"437 96 LINE",
"504 22 OFFCURVE",
"594 -22 OFFCURVE",
"700 -22 CURVE SMOOTH",
"969 -22 OFFCURVE",
"1131 192 OFFCURVE",
"1131 462 CURVE SMOOTH",
"1131 732 OFFCURVE",
"969 946 OFFCURVE",
"700 946 CURVE SMOOTH"
);
},
{
closed = 1;
nodes = (
"785 719 OFFCURVE",
"863 618 OFFCURVE",
"863 462 CURVE SMOOTH",
"863 306 OFFCURVE",
"785 205 OFFCURVE",
"660 205 CURVE SMOOTH",
"535 205 OFFCURVE",
"430 296 OFFCURVE",
"430 462 CURVE SMOOTH",
"430 628 OFFCURVE",
"535 719 OFFCURVE",
"660 719 CURVE SMOOTH"
);
}
);
width = 1228;
}
);
unicode = 0070;
}
{
glyphname = q;
layers = (
{
layerId = UUID0;
paths = (
{
closed = 1;
nodes = (
"312 946 OFFCURVE",
"127 764 OFFCURVE",
"127 462 CURVE SMOOTH",
"127 160 OFFCURVE",
"312 -22 OFFCURVE",
"559 -22 CURVE SMOOTH",
"692 -22 OFFCURVE",
"796 41 OFFCURVE",
"876 143 CURVE",
"876 -252 LINE",
"704 -252 LINE SMOOTH",
"659 -252 OFFCURVE",
"641 -270 OFFCURVE",
"641 -320 CURVE SMOOTH",
"641 -370 OFFCURVE",
"659 -388 OFFCURVE",
"704 -388 CURVE SMOOTH",
"1128 -388 LINE SMOOTH",
"1173 -388 OFFCURVE",
"1191 -370 OFFCURVE",
"1191 -320 CURVE SMOOTH",
"1191 -270 OFFCURVE",
"1173 -252 OFFCURVE",
"1128 -252 CURVE SMOOTH",
"1026 -252 LINE",
"1026 788 LINE",
"1108 788 LINE SMOOTH",
"1153 788 OFFCURVE",
"1171 806 OFFCURVE",
"1171 856 CURVE SMOOTH",
"1171 906 OFFCURVE",
"1153 924 OFFCURVE",
"1108 924 CURVE SMOOTH",
"949 924 LINE SMOOTH",
"904 924 OFFCURVE",
"886 906 OFFCURVE",
"886 856 CURVE SMOOTH",
"886 776 LINE",
"804 883 OFFCURVE",
"692 946 OFFCURVE",
"559 946 CURVE SMOOTH"
);
},
{
closed = 1;
nodes = (
"746 798 OFFCURVE",
"876 674 OFFCURVE",
"876 462 CURVE SMOOTH",
"876 250 OFFCURVE",
"746 126 OFFCURVE",
"569 126 CURVE SMOOTH",
"388 126 OFFCURVE",
"285 266 OFFCURVE",
"285 462 CURVE SMOOTH",
"285 658 OFFCURVE",
"388 798 OFFCURVE",
"569 798 CURVE SMOOTH"
);
}
);
width = 1228;
},
{
layerId = "8538028E-5D6C-4318-9676-30148CDA39CA";
paths = (
{
closed = 1;
nodes = (
"259 946 OFFCURVE",
"97 732 OFFCURVE",
"97 462 CURVE SMOOTH",
"97 192 OFFCURVE",
"259 -22 OFFCURVE",
"528 -22 CURVE SMOOTH",
"634 -22 OFFCURVE",
"724 22 OFFCURVE",
"791 96 CURVE",
"791 -183 LINE",
"624 -183 LINE SMOOTH",
"579 -183 OFFCURVE",
"561 -200 OFFCURVE",
"561 -285 CURVE SMOOTH",
"561 -370 OFFCURVE",
"579 -388 OFFCURVE",
"624 -388 CURVE SMOOTH",
"1128 -388 LINE SMOOTH",
"1173 -388 OFFCURVE",
"1191 -371 OFFCURVE",
"1191 -286 CURVE SMOOTH",
"1191 -201 OFFCURVE",
"1173 -183 OFFCURVE",
"1128 -183 CURVE SMOOTH",
"1041 -183 LINE",
"1041 719 LINE",
"1128 719 LINE SMOOTH",
"1173 719 OFFCURVE",
"1191 736 OFFCURVE",
"1191 821 CURVE SMOOTH",
"1191 906 OFFCURVE",
"1173 924 OFFCURVE",
"1128 924 CURVE SMOOTH",
"894 924 LINE SMOOTH",
"849 924 OFFCURVE",
"831 906 OFFCURVE",
"831 861 CURVE SMOOTH",
"831 777 LINE",
"763 882 OFFCURVE",
"656 946 OFFCURVE",
"528 946 CURVE SMOOTH"
);
},
{
closed = 1;
nodes = (
"693 719 OFFCURVE",
"798 628 OFFCURVE",
"798 462 CURVE SMOOTH",
"798 296 OFFCURVE",
"693 205 OFFCURVE",
"568 205 CURVE SMOOTH",
"443 205 OFFCURVE",
"365 306 OFFCURVE",
"365 462 CURVE SMOOTH",
"365 618 OFFCURVE",
"443 719 OFFCURVE",
"568 719 CURVE SMOOTH"
);
}
);
width = 1228;
}
);
unicode = 0071;
}
{
glyphname = r;
layers = (
{
layerId = UUID0;
paths = (
{
closed = 1;
nodes = (
"768 946 OFFCURVE",
"605 832 OFFCURVE",
"507 654 CURVE",
"507 856 LINE SMOOTH",
"507 906 OFFCURVE",
"489 924 OFFCURVE",
"444 924 CURVE SMOOTH",
"240 924 LINE SMOOTH",
"195 924 OFFCURVE",
"177 906 OFFCURVE",
"177 856 CURVE SMOOTH",
"177 806 OFFCURVE",
"195 788 OFFCURVE",
"240 788 CURVE SMOOTH",
"367 788 LINE",
"367 136 LINE",
"210 136 LINE SMOOTH",
"165 136 OFFCURVE",
"147 118 OFFCURVE",
"147 68 CURVE SMOOTH",
"147 18 OFFCURVE",
"165 0 OFFCURVE",
"210 0 CURVE SMOOTH",
"854 0 LINE SMOOTH",
"899 0 OFFCURVE",
"917 18 OFFCURVE",
"917 68 CURVE SMOOTH",
"917 118 OFFCURVE",
"899 136 OFFCURVE",
"854 136 CURVE SMOOTH",
"517 136 LINE",
"517 330 LINE SMOOTH",
"517 573 OFFCURVE",
"725 780 OFFCURVE",
"906 780 CURVE SMOOTH",
"943 780 OFFCURVE",
"978 771 OFFCURVE",
"1011 753 CURVE SMOOTH",
"1049 731 OFFCURVE",
"1079 754 OFFCURVE",
"1097 802 CURVE SMOOTH",
"1115 851 OFFCURVE",
"1105 883 OFFCURVE",
"1066 906 CURVE SMOOTH",
"1020 933 OFFCURVE",
"971 946 OFFCURVE",
"920 946 CURVE SMOOTH"
);
}
);
width = 1228;
},
{
layerId = "8538028E-5D6C-4318-9676-30148CDA39CA";
paths = (
{
closed = 1;
nodes = (
"794 946 OFFCURVE",
"658 838 OFFCURVE",
"557 644 CURVE",
"557 861 LINE SMOOTH",
"557 906 OFFCURVE",
"539 924 OFFCURVE",
"494 924 CURVE SMOOTH",
"220 924 LINE SMOOTH",
"175 924 OFFCURVE",
"157 906 OFFCURVE",
"157 821 CURVE SMOOTH",
"157 736 OFFCURVE",
"175 719 OFFCURVE",
"220 719 CURVE SMOOTH",
"337 719 LINE",
"337 205 LINE",
"190 205 LINE SMOOTH",
"145 205 OFFCURVE",
"127 187 OFFCURVE",
"127 102 CURVE SMOOTH",
"127 17 OFFCURVE",
"145 0 OFFCURVE",
"190 0 CURVE SMOOTH",
"874 0 LINE SMOOTH",
"919 0 OFFCURVE",
"937 17 OFFCURVE",
"937 102 CURVE SMOOTH",
"937 187 OFFCURVE",
"919 205 OFFCURVE",
"874 205 CURVE SMOOTH",
"587 205 LINE",
"587 300 LINE SMOOTH",
"587 518 OFFCURVE",
"725 676 OFFCURVE",
"879 676 CURVE SMOOTH",
"917 676 OFFCURVE",
"957 666 OFFCURVE",
"995 645 CURVE SMOOTH",
"1037 622 OFFCURVE",
"1081 647 OFFCURVE",
"1113 728 CURVE SMOOTH",
"1143 803 OFFCURVE",
"1136 853 OFFCURVE",
"1087 890 CURVE SMOOTH",
"1036 928 OFFCURVE",
"982 946 OFFCURVE",
"927 946 CURVE SMOOTH"
);
}
);
width = 1228;
}
);
unicode = 0072;
}
{
glyphname = s;
layers = (
{
layerId = UUID0;
paths = (
{
closed = 1;
nodes = (
"873 946 OFFCURVE",
"854 927 OFFCURVE",
"854 881 CURVE SMOOTH",
"854 836 LINE",
"779 904 OFFCURVE",
"670 946 OFFCURVE",
"538 946 CURVE SMOOTH",
"336 946 OFFCURVE",
"184 849 OFFCURVE",
"184 670 CURVE SMOOTH",
"184 553 OFFCURVE",
"248 491 OFFCURVE",
"338 455 CURVE SMOOTH",
"482 398 OFFCURVE",
"691 408 OFFCURVE",
"807 369 CURVE SMOOTH",
"859 352 OFFCURVE",
"892 325 OFFCURVE",
"892 277 CURVE SMOOTH",
"892 186 OFFCURVE",
"811 123 OFFCURVE",
"652 123 CURVE SMOOTH",
"467 123 OFFCURVE",
"357 178 OFFCURVE",
"308 307 CURVE SMOOTH",
"297 335 OFFCURVE",
"283 348 OFFCURVE",
"254 348 CURVE SMOOTH",
"198 348 OFFCURVE",
"179 329 OFFCURVE",
"179 283 CURVE SMOOTH",
"179 43 LINE SMOOTH",
"179 -3 OFFCURVE",
"198 -22 OFFCURVE",
"254 -22 CURVE SMOOTH",
"310 -22 OFFCURVE",
"329 -3 OFFCURVE",
"329 43 CURVE SMOOTH",
"329 99 LINE",
"410 18 OFFCURVE",
"517 -22 OFFCURVE",
"662 -22 CURVE SMOOTH",
"911 -22 OFFCURVE",
"1050 98 OFFCURVE",
"1050 277 CURVE SMOOTH",
"1050 404 OFFCURVE",
"979 470 OFFCURVE",
"881 506 CURVE SMOOTH",
"736 559 OFFCURVE",
"534 549 OFFCURVE",
"423 585 CURVE SMOOTH",
"373 601 OFFCURVE",
"342 626 OFFCURVE",
"342 670 CURVE SMOOTH",
"342 753 OFFCURVE",
"419 801 OFFCURVE",
"548 801 CURVE SMOOTH",
"704 801 OFFCURVE",
"821 768 OFFCURVE",
"881 652 CURVE SMOOTH",
"890 635 OFFCURVE",
"905 626 OFFCURVE",
"929 626 CURVE SMOOTH",
"985 626 OFFCURVE",
"1004 645 OFFCURVE",
"1004 691 CURVE SMOOTH",
"1004 881 LINE SMOOTH",
"1004 927 OFFCURVE",
"985 946 OFFCURVE",
"929 946 CURVE SMOOTH"
);
}
);
width = 1228;
},
{
layerId = "8538028E-5D6C-4318-9676-30148CDA39CA";
paths = (
{
closed = 1;
nodes = (
"821 946 OFFCURVE",
"794 928 OFFCURVE",
"794 883 CURVE SMOOTH",
"794 873 LINE",
"720 919 OFFCURVE",
"634 946 OFFCURVE",
"526 946 CURVE SMOOTH",
"320 946 OFFCURVE",
"164 838 OFFCURVE",
"164 660 CURVE SMOOTH",
"164 536 OFFCURVE",
"222 464 OFFCURVE",
"302 420 CURVE SMOOTH",
"429 350 OFFCURVE",
"614 350 OFFCURVE",
"723 326 CURVE SMOOTH",
"777 314 OFFCURVE",
"812 296 OFFCURVE",
"812 261 CURVE SMOOTH",
"812 208 OFFCURVE",
"763 178 OFFCURVE",
"652 178 CURVE SMOOTH",
"537 178 OFFCURVE",
"424 210 OFFCURVE",
"353 299 CURVE SMOOTH",
"339 317 OFFCURVE",
"314 327 OFFCURVE",
"270 327 CURVE SMOOTH",
"205 327 OFFCURVE",
"174 309 OFFCURVE",
"174 264 CURVE SMOOTH",
"174 41 LINE SMOOTH",
"174 -4 OFFCURVE",
"207 -22 OFFCURVE",
"292 -22 CURVE SMOOTH",
"377 -22 OFFCURVE",
"414 -4 OFFCURVE",
"414 41 CURVE SMOOTH",
"414 49 LINE",
"486 6 OFFCURVE",
"569 -22 OFFCURVE",
"672 -22 CURVE SMOOTH",
"928 -22 OFFCURVE",
"1070 98 OFFCURVE",
"1070 287 CURVE SMOOTH",
"1070 424 OFFCURVE",
"997 495 OFFCURVE",
"900 535 CURVE SMOOTH",
"769 589 OFFCURVE",
"594 585 OFFCURVE",
"496 609 CURVE SMOOTH",
"451 620 OFFCURVE",
"422 638 OFFCURVE",
"422 669 CURVE SMOOTH",
"422 714 OFFCURVE",
"467 746 OFFCURVE",
"548 746 CURVE SMOOTH",
"675 746 OFFCURVE",
"777 717 OFFCURVE",
"859 630 CURVE SMOOTH",
"873 615 OFFCURVE",
"897 609 OFFCURVE",
"932 609 CURVE SMOOTH",
"997 609 OFFCURVE",
"1024 627 OFFCURVE",
"1024 672 CURVE SMOOTH",
"1024 883 LINE SMOOTH",
"1024 928 OFFCURVE",
"991 946 OFFCURVE",
"906 946 CURVE SMOOTH"
);
}
);
width = 1228;
}
);
unicode = 0073;
}
{
glyphname = x;
layers = (
{
layerId = UUID0;
paths = (
{
closed = 1;
nodes = (
"781 924 LINE SMOOTH",
"736 924 OFFCURVE",
"718 906 OFFCURVE",
"718 856 CURVE SMOOTH",
"718 806 OFFCURVE",
"736 788 OFFCURVE",
"781 788 CURVE SMOOTH",
"836 788 LINE",
"623 558 LINE",
"411 788 LINE",
"487 788 LINE SMOOTH",
"532 788 OFFCURVE",
"550 806 OFFCURVE",
"550 856 CURVE SMOOTH",
"550 906 OFFCURVE",
"532 924 OFFCURVE",
"487 924 CURVE SMOOTH",
"143 924 LINE SMOOTH",
"98 924 OFFCURVE",
"80 906 OFFCURVE",
"80 856 CURVE SMOOTH",
"80 806 OFFCURVE",
"98 788 OFFCURVE",
"143 788 CURVE SMOOTH",
"214 788 LINE",
"508 477 LINE",
"183 136 LINE",
"133 136 LINE SMOOTH",
"88 136 OFFCURVE",
"70 118 OFFCURVE",
"70 68 CURVE SMOOTH",
"70 18 OFFCURVE",
"88 0 OFFCURVE",
"133 0 CURVE SMOOTH",
"447 0 LINE SMOOTH",
"492 0 OFFCURVE",
"510 18 OFFCURVE",
"510 68 CURVE SMOOTH",
"510 118 OFFCURVE",
"492 136 OFFCURVE",
"447 136 CURVE SMOOTH",
"368 136 LINE",
"607 394 LINE",
"847 136 LINE",
"751 136 LINE SMOOTH",
"706 136 OFFCURVE",
"688 118 OFFCURVE",
"688 68 CURVE SMOOTH",
"688 18 OFFCURVE",
"706 0 OFFCURVE",
"751 0 CURVE SMOOTH",
"1095 0 LINE SMOOTH",
"1140 0 OFFCURVE",
"1158 18 OFFCURVE",
"1158 68 CURVE SMOOTH",
"1158 118 OFFCURVE",
"1140 136 OFFCURVE",
"1095 136 CURVE SMOOTH",
"1044 136 LINE",
"723 475 LINE",
"1020 788 LINE",
"1085 788 LINE SMOOTH",
"1130 788 OFFCURVE",
"1148 806 OFFCURVE",
"1148 856 CURVE SMOOTH",
"1148 906 OFFCURVE",
"1130 924 OFFCURVE",
"1085 924 CURVE SMOOTH"
);
}
);
width = 1228;
},
{
layerId = "8538028E-5D6C-4318-9676-30148CDA39CA";
paths = (
{
closed = 1;
nodes = (
"731 924 LINE SMOOTH",
"686 924 OFFCURVE",
"668 906 OFFCURVE",
"668 821 CURVE SMOOTH",
"668 736 OFFCURVE",
"686 719 OFFCURVE",
"731 719 CURVE SMOOTH",
"753 719 LINE",
"632 588 LINE",
"504 719 LINE",
"517 719 LINE SMOOTH",
"562 719 OFFCURVE",
"580 736 OFFCURVE",
"580 821 CURVE SMOOTH",
"580 906 OFFCURVE",
"562 924 OFFCURVE",
"517 924 CURVE SMOOTH",
"143 924 LINE SMOOTH",
"98 924 OFFCURVE",
"80 906 OFFCURVE",
"80 821 CURVE SMOOTH",
"80 736 OFFCURVE",
"98 719 OFFCURVE",
"143 719 CURVE SMOOTH",
"195 719 LINE",
"441 469 LINE",
"187 205 LINE",
"133 205 LINE SMOOTH",
"88 205 OFFCURVE",
"70 187 OFFCURVE",
"70 102 CURVE SMOOTH",
"70 17 OFFCURVE",
"88 0 OFFCURVE",
"133 0 CURVE SMOOTH",
"487 0 LINE SMOOTH",
"532 0 OFFCURVE",
"550 17 OFFCURVE",
"550 102 CURVE SMOOTH",
"550 187 OFFCURVE",
"532 205 OFFCURVE",
"487 205 CURVE SMOOTH",
"470 205 LINE",
"594 339 LINE",
"725 205 LINE",
"711 205 LINE SMOOTH",
"666 205 OFFCURVE",
"648 187 OFFCURVE",
"648 102 CURVE SMOOTH",
"648 17 OFFCURVE",
"666 0 OFFCURVE",
"711 0 CURVE SMOOTH",
"1095 0 LINE SMOOTH",
"1140 0 OFFCURVE",
"1158 17 OFFCURVE",
"1158 102 CURVE SMOOTH",
"1158 187 OFFCURVE",
"1140 205 OFFCURVE",
"1095 205 CURVE SMOOTH",
"1044 205 LINE",
"785 468 LINE",
"1026 719 LINE",
"1085 719 LINE SMOOTH",
"1130 719 OFFCURVE",
"1148 736 OFFCURVE",
"1148 821 CURVE SMOOTH",
"1148 906 OFFCURVE",
"1130 924 OFFCURVE",
"1085 924 CURVE SMOOTH"
);
}
);
width = 1228;
}
);
unicode = 0078;
}
{
glyphname = y;
layers = (
{
layerId = UUID0;
paths = (
{
closed = 1;
nodes = (
"801 924 LINE SMOOTH",
"756 924 OFFCURVE",
"738 906 OFFCURVE",
"738 856 CURVE SMOOTH",
"738 806 OFFCURVE",
"756 788 OFFCURVE",
"801 788 CURVE SMOOTH",
"890 788 LINE",
"621 226 LINE",
"339 788 LINE",
"467 788 LINE SMOOTH",
"512 788 OFFCURVE",
"530 806 OFFCURVE",
"530 856 CURVE SMOOTH",
"530 906 OFFCURVE",
"512 924 OFFCURVE",
"467 924 CURVE SMOOTH",
"113 924 LINE SMOOTH",
"68 924 OFFCURVE",
"50 906 OFFCURVE",
"50 856 CURVE SMOOTH",
"50 806 OFFCURVE",
"68 788 OFFCURVE",
"113 788 CURVE SMOOTH",
"176 788 LINE",
"542 70 LINE",
"411 -195 OFFCURVE",
"354 -249 OFFCURVE",
"169 -259 CURVE SMOOTH",
"133 -261 OFFCURVE",
"112 -285 OFFCURVE",
"117 -343 CURVE SMOOTH",
"122 -396 OFFCURVE",
"150 -411 OFFCURVE",
"189 -410 CURVE SMOOTH",
"409 -402 OFFCURVE",
"517 -310 OFFCURVE",
"644 -50 CURVE SMOOTH",
"1053 788 LINE",
"1115 788 LINE SMOOTH",
"1160 788 OFFCURVE",
"1178 806 OFFCURVE",
"1178 856 CURVE SMOOTH",
"1178 906 OFFCURVE",
"1160 924 OFFCURVE",
"1115 924 CURVE SMOOTH"
);
}
);
width = 1228;
},
{
layerId = "8538028E-5D6C-4318-9676-30148CDA39CA";
paths = (
{
closed = 1;
nodes = (
"741 924 LINE SMOOTH",
"696 924 OFFCURVE",
"678 906 OFFCURVE",
"678 821 CURVE SMOOTH",
"678 736 OFFCURVE",
"696 719 OFFCURVE",
"741 719 CURVE SMOOTH",
"795 719 LINE",
"621 339 LINE",
"447 719 LINE",
"507 719 LINE SMOOTH",
"552 719 OFFCURVE",
"570 736 OFFCURVE",
"570 821 CURVE SMOOTH",
"570 906 OFFCURVE",
"552 924 OFFCURVE",
"507 924 CURVE SMOOTH",
"103 924 LINE SMOOTH",
"58 924 OFFCURVE",
"40 906 OFFCURVE",
"40 821 CURVE SMOOTH",
"40 736 OFFCURVE",
"58 719 OFFCURVE",
"103 719 CURVE SMOOTH",
"178 719 LINE",
"484 90 LINE",
"378 -116 OFFCURVE",
"325 -175 OFFCURVE",
"168 -184 CURVE SMOOTH",
"132 -186 OFFCURVE",
"112 -216 OFFCURVE",
"117 -307 CURVE SMOOTH",
"122 -390 OFFCURVE",
"150 -411 OFFCURVE",
"189 -410 CURVE SMOOTH",
"439 -402 OFFCURVE",
"541 -334 OFFCURVE",
"678 -57 CURVE SMOOTH",
"1061 719 LINE",
"1125 719 LINE SMOOTH",
"1170 719 OFFCURVE",
"1188 736 OFFCURVE",
"1188 821 CURVE SMOOTH",
"1188 906 OFFCURVE",
"1170 924 OFFCURVE",
"1125 924 CURVE SMOOTH"
);
}
);
width = 1228;
}
);
unicode = 0079;
}
{
color = 6;
glyphname = hbar;
layers = (
{
layerId = UUID0;
paths = (
{
closed = 1;
nodes = (
"295 1312 LINE SMOOTH",
"250 1312 OFFCURVE",
"232 1294 OFFCURVE",
"232 1244 CURVE SMOOTH",
"232 136 LINE",
"150 136 LINE SMOOTH",
"105 136 OFFCURVE",
"87 118 OFFCURVE",
"87 68 CURVE SMOOTH",
"87 18 OFFCURVE",
"105 0 OFFCURVE",
"150 0 CURVE SMOOTH",
"474 0 LINE SMOOTH",
"519 0 OFFCURVE",
"537 18 OFFCURVE",
"537 68 CURVE SMOOTH",
"537 118 OFFCURVE",
"519 136 OFFCURVE",
"474 136 CURVE SMOOTH",
"382 136 LINE",
"382 362 LINE SMOOTH",
"382 580 OFFCURVE",
"531 738 OFFCURVE",
"702 738 CURVE SMOOTH",
"811 738 OFFCURVE",
"864 660 OFFCURVE",
"864 545 CURVE SMOOTH",
"864 136 LINE",
"772 136 LINE SMOOTH",
"727 136 OFFCURVE",
"709 118 OFFCURVE",
"709 68 CURVE SMOOTH",
"709 18 OFFCURVE",
"727 0 OFFCURVE",
"772 0 CURVE SMOOTH",
"1096 0 LINE SMOOTH",
"1141 0 OFFCURVE",
"1159 18 OFFCURVE",
"1159 68 CURVE SMOOTH",
"1159 118 OFFCURVE",
"1141 136 OFFCURVE",
"1096 136 CURVE SMOOTH",
"1014 136 LINE",
"1014 560 LINE SMOOTH",
"1014 760 OFFCURVE",
"901 886 OFFCURVE",
"717 886 CURVE SMOOTH",
"585 886 OFFCURVE",
"468 815 OFFCURVE",
"382 686 CURVE",
"382 1244 LINE SMOOTH",
"382 1294 OFFCURVE",
"364 1312 OFFCURVE",
"319 1312 CURVE SMOOTH"
);
},
{
closed = 1;
nodes = (
"83 1106 LINE SMOOTH",
"38 1106 OFFCURVE",
"20 1088 OFFCURVE",
"20 1038 CURVE SMOOTH",
"20 988 OFFCURVE",
"38 970 OFFCURVE",
"83 970 CURVE SMOOTH",
"625 970 LINE SMOOTH",
"670 970 OFFCURVE",
"688 988 OFFCURVE",
"688 1038 CURVE SMOOTH",
"688 1088 OFFCURVE",
"670 1106 OFFCURVE",
"625 1106 CURVE SMOOTH"
);
},
{
closed = 1;
nodes = (
"140 1312 LINE SMOOTH",
"95 1312 OFFCURVE",
"77 1294 OFFCURVE",
"77 1244 CURVE SMOOTH",
"77 1194 OFFCURVE",
"95 1176 OFFCURVE",
"140 1176 CURVE SMOOTH",
"307 1176 LINE",
"307 1312 LINE"
);
}
);
width = 1228;
},
{
layerId = "8538028E-5D6C-4318-9676-30148CDA39CA";
paths = (
{
closed = 1;
nodes = (
"270 1312 LINE SMOOTH",
"225 1312 OFFCURVE",
"207 1294 OFFCURVE",
"207 1249 CURVE SMOOTH",
"207 205 LINE",
"130 205 LINE SMOOTH",
"85 205 OFFCURVE",
"67 187 OFFCURVE",
"67 102 CURVE SMOOTH",
"67 17 OFFCURVE",
"85 0 OFFCURVE",
"130 0 CURVE SMOOTH",
"504 0 LINE SMOOTH",
"549 0 OFFCURVE",
"567 17 OFFCURVE",
"567 102 CURVE SMOOTH",
"567 187 OFFCURVE",
"549 205 OFFCURVE",
"504 205 CURVE SMOOTH",
"457 205 LINE",
"457 308 LINE SMOOTH",
"457 476 OFFCURVE",
"563 619 OFFCURVE",
"682 619 CURVE SMOOTH",
"770 619 OFFCURVE",
"799 567 OFFCURVE",
"799 481 CURVE SMOOTH",
"799 205 LINE",
"752 205 LINE SMOOTH",
"707 205 OFFCURVE",
"689 187 OFFCURVE",
"689 102 CURVE SMOOTH",
"689 17 OFFCURVE",
"707 0 OFFCURVE",
"752 0 CURVE SMOOTH",
"1126 0 LINE SMOOTH",
"1171 0 OFFCURVE",
"1189 17 OFFCURVE",
"1189 102 CURVE SMOOTH",
"1189 187 OFFCURVE",
"1171 205 OFFCURVE",
"1126 205 CURVE SMOOTH",
"1049 205 LINE",
"1049 520 LINE SMOOTH",
"1049 720 OFFCURVE",
"931 846 OFFCURVE",
"747 846 CURVE SMOOTH",
"637 846 OFFCURVE",
"537 793 OFFCURVE",
"457 683 CURVE",
"457 1249 LINE SMOOTH",
"457 1294 OFFCURVE",
"439 1312 OFFCURVE",
"394 1312 CURVE SMOOTH"
);
},
{
closed = 1;
nodes = (
"93 1155 LINE SMOOTH",
"48 1155 OFFCURVE",
"30 1137 OFFCURVE",
"30 1052 CURVE SMOOTH",
"30 967 OFFCURVE",
"48 950 OFFCURVE",
"93 950 CURVE SMOOTH",
"655 950 LINE SMOOTH",
"700 950 OFFCURVE",
"718 967 OFFCURVE",
"718 1052 CURVE SMOOTH",
"718 1137 OFFCURVE",
"700 1155 OFFCURVE",
"655 1155 CURVE SMOOTH"
);
},
{
closed = 1;
nodes = (
"274 1312 LINE SMOOTH",
"229 1312 OFFCURVE",
"211 1295 OFFCURVE",
"211 1210 CURVE SMOOTH",
"211 1125 OFFCURVE",
"229 1107 OFFCURVE",
"274 1107 CURVE SMOOTH",
"360 1107 LINE",
"360 1312 LINE"
);
}
);
width = 1228;
}
);
unicode = 0127;
}
{
glyphname = idotless;
layers = (
{
layerId = UUID0;
paths = (
{
closed = 1;
nodes = (
"310 924 LINE SMOOTH",
"265 924 OFFCURVE",
"247 906 OFFCURVE",
"247 856 CURVE SMOOTH",
"247 806 OFFCURVE",
"265 788 OFFCURVE",
"310 788 CURVE SMOOTH",
"563 788 LINE",
"563 136 LINE",
"250 136 LINE SMOOTH",
"205 136 OFFCURVE",
"187 118 OFFCURVE",
"187 68 CURVE SMOOTH",
"187 18 OFFCURVE",
"205 0 OFFCURVE",
"250 0 CURVE SMOOTH",
"1034 0 LINE SMOOTH",
"1079 0 OFFCURVE",
"1097 18 OFFCURVE",
"1097 68 CURVE SMOOTH",
"1097 118 OFFCURVE",
"1079 136 OFFCURVE",
"1034 136 CURVE SMOOTH",
"713 136 LINE",
"713 856 LINE SMOOTH",
"713 906 OFFCURVE",
"695 924 OFFCURVE",
"650 924 CURVE SMOOTH"
);
}
);
width = 1228;
},
{
layerId = "8538028E-5D6C-4318-9676-30148CDA39CA";
paths = (
{
closed = 1;
nodes = (
"290 924 LINE SMOOTH",
"245 924 OFFCURVE",
"227 906 OFFCURVE",
"227 821 CURVE SMOOTH",
"227 736 OFFCURVE",
"245 719 OFFCURVE",
"290 719 CURVE SMOOTH",
"503 719 LINE",
"503 205 LINE",
"230 205 LINE SMOOTH",
"185 205 OFFCURVE",
"167 187 OFFCURVE",
"167 102 CURVE SMOOTH",
"167 17 OFFCURVE",
"185 0 OFFCURVE",
"230 0 CURVE SMOOTH",
"1034 0 LINE SMOOTH",
"1079 0 OFFCURVE",
"1097 17 OFFCURVE",
"1097 102 CURVE SMOOTH",
"1097 187 OFFCURVE",
"1079 205 OFFCURVE",
"1034 205 CURVE SMOOTH",
"753 205 LINE",
"753 861 LINE SMOOTH",
"753 906 OFFCURVE",
"735 924 OFFCURVE",
"690 924 CURVE SMOOTH"
);
}
);
width = 1228;
}
);
unicode = 0131;
}
{
glyphname = OE;
layers = (
{
layerId = UUID0;
paths = (
{
closed = 1;
nodes = (
"574 1187 LINE SMOOTH",
"264 1187 OFFCURVE",
"62 963 OFFCURVE",
"62 593 CURVE SMOOTH",
"62 223 OFFCURVE",
"264 0 OFFCURVE",
"574 0 CURVE SMOOTH",
"1075 0 LINE SMOOTH",
"1120 0 OFFCURVE",
"1138 18 OFFCURVE",
"1138 68 CURVE SMOOTH",
"1138 365 LINE SMOOTH",
"1138 411 OFFCURVE",
"1119 430 OFFCURVE",
"1063 430 CURVE SMOOTH",
"1007 430 OFFCURVE",
"988 411 OFFCURVE",
"988 365 CURVE SMOOTH",
"988 136 LINE",
"716 136 LINE",
"716 549 LINE",
"908 549 LINE SMOOTH",
"953 549 OFFCURVE",
"971 567 OFFCURVE",
"971 617 CURVE SMOOTH",
"971 667 OFFCURVE",
"953 685 OFFCURVE",
"908 685 CURVE SMOOTH",
"716 685 LINE",
"716 1051 LINE",
"976 1051 LINE",
"976 865 LINE SMOOTH",
"976 819 OFFCURVE",
"995 800 OFFCURVE",
"1051 800 CURVE SMOOTH",
"1107 800 OFFCURVE",
"1126 819 OFFCURVE",
"1126 865 CURVE SMOOTH",
"1126 1119 LINE SMOOTH",
"1126 1169 OFFCURVE",
"1108 1187 OFFCURVE",
"1063 1187 CURVE SMOOTH"
);
},
{
closed = 1;
nodes = (
"566 136 LINE",
"357 144 OFFCURVE",
"220 302 OFFCURVE",
"220 593 CURVE SMOOTH",
"220 884 OFFCURVE",
"357 1043 OFFCURVE",
"566 1050 CURVE"
);
}
);
width = 1228;
},
{
layerId = "8538028E-5D6C-4318-9676-30148CDA39CA";
paths = (
{
closed = 1;
nodes = (
"594 1187 LINE",
"264 1187 OFFCURVE",
"63 974 OFFCURVE",
"63 594 CURVE SMOOTH",
"63 214 OFFCURVE",
"264 0 OFFCURVE",
"594 0 CURVE SMOOTH",
"1105 0 LINE SMOOTH",
"1151 0 OFFCURVE",
"1170 19 OFFCURVE",
"1170 65 CURVE SMOOTH",
"1170 387 LINE SMOOTH",
"1170 432 OFFCURVE",
"1151 450 OFFCURVE",
"1066 450 CURVE SMOOTH",
"981 450 OFFCURVE",
"950 432 OFFCURVE",
"950 387 CURVE SMOOTH",
"950 205 LINE",
"770 205 LINE",
"770 514 LINE",
"884 514 LINE SMOOTH",
"929 514 OFFCURVE",
"947 536 OFFCURVE",
"947 621 CURVE SMOOTH",
"947 706 OFFCURVE",
"929 729 OFFCURVE",
"884 729 CURVE SMOOTH",
"770 729 LINE",
"770 982 LINE",
"940 982 LINE",
"940 850 LINE SMOOTH",
"940 805 OFFCURVE",
"958 787 OFFCURVE",
"1038 787 CURVE SMOOTH",
"1118 787 OFFCURVE",
"1150 805 OFFCURVE",
"1150 850 CURVE SMOOTH",
"1150 1122 LINE SMOOTH",
"1150 1168 OFFCURVE",
"1131 1187 OFFCURVE",
"1085 1187 CURVE SMOOTH"
);
},
{
closed = 1;
nodes = (
"540 215 LINE",
"403 226 OFFCURVE",
"303 348 OFFCURVE",
"303 594 CURVE SMOOTH",
"303 840 OFFCURVE",
"403 961 OFFCURVE",
"540 972 CURVE"
);
}
);
width = 1228;
}
);
unicode = 0152;
}
{
glyphname = oe;
layers = (
{
layerId = UUID0;
paths = (
{
closed = 1;
nodes = (
"749 946 OFFCURVE",
"667 899 OFFCURVE",
"613 806 CURVE",
"564 897 OFFCURVE",
"488 946 OFFCURVE",
"382 946 CURVE SMOOTH",
"175 946 OFFCURVE",
"70 769 OFFCURVE",
"70 462 CURVE SMOOTH",
"70 155 OFFCURVE",
"175 -22 OFFCURVE",
"382 -22 CURVE SMOOTH",
"487 -22 OFFCURVE",
"564 26 OFFCURVE",
"613 116 CURVE",
"667 23 OFFCURVE",
"750 -22 OFFCURVE",
"853 -22 CURVE SMOOTH",
"948 -22 OFFCURVE",
"1038 14 OFFCURVE",
"1112 84 CURVE SMOOTH",
"1144 114 OFFCURVE",
"1149 149 OFFCURVE",
"1118 187 CURVE SMOOTH",
"1087 225 OFFCURVE",
"1048 226 OFFCURVE",
"1023 201 CURVE SMOOTH",
"967 147 OFFCURVE",
"917 123 OFFCURVE",
"853 123 CURVE SMOOTH",
"764 123 OFFCURVE",
"693 199 OFFCURVE",
"689 440 CURVE",
"1088 440 LINE SMOOTH",
"1133 440 OFFCURVE",
"1151 457 OFFCURVE",
"1151 502 CURVE",
"1144 769 OFFCURVE",
"1065 946 OFFCURVE",
"853 946 CURVE SMOOTH"
);
},
{
closed = 1;
nodes = (
"487 798 OFFCURVE",
"536 697 OFFCURVE",
"536 462 CURVE SMOOTH",
"536 227 OFFCURVE",
"487 126 OFFCURVE",
"382 126 CURVE SMOOTH",
"277 126 OFFCURVE",
"228 227 OFFCURVE",
"228 462 CURVE SMOOTH",
"228 697 OFFCURVE",
"277 798 OFFCURVE",
"382 798 CURVE SMOOTH"
);
},
{
closed = 1;
nodes = (
"946 801 OFFCURVE",
"985 717 OFFCURVE",
"994 580 CURVE",
"694 580 LINE",
"710 739 OFFCURVE",
"763 801 OFFCURVE",
"855 801 CURVE SMOOTH"
);
}
);
width = 1228;
},
{
layerId = "8538028E-5D6C-4318-9676-30148CDA39CA";
paths = (
{
closed = 1;
nodes = (
"762 946 OFFCURVE",
"679 904 OFFCURVE",
"620 836 CURVE",
"568 905 OFFCURVE",
"486 946 OFFCURVE",
"384 946 CURVE SMOOTH",
"125 946 OFFCURVE",
"27 742 OFFCURVE",
"27 462 CURVE SMOOTH",
"27 182 OFFCURVE",
"125 -22 OFFCURVE",
"384 -22 CURVE SMOOTH",
"485 -22 OFFCURVE",
"564 19 OFFCURVE",
"616 84 CURVE",
"669 19 OFFCURVE",
"754 -22 OFFCURVE",
"863 -22 CURVE SMOOTH",
"962 -22 OFFCURVE",
"1060 10 OFFCURVE",
"1145 49 CURVE SMOOTH",
"1191 70 OFFCURVE",
"1201 108 OFFCURVE",
"1176 179 CURVE SMOOTH",
"1155 241 OFFCURVE",
"1125 277 OFFCURVE",
"1076 255 CURVE SMOOTH",
"1007 224 OFFCURVE",
"947 205 OFFCURVE",
"878 205 CURVE SMOOTH",
"790 205 OFFCURVE",
"740 262 OFFCURVE",
"724 370 CURVE",
"1130 370 LINE SMOOTH",
"1175 370 OFFCURVE",
"1193 387 OFFCURVE",
"1193 432 CURVE SMOOTH",
"1193 729 OFFCURVE",
"1116 946 OFFCURVE",
"858 946 CURVE SMOOTH"
);
},
{
closed = 1;
nodes = (
"470 719 OFFCURVE",
"503 638 OFFCURVE",
"503 462 CURVE SMOOTH",
"503 286 OFFCURVE",
"470 205 OFFCURVE",
"384 205 CURVE SMOOTH",
"298 205 OFFCURVE",
"265 286 OFFCURVE",
"265 462 CURVE SMOOTH",
"265 638 OFFCURVE",
"298 719 OFFCURVE",
"384 719 CURVE SMOOTH"
);
},
{
closed = 1;
nodes = (
"929 719 OFFCURVE",
"965 661 OFFCURVE",
"968 565 CURVE",
"724 565 LINE",
"738 665 OFFCURVE",
"781 719 OFFCURVE",
"858 719 CURVE SMOOTH"
);
}
);
width = 1228;
}
);
unicode = 0153;
}
{
color = 6;
glyphname = Tbar;
layers = (
{
layerId = UUID0;
paths = (
{
closed = 1;
nodes = (
"185 1187 LINE SMOOTH",
"140 1187 OFFCURVE",
"122 1169 OFFCURVE",
"122 1119 CURVE SMOOTH",
"122 742 LINE SMOOTH",
"122 696 OFFCURVE",
"141 677 OFFCURVE",
"197 677 CURVE SMOOTH",
"253 677 OFFCURVE",
"272 696 OFFCURVE",
"272 742 CURVE SMOOTH",
"272 1051 LINE",
"539 1051 LINE",
"539 586 LINE",
"333 586 LINE SMOOTH",
"288 586 OFFCURVE",
"270 568 OFFCURVE",
"270 518 CURVE SMOOTH",
"270 468 OFFCURVE",
"288 450 OFFCURVE",
"333 450 CURVE SMOOTH",
"539 450 LINE",
"539 136 LINE",
"303 136 LINE SMOOTH",
"258 136 OFFCURVE",
"240 118 OFFCURVE",
"240 68 CURVE SMOOTH",
"240 18 OFFCURVE",
"258 0 OFFCURVE",
"303 0 CURVE SMOOTH",
"925 0 LINE SMOOTH",
"970 0 OFFCURVE",
"988 18 OFFCURVE",
"988 68 CURVE SMOOTH",
"988 118 OFFCURVE",
"970 136 OFFCURVE",
"925 136 CURVE SMOOTH",
"689 136 LINE",
"689 450 LINE",
"895 450 LINE SMOOTH",
"940 450 OFFCURVE",
"958 468 OFFCURVE",
"958 518 CURVE SMOOTH",
"958 568 OFFCURVE",
"940 586 OFFCURVE",
"895 586 CURVE SMOOTH",
"689 586 LINE",
"689 1051 LINE",
"956 1051 LINE",
"956 742 LINE SMOOTH",
"956 696 OFFCURVE",
"975 677 OFFCURVE",
"1031 677 CURVE SMOOTH",
"1087 677 OFFCURVE",
"1106 696 OFFCURVE",
"1106 742 CURVE SMOOTH",
"1106 1119 LINE SMOOTH",
"1106 1169 OFFCURVE",
"1088 1187 OFFCURVE",
"1043 1187 CURVE SMOOTH"
);
}
);
width = 1228;
},
{
layerId = "8538028E-5D6C-4318-9676-30148CDA39CA";
paths = (
{
closed = 1;
nodes = (
"163 1187 LINE SMOOTH",
"117 1187 OFFCURVE",
"98 1168 OFFCURVE",
"98 1122 CURVE SMOOTH",
"98 700 LINE SMOOTH",
"98 655 OFFCURVE",
"121 637 OFFCURVE",
"196 637 CURVE SMOOTH",
"271 637 OFFCURVE",
"308 655 OFFCURVE",
"308 700 CURVE SMOOTH",
"308 972 LINE",
"489 972 LINE",
"489 565 LINE",
"333 565 LINE SMOOTH",
"288 565 OFFCURVE",
"270 547 OFFCURVE",
"270 462 CURVE SMOOTH",
"270 377 OFFCURVE",
"288 360 OFFCURVE",
"333 360 CURVE SMOOTH",
"489 360 LINE",
"489 205 LINE",
"273 205 LINE SMOOTH",
"228 205 OFFCURVE",
"210 187 OFFCURVE",
"210 102 CURVE SMOOTH",
"210 17 OFFCURVE",
"228 0 OFFCURVE",
"273 0 CURVE SMOOTH",
"955 0 LINE SMOOTH",
"1000 0 OFFCURVE",
"1018 17 OFFCURVE",
"1018 102 CURVE SMOOTH",
"1018 187 OFFCURVE",
"1000 205 OFFCURVE",
"955 205 CURVE SMOOTH",
"739 205 LINE",
"739 360 LINE",
"895 360 LINE SMOOTH",
"940 360 OFFCURVE",
"958 377 OFFCURVE",
"958 462 CURVE SMOOTH",
"958 547 OFFCURVE",
"940 565 OFFCURVE",
"895 565 CURVE SMOOTH",
"739 565 LINE",
"739 972 LINE",
"920 972 LINE",
"920 700 LINE SMOOTH",
"920 655 OFFCURVE",
"943 637 OFFCURVE",
"1018 637 CURVE SMOOTH",
"1093 637 OFFCURVE",
"1130 655 OFFCURVE",
"1130 700 CURVE SMOOTH",
"1130 1122 LINE SMOOTH",
"1130 1168 OFFCURVE",
"1111 1187 OFFCURVE",
"1065 1187 CURVE SMOOTH"
);
}
);
width = 1228;
}
);
unicode = 0166;
}
{
color = 6;
glyphname = tbar;
layers = (
{
components = (
{
name = t;
}
);
layerId = UUID0;
paths = (
{
closed = 1;
nodes = (
"243 576 LINE SMOOTH",
"198 576 OFFCURVE",
"180 558 OFFCURVE",
"180 508 CURVE SMOOTH",
"180 458 OFFCURVE",
"198 440 OFFCURVE",
"243 440 CURVE SMOOTH",
"805 440 LINE SMOOTH",
"850 440 OFFCURVE",
"868 458 OFFCURVE",
"868 508 CURVE SMOOTH",
"868 558 OFFCURVE",
"850 576 OFFCURVE",
"805 576 CURVE SMOOTH"
);
}
);
width = 1228;
},
{
components = (
{
name = t;
}
);
layerId = "8538028E-5D6C-4318-9676-30148CDA39CA";
paths = (
{
closed = 1;
nodes = (
"243 545 LINE SMOOTH",
"198 545 OFFCURVE",
"180 527 OFFCURVE",
"180 442 CURVE SMOOTH",
"180 357 OFFCURVE",
"198 340 OFFCURVE",
"243 340 CURVE SMOOTH",
"805 340 LINE SMOOTH",
"850 340 OFFCURVE",
"868 357 OFFCURVE",
"868 442 CURVE SMOOTH",
"868 527 OFFCURVE",
"850 545 OFFCURVE",
"805 545 CURVE SMOOTH"
);
}
);
width = 1228;
}
);
unicode = 0167;
}
{
glyphname = guilsinglright;
layers = (
{
layerId = UUID0;
paths = (
{
closed = 1;
nodes = (
"501 953 OFFCURVE",
"469 953 OFFCURVE",
"428 918 CURVE SMOOTH",
"390 885 OFFCURVE",
"390 859 OFFCURVE",
"411 835 CURVE SMOOTH",
"657 564 LINE",
"411 293 LINE SMOOTH",
"390 269 OFFCURVE",
"390 243 OFFCURVE",
"428 210 CURVE SMOOTH",
"469 175 OFFCURVE",
"501 175 OFFCURVE",
"520 197 CURVE SMOOTH",
"826 540 LINE SMOOTH",
"838 553 OFFCURVE",
"838 575 OFFCURVE",
"826 588 CURVE SMOOTH",
"520 931 LINE SMOOTH"
);
}
);
width = 1228;
},
{
layerId = "8538028E-5D6C-4318-9676-30148CDA39CA";
paths = (
{
closed = 1;
nodes = (
"562 958 OFFCURVE",
"519 952 OFFCURVE",
"454 907 CURVE SMOOTH",
"391 864 OFFCURVE",
"374 821 OFFCURVE",
"403 786 CURVE SMOOTH",
"612 536 LINE",
"403 285 LINE SMOOTH",
"374 250 OFFCURVE",
"391 207 OFFCURVE",
"454 164 CURVE SMOOTH",
"519 119 OFFCURVE",
"562 113 OFFCURVE",
"586 144 CURVE SMOOTH",
"865 510 LINE SMOOTH",
"877 526 OFFCURVE",
"877 546 OFFCURVE",
"865 561 CURVE SMOOTH",
"586 927 LINE SMOOTH"
);
}
);
width = 1228;
}
);
unicode = 203A;
}
{
color = 4;
glyphname = commaaccentcomb;
layers = (
{
layerId = UUID0;
paths = (
{
closed = 1;
nodes = (
"564 -531 OFFCURVE",
"586 -515 OFFCURVE",
"597 -488 CURVE SMOOTH",
"714 -197 LINE SMOOTH",
"726 -168 OFFCURVE",
"719 -146 OFFCURVE",
"692 -146 CURVE SMOOTH",
"576 -146 LINE SMOOTH",
"554 -146 OFFCURVE",
"539 -157 OFFCURVE",
"534 -178 CURVE SMOOTH",
"471 -465 LINE SMOOTH",
"464 -497 OFFCURVE",
"476 -519 OFFCURVE",
"521 -525 CURVE SMOOTH"
);
}
);
width = 1228;
},
{
layerId = "8538028E-5D6C-4318-9676-30148CDA39CA";
paths = (
{
closed = 1;
nodes = (
"590 -546 OFFCURVE",
"619 -529 OFFCURVE",
"633 -495 CURVE SMOOTH",
"757 -189 LINE SMOOTH",
"767 -165 OFFCURVE",
"760 -146 OFFCURVE",
"737 -146 CURVE SMOOTH",
"531 -146 LINE SMOOTH",
"512 -146 OFFCURVE",
"498 -156 OFFCURVE",
"495 -173 CURVE SMOOTH",
"436 -479 LINE SMOOTH",
"428 -522 OFFCURVE",
"455 -542 OFFCURVE",
"522 -544 CURVE SMOOTH"
);
}
);
width = 1228;
}
);
unicode = 0326;
}
{
glyphname = Delta;
layers = (
{
layerId = UUID0;
paths = (
{
closed = 1;
nodes = (
"564 1209 OFFCURVE",
"530 1191 OFFCURVE",
"514 1144 CURVE SMOOTH",
"153 106 LINE SMOOTH",
"150 97 OFFCURVE",
"147 83 OFFCURVE",
"147 68 CURVE SMOOTH",
"147 18 OFFCURVE",
"165 0 OFFCURVE",
"210 0 CURVE SMOOTH",
"1017 0 LINE SMOOTH",
"1062 0 OFFCURVE",
"1080 18 OFFCURVE",
"1080 68 CURVE SMOOTH",
"1080 83 OFFCURVE",
"1078 97 OFFCURVE",
"1075 106 CURVE SMOOTH",
"718 1144 LINE SMOOTH",
"702 1190 OFFCURVE",
"670 1209 OFFCURVE",
"617 1209 CURVE SMOOTH"
);
},
{
closed = 1;
nodes = (
"906.98 136 LINE",
"321.146 136 LINE",
"615 1022 LINE",
"617 1022 LINE"
);
}
);
width = 1228;
},
{
layerId = "8538028E-5D6C-4318-9676-30148CDA39CA";
paths = (
{
closed = 1;
nodes = (
"524 1209 OFFCURVE",
"480 1192 OFFCURVE",
"465 1144 CURVE SMOOTH",
"152 169 LINE SMOOTH",
"147 154 OFFCURVE",
"145 132 OFFCURVE",
"145 102 CURVE SMOOTH",
"145 17 OFFCURVE",
"163 0 OFFCURVE",
"208 0 CURVE SMOOTH",
"1020 0 LINE SMOOTH",
"1065 0 OFFCURVE",
"1083 17 OFFCURVE",
"1083 102 CURVE SMOOTH",
"1083 132 OFFCURVE",
"1081 154 OFFCURVE",
"1076 169 CURVE SMOOTH",
"767 1144 LINE SMOOTH",
"752 1190 OFFCURVE",
"710 1209 OFFCURVE",
"617 1209 CURVE SMOOTH"
);
},
{
closed = 1;
nodes = (
"800 225 LINE",
"428 225 LINE",
"614 852 LINE",
"618 852 LINE"
);
}
);
width = 1228;
}
);
unicode = 0394;
}
{
glyphname = Theta;
layers = (
{
layerId = UUID0;
paths = (
{
closed = 1;
nodes = (
"299 1209 OFFCURVE",
"88 963 OFFCURVE",
"88 593 CURVE SMOOTH",
"88 223 OFFCURVE",
"299 -22 OFFCURVE",
"614 -22 CURVE SMOOTH",
"929 -22 OFFCURVE",
"1140 223 OFFCURVE",
"1140 593 CURVE SMOOTH",
"1140 963 OFFCURVE",
"929 1209 OFFCURVE",
"614 1209 CURVE SMOOTH"
);
},
{
closed = 1;
nodes = (
"836 1061 OFFCURVE",
"982 881 OFFCURVE",
"982 593 CURVE SMOOTH",
"982 305 OFFCURVE",
"836 126 OFFCURVE",
"614 126 CURVE SMOOTH",
"392 126 OFFCURVE",
"246 305 OFFCURVE",
"246 593 CURVE SMOOTH",
"246 881 OFFCURVE",
"392 1061 OFFCURVE",
"614 1061 CURVE SMOOTH"
);
},
{
closed = 1;
nodes = (
"353 665 LINE SMOOTH",
"308 665 OFFCURVE",
"290 645 OFFCURVE",
"290 593 CURVE SMOOTH",
"290 541 OFFCURVE",
"308 521 OFFCURVE",
"353 521 CURVE SMOOTH",
"875 521 LINE SMOOTH",
"920 521 OFFCURVE",
"938 541 OFFCURVE",
"938 593 CURVE SMOOTH",
"938 645 OFFCURVE",
"920 665 OFFCURVE",
"875 665 CURVE SMOOTH"
);
}
);
width = 1228;
},
{
components = (
{
name = O;
},
{
name = macron.case;
transform = "{1, 0, 0, 1, 1228, 0}";
}
);
layerId = "8538028E-5D6C-4318-9676-30148CDA39CA";
width = 2456;
}
);
unicode = 0398;
}
{
glyphname = emdash;
layers = (
{
layerId = UUID0;
paths = (
{
closed = 1;
nodes = (
"33 650 LINE SMOOTH",
"-12 650 OFFCURVE",
"-30 632 OFFCURVE",
"-30 582 CURVE SMOOTH",
"-30 532 OFFCURVE",
"-12 514 OFFCURVE",
"33 514 CURVE SMOOTH",
"1195 514 LINE SMOOTH",
"1240 514 OFFCURVE",
"1258 532 OFFCURVE",
"1258 582 CURVE SMOOTH",
"1258 632 OFFCURVE",
"1240 650 OFFCURVE",
"1195 650 CURVE SMOOTH"
);
}
);
width = 1228;
},
{
layerId = "8538028E-5D6C-4318-9676-30148CDA39CA";
paths = (
{
closed = 1;
nodes = (
"33 695 LINE SMOOTH",
"-12 695 OFFCURVE",
"-30 677 OFFCURVE",
"-30 582 CURVE SMOOTH",
"-30 487 OFFCURVE",
"-12 470 OFFCURVE",
"33 470 CURVE SMOOTH",
"1195 470 LINE SMOOTH",
"1240 470 OFFCURVE",
"1258 487 OFFCURVE",
"1258 582 CURVE SMOOTH",
"1258 677 OFFCURVE",
"1240 695 OFFCURVE",
"1195 695 CURVE SMOOTH"
);
}
);
width = 1228;
}
);
unicode = 2014;
}
{
glyphname = dagger;
layers = (
{
layerId = UUID0;
paths = (
{
closed = 1;
nodes = (
"564 1209 OFFCURVE",
"546 1191 OFFCURVE",
"546 1146 CURVE SMOOTH",
"546 924 LINE",
"353 924 LINE SMOOTH",
"308 924 OFFCURVE",
"290 906 OFFCURVE",
"290 856 CURVE SMOOTH",
"290 806 OFFCURVE",
"308 788 OFFCURVE",
"353 788 CURVE SMOOTH",
"546 788 LINE",
"546 344 LINE SMOOTH",
"546 299 OFFCURVE",
"564 281 OFFCURVE",
"614 281 CURVE SMOOTH",
"664 281 OFFCURVE",
"682 299 OFFCURVE",
"682 344 CURVE SMOOTH",
"682 788 LINE",
"875 788 LINE SMOOTH",
"920 788 OFFCURVE",
"938 806 OFFCURVE",
"938 856 CURVE SMOOTH",
"938 906 OFFCURVE",
"920 924 OFFCURVE",
"875 924 CURVE SMOOTH",
"682 924 LINE",
"682 1146 LINE SMOOTH",
"682 1191 OFFCURVE",
"664 1209 OFFCURVE",
"614 1209 CURVE SMOOTH"
);
}
);
width = 1228;
},
{
layerId = "8538028E-5D6C-4318-9676-30148CDA39CA";
paths = (
{
closed = 1;
nodes = (
"519 1209 OFFCURVE",
"501 1191 OFFCURVE",
"501 1146 CURVE SMOOTH",
"501 924 LINE",
"313 924 LINE SMOOTH",
"268 924 OFFCURVE",
"250 906 OFFCURVE",
"250 811 CURVE SMOOTH",
"250 716 OFFCURVE",
"268 699 OFFCURVE",
"313 699 CURVE SMOOTH",
"501 699 LINE",
"501 311 LINE SMOOTH",
"501 266 OFFCURVE",
"519 248 OFFCURVE",
"614 248 CURVE SMOOTH",
"709 248 OFFCURVE",
"726 266 OFFCURVE",
"726 311 CURVE SMOOTH",
"726 699 LINE",
"915 699 LINE SMOOTH",
"960 699 OFFCURVE",
"978 716 OFFCURVE",
"978 811 CURVE SMOOTH",
"978 906 OFFCURVE",
"960 924 OFFCURVE",
"915 924 CURVE SMOOTH",
"726 924 LINE",
"726 1146 LINE SMOOTH",
"726 1191 OFFCURVE",
"709 1209 OFFCURVE",
"614 1209 CURVE SMOOTH"
);
}
);
width = 1228;
}
);
unicode = 2020;
}
{
glyphname = daggerdbl;
layers = (
{
layerId = UUID0;
paths = (
{
closed = 1;
nodes = (
"564 1209 OFFCURVE",
"546 1191 OFFCURVE",
"546 1146 CURVE SMOOTH",
"546 974 LINE",
"353 974 LINE SMOOTH",
"308 974 OFFCURVE",
"290 956 OFFCURVE",
"290 906 CURVE SMOOTH",
"290 856 OFFCURVE",
"308 838 OFFCURVE",
"353 838 CURVE SMOOTH",
"546 838 LINE",
"546 592 LINE",
"353 592 LINE SMOOTH",
"308 592 OFFCURVE",
"290 574 OFFCURVE",
"290 524 CURVE SMOOTH",
"290 474 OFFCURVE",
"308 456 OFFCURVE",
"353 456 CURVE SMOOTH",
"546 456 LINE",
"546 284 LINE SMOOTH",
"546 239 OFFCURVE",
"564 221 OFFCURVE",
"614 221 CURVE SMOOTH",
"664 221 OFFCURVE",
"682 239 OFFCURVE",
"682 284 CURVE SMOOTH",
"682 456 LINE",
"875 456 LINE SMOOTH",
"920 456 OFFCURVE",
"938 474 OFFCURVE",
"938 524 CURVE SMOOTH",
"938 574 OFFCURVE",
"920 592 OFFCURVE",
"875 592 CURVE SMOOTH",
"682 592 LINE",
"682 838 LINE",
"875 838 LINE SMOOTH",
"920 838 OFFCURVE",
"938 856 OFFCURVE",
"938 906 CURVE SMOOTH",
"938 956 OFFCURVE",
"920 974 OFFCURVE",
"875 974 CURVE SMOOTH",
"682 974 LINE",
"682 1146 LINE SMOOTH",
"682 1191 OFFCURVE",
"664 1209 OFFCURVE",
"614 1209 CURVE SMOOTH"
);
}
);
width = 1228;
},
{
layerId = "8538028E-5D6C-4318-9676-30148CDA39CA";
paths = (
{
closed = 1;
nodes = (
"519 1209 OFFCURVE",
"501 1191 OFFCURVE",
"501 1146 CURVE SMOOTH",
"501 1004 LINE",
"313 1004 LINE SMOOTH",
"268 1004 OFFCURVE",
"250 986 OFFCURVE",
"250 891 CURVE SMOOTH",
"250 796 OFFCURVE",
"268 779 OFFCURVE",
"313 779 CURVE SMOOTH",
"501 779 LINE",
"501 598 LINE",
"313 598 LINE SMOOTH",
"268 598 OFFCURVE",
"250 580 OFFCURVE",
"250 485 CURVE SMOOTH",
"250 390 OFFCURVE",
"268 373 OFFCURVE",
"313 373 CURVE SMOOTH",
"501 373 LINE",
"501 231 LINE SMOOTH",
"501 186 OFFCURVE",
"519 168 OFFCURVE",
"614 168 CURVE SMOOTH",
"709 168 OFFCURVE",
"726 186 OFFCURVE",
"726 231 CURVE SMOOTH",
"726 373 LINE",
"915 373 LINE SMOOTH",
"960 373 OFFCURVE",
"978 390 OFFCURVE",
"978 485 CURVE SMOOTH",
"978 580 OFFCURVE",
"960 598 OFFCURVE",
"915 598 CURVE SMOOTH",
"726 598 LINE",
"726 779 LINE",
"915 779 LINE SMOOTH",
"960 779 OFFCURVE",
"978 796 OFFCURVE",
"978 891 CURVE SMOOTH",
"978 986 OFFCURVE",
"960 1004 OFFCURVE",
"915 1004 CURVE SMOOTH",
"726 1004 LINE",
"726 1146 LINE SMOOTH",
"726 1191 OFFCURVE",
"709 1209 OFFCURVE",
"614 1209 CURVE SMOOTH"
);
}
);
width = 1228;
}
);
unicode = 2021;
}
